<svg xmlns="http://www.w3.org/2000/svg">
<defs>
<font id="Calafia-Regular" horiz-adv-x="0" >
  <font-face 
    font-family="Calafia"
    font-weight="400"
    font-stretch="normal"
    units-per-em="1000"
    panose-1="3 6 8 2 4 4 6 7 8 5"
    ascent="800"
    descent="-200"
    x-height="450"
    cap-height="698"
    bbox="-373.397 -300.5 1059.27 939"
    underline-thickness="98"
    underline-position="36"
    unicode-range="U+0020-U+FBE5"
  />
<missing-glyph horiz-adv-x="737" 
d="M464 164q-69 -98 -162 -98q-39 0 -63.5 19.5t-24.5 50.5q0 26 19 44.5t45 18.5q40 0 40 -32q0 -31 -34 -31q-12 0 -20 7t-8 17q0 14 7 23q-31 -15 -31 -47q0 -25 18.5 -38.5t45.5 -13.5q65 0 110 99q-78 26 -203 87q-62 -64 -122 -64q-31 0 -50.5 13.5t-19.5 38.5
q0 31 27 50t78 19q28 0 58 -6q17 38 43 117q-107 7 -107 81q0 35 22 58t53 23q20 0 30.5 -10t10.5 -24t-8 -23t-20 -9q-30 0 -30 26q0 13 6 23q-46 -19 -46 -64q0 -55 92 -64q37 96 82.5 140.5t86.5 44.5q52 0 52 -52q0 -56 -42.5 -99t-105.5 -51q-31 -89 -61 -128
q31 -8 65 -20.5t75.5 -30.5t57.5 -24q3 10 12 28.5t11 23.5q29 69 57 104q-52 18 -99 18q-37 0 -56 -15.5t-19 -42.5q0 -21 13.5 -31t32.5 -10q31 0 42 29q-7 -5 -18 -5q-29 0 -29 25q0 29 31 29q15 0 24 -10t9 -27q0 -23 -17 -41t-42 -18q-27 0 -45.5 17t-18.5 47
q0 41 34 70t89 29q58 0 104 -17q36 43 76 58l11 -7q-21 -16 -46 -63q8 0 26 -3t26 -3q33 0 48.5 17.5t15.5 45.5q0 38 -29 57.5t-75 19.5q-64 0 -88 -29q30 0 30 -25q0 -28 -30 -28q-13 0 -21 8t-8 21q0 30 34.5 50t82.5 20q59 0 93 -27.5t34 -71.5q0 -40 -30 -72t-86 -32
q-35 0 -47 5q-8 -17 -24 -59t-28 -68q-8 -23 -23 -46q53 -18 92 -18q31 0 53.5 19t22.5 45q0 36 -40 46q11 -11 11 -23q0 -13 -10 -21.5t-24 -8.5t-24.5 8.5t-10.5 21.5q0 18 13.5 29t38.5 11q27 0 45 -17t18 -46q0 -45 -34.5 -72t-98.5 -27q-24 0 -75 11zM394 623
q-21 0 -41 -36.5t-51 -126.5q49 9 82 45t33 83q0 35 -23 35zM75 223q41 0 81 64q-43 17 -70 17q-22 0 -36.5 -12.5t-14.5 -33.5q0 -35 40 -35z" />
    <glyph glyph-name="u.fina" unicode="&#x6c7;" horiz-adv-x="468" arabic-form="final" 
d="M306 -1q-25 -1 -43 23.5t-25 55.5q-15 8 -22 17q-60 -94 -105 -95q-37 -1 -58 24t-25 56q-30 18 -30 50q0 53 72 179q83 141 97 141q24 1 48.5 -13t25.5 -28q-87 -147 -154 -310q38 16 80.5 61t73 91l68.5 104.5t59 84.5q21 3 50 -10t29 -34q-53 -86 -138 -280
q46 18 88 51.5t64 71.5h4q32 -27 32 -54q-2 -34 -78.5 -109.5t-112.5 -76.5z" />
    <glyph glyph-name="oe.fina" unicode="&#x6c6;" horiz-adv-x="619" arabic-form="final" 
d="M632 190q0 -23 -32.5 -69t-88.5 -87t-108 -41q-42 0 -79.5 29.5t-40.5 82.5l-3 1q-78 -113 -148 -113q-61 0 -67 60q-56 16 -56 94q0 69 38.5 144.5t97 125.5t112.5 50t62 -42q21 -10 34 -35q78 80 147 80t80 -51q31 -18 31 -48q0 -64 -66.5 -133.5t-122.5 -69.5
q-18 0 -33.5 12t-22.5 27q-25 -60 -23 -117q14 -2 23 -2q58 0 126.5 38t108.5 102h4q27 -12 27 -38zM240 305q-3 -31 7 -89q50 103 50 204l-6 -3q-20 -13 -35 -43.5t-16 -68.5zM373 224q44 11 99 69t77 112q-52 -14 -99.5 -64.5t-76.5 -116.5zM175 267q0 20 6 41
q-70 -105 -85 -235q58 13 105 71q-26 55 -26 123z" />
    <glyph glyph-name="e.fina" unicode="&#x6d0;" horiz-adv-x="376" arabic-form="final" 
d="M389 190q0 -23 -32.5 -69t-88.5 -87t-108 -41q-42 0 -79.5 29.5t-41.5 82.5q-30 27 -30 73q0 60 39.5 129.5t98 116t110.5 46.5q69 0 80 -51q31 -18 31 -48q0 -64 -66.5 -133.5t-122.5 -69.5q-18 0 -33.5 12t-22.5 27q-25 -60 -23 -117q14 -2 23 -2q58 0 126.5 38
t108.5 102h4q27 -12 27 -38zM130 224q44 11 99 69t77 112q-52 -14 -99.5 -64.5t-76.5 -116.5z" />
    <glyph glyph-name=".notdef" horiz-adv-x="737" 
d="M464 164q-69 -98 -162 -98q-39 0 -63.5 19.5t-24.5 50.5q0 26 19 44.5t45 18.5q40 0 40 -32q0 -31 -34 -31q-12 0 -20 7t-8 17q0 14 7 23q-31 -15 -31 -47q0 -25 18.5 -38.5t45.5 -13.5q65 0 110 99q-78 26 -203 87q-62 -64 -122 -64q-31 0 -50.5 13.5t-19.5 38.5
q0 31 27 50t78 19q28 0 58 -6q17 38 43 117q-107 7 -107 81q0 35 22 58t53 23q20 0 30.5 -10t10.5 -24t-8 -23t-20 -9q-30 0 -30 26q0 13 6 23q-46 -19 -46 -64q0 -55 92 -64q37 96 82.5 140.5t86.5 44.5q52 0 52 -52q0 -56 -42.5 -99t-105.5 -51q-31 -89 -61 -128
q31 -8 65 -20.5t75.5 -30.5t57.5 -24q3 10 12 28.5t11 23.5q29 69 57 104q-52 18 -99 18q-37 0 -56 -15.5t-19 -42.5q0 -21 13.5 -31t32.5 -10q31 0 42 29q-7 -5 -18 -5q-29 0 -29 25q0 29 31 29q15 0 24 -10t9 -27q0 -23 -17 -41t-42 -18q-27 0 -45.5 17t-18.5 47
q0 41 34 70t89 29q58 0 104 -17q36 43 76 58l11 -7q-21 -16 -46 -63q8 0 26 -3t26 -3q33 0 48.5 17.5t15.5 45.5q0 38 -29 57.5t-75 19.5q-64 0 -88 -29q30 0 30 -25q0 -28 -30 -28q-13 0 -21 8t-8 21q0 30 34.5 50t82.5 20q59 0 93 -27.5t34 -71.5q0 -40 -30 -72t-86 -32
q-35 0 -47 5q-8 -17 -24 -59t-28 -68q-8 -23 -23 -46q53 -18 92 -18q31 0 53.5 19t22.5 45q0 36 -40 46q11 -11 11 -23q0 -13 -10 -21.5t-24 -8.5t-24.5 8.5t-10.5 21.5q0 18 13.5 29t38.5 11q27 0 45 -17t18 -46q0 -45 -34.5 -72t-98.5 -27q-24 0 -75 11zM394 623
q-21 0 -41 -36.5t-51 -126.5q49 9 82 45t33 83q0 35 -23 35zM75 223q41 0 81 64q-43 17 -70 17q-22 0 -36.5 -12.5t-14.5 -33.5q0 -35 40 -35z" />
    <glyph glyph-name=".null" 
 />
    <glyph glyph-name="nonmarkingreturn" horiz-adv-x="333" 
 />
    <glyph glyph-name="space" unicode=" " horiz-adv-x="217" 
 />
    <glyph glyph-name="exclam" unicode="!" horiz-adv-x="294" 
d="M441 654q0 -23 -75 -196.5t-119 -265.5q-23 -5 -54.5 8t-26.5 38q7 32 78.5 221.5t100.5 255.5q39 0 67.5 -19t28.5 -42zM186 12q-16 -14 -47 -10.5t-34 21.5q-25 13 -25 31q0 23 14 49t33 43q14 13 41.5 8.5t35.5 -20.5q26 -11 26 -30q0 -24 -13 -50t-31 -42z" />
    <glyph glyph-name="quotedbl" unicode="&#x22;" horiz-adv-x="471" 
d="M227 459q-21 10 -13.5 79t35.5 140q25 62 74 44q48 -18 26 -84q-26 -72 -64 -129t-58 -50zM388 459q-21 10 -13.5 79t35.5 140q25 62 74 44q48 -18 26 -84q-26 -72 -64 -129t-58 -50z" />
    <glyph glyph-name="numbersign" unicode="#" horiz-adv-x="765" 
d="M722 193q-35 2 -157 4l-105 -212q-23 2 -49.5 20t-26.5 39q0 25 58 153q-24 0 -68 -0.5t-64 -0.5l-105 -211q-23 2 -49.5 20t-26.5 39q0 25 56 151h-30q-57 0 -57 47q0 28 15 58q20 5 125 8l67 140h-64q-57 0 -57 47q0 28 15 58q24 5 160 9q53 112 76 166q27 5 58 -13.5
t31 -47.5q0 -10 -41 -102q24 0 68.5 0.5t64.5 0.5q46 96 74 162q27 5 58 -13t31 -48q0 -9 -40 -101q53 0 76 -13.5t21 -43.5q-2 -37 -28 -63q-39 3 -123 3l-64 -136h34q52 0 74.5 -13.5t20.5 -43.5q-2 -37 -28 -63zM365 311q22 0 65.5 0.5t64.5 1.5l66 137q-89 0 -131 -1z
" />
    <glyph glyph-name="dollar" unicode="$" horiz-adv-x="546" 
d="M212 -42q-19 0 -43.5 13t-20.5 25q7 25 34 70q-65 26 -79 73q-23 17 -22 44q4 47 54 98.5t91 51.5q19 0 33.5 -13t18.5 -31q-67 -53 -110 -116q40 -6 77 -6q74 0 122 22t52 61q2 24 -30.5 54.5t-74 54.5t-77.5 55.5t-38 57.5q-1 4 -1 15q0 5 1 7q-4 11 -4 27
q9 105 207 140q29 66 51 95q3 4 13 4q19 0 43.5 -13t20.5 -25q-5 -20 -23 -49q20 2 29 2q41 1 56 -33q19 -11 29.5 -30.5t2.5 -27.5q-108 -119 -135 -157q-22 0 -32 19t-5 48q4 35 38 78q-133 -16 -214 -56q24 -30 62 -57.5t70 -47.5t61 -43.5t44.5 -56t11.5 -75.5
q-7 -79 -77 -129.5t-173 -54.5q-30 -65 -49 -89q-2 -5 -14 -5z" />
    <glyph glyph-name="percent" unicode="%" horiz-adv-x="679" 
d="M251 367q-23 0 -39.5 13t-23.5 31q-17 8 -30 25.5t-13 36.5q0 66 56.5 141t111.5 75q28 0 45.5 -16.5t20.5 -33.5q-9 0 -17 -4q43 -17 43 -60q0 -65 -55 -136.5t-99 -71.5zM630 675q28 0 49 -22.5t18 -55.5q-107 -112 -276 -309t-257 -314q-24 6 -49.5 39.5t-11.5 51.5
q73 91 258.5 305.5zM213 436q90 47 135 192q-39 -23 -80.5 -80.5t-54.5 -111.5zM488 -21q-23 0 -40 13.5t-24 31.5q-17 9 -29.5 25.5t-12.5 34.5q0 66 56 141.5t111 75.5q29 0 46.5 -16t20.5 -33q-9 0 -18 -4q44 -18 44 -60q0 -65 -55 -137t-99 -72zM450 49q90 46 135 193
q-39 -23 -81 -81.5t-54 -111.5z" />
    <glyph glyph-name="ampersand" unicode="&#x26;" horiz-adv-x="496" 
d="M347 0q-62 0 -129 65q-72 -64 -115 -64q-29 0 -51 24.5t-30 61.5q-47 24 -47 83q0 50 38.5 97.5t85.5 74.5q-2 38 -1 59q4 68 33 141t80 125.5t108 52.5q16 0 33 -8.5t25 -22.5q58 -9 58 -83q0 -65 -65.5 -138t-166.5 -113q6 -87 55 -151q27 21 77 69q-46 -6 -71 -10
q-10 10 -6.5 35t20.5 35q48 31 144 31q50 0 82 -11q32 -10 22 -74q-57 6 -124 1q-35 -56 -95 -125q72 -55 148 -37q0 -42 -31.5 -80t-76.5 -38zM204 413q132 129 149 251q-49 -23 -94.5 -95.5t-54.5 -155.5zM65 108q43 1 97 30q-34 56 -52 130q-47 -85 -45 -160z" />
    <glyph glyph-name="quotesingle" unicode="'" horiz-adv-x="310" 
d="M227 459q-21 10 -13.5 79t35.5 140q25 62 74 44q48 -18 26 -84q-26 -72 -64 -129t-58 -50z" />
    <glyph glyph-name="parenleft" unicode="(" horiz-adv-x="373" 
d="M247 -101q-16 -11 -46 -11q-48 0 -82.5 67t-34.5 167q0 104 25.5 204.5t65.5 175.5t87 133t91.5 88t77.5 30q7 0 11 -1q26 -5 41.5 -25.5t15.5 -38.5v-4q-136 -84 -215.5 -236t-79.5 -353q0 -105 43 -196z" />
    <glyph glyph-name="parenright" unicode=")" horiz-adv-x="522" 
d="M273 771q16 11 46 11q48 0 82.5 -67t34.5 -167q0 -104 -25.5 -204.5t-65.5 -175.5t-87 -133t-91.5 -88t-77.5 -30q-7 0 -11 1q-26 5 -41.5 25.5t-15.5 38.5v4q136 84 215.5 236t79.5 353q0 105 -43 196z" />
    <glyph glyph-name="asterisk" unicode="*" horiz-adv-x="428" 
d="M449 476q3 -12 -28 -30t-39 -8q-16 19 -36 66q-44 -43 -68 -53q-11 -5 -35 22t-15 37q15 18 67 53q-40 30 -55 50q-7 10 14.5 38.5t32.5 22.5q18 -10 48 -39q20 52 33 68q7 5 23.5 2t33 -13t14.5 -18q-2 -13 -23 -59q45 14 72 14q12 0 21.5 -34.5t-2.5 -40.5
q-22 -11 -85 -20q22 -36 27 -58z" />
    <glyph glyph-name="plus" unicode="+" horiz-adv-x="571" 
d="M356 165q-2 -14 -14.5 -21t-29.5 -7t-30 1.5t-24 4.5l28 164q-73 -5 -120 -12q-7 12 -11 26.5t-5 29t5.5 25.5t19.5 14q51 11 126 14q15 94 19 141q25 11 59 3.5t39 -34.5q2 -19 -12 -107q67 0 104 -8q19 -4 28 -20t8 -32.5t-1 -30.5q-47 0 -157 -4q-21 -101 -32 -147z
" />
    <glyph glyph-name="comma" unicode="," horiz-adv-x="306" 
d="M221 103q0 -57 -73 -133t-111 -76q-30 0 -59 29q95 107 179 238q23 -4 43.5 -20.5t20.5 -37.5z" />
    <glyph glyph-name="hyphen" unicode="-" horiz-adv-x="550" 
d="M465 400q48 -10 45 -86q-198 -2 -329 -21q-9 16 -13.5 37t0.5 40t22 23q66 13 147 15.5t128 -8.5z" />
    <glyph glyph-name="period" unicode="." horiz-adv-x="319" 
d="M195 5q-16 -16 -48.5 -12.5t-41.5 24.5q-29 14 -29 34q0 25 16 54t37 49q20 17 49.5 11.5t38.5 -25.5q27 -13 27 -33q0 -27 -14 -56t-35 -46z" />
    <glyph glyph-name="slash" unicode="/" horiz-adv-x="444" 
d="M463 806q26 3 47.5 -15t22.5 -49q3 -20 -167.5 -386t-238.5 -481q-20 2 -40 20.5t-22 40.5q-3 24 141.5 333z" />
    <glyph glyph-name="zero" unicode="0" horiz-adv-x="532" 
d="M243 0q-29 0 -56 23t-26 52q-39 12 -61 42.5t-22 71.5q0 108 52.5 226.5t140 200.5t176.5 82q49 0 73 -47q33 -10 55.5 -45.5t24.5 -82.5q7 -107 -47.5 -231t-141.5 -208t-168 -84zM197 93q70 33 138 123t111 195t52 193q-73 -22 -150 -119t-120.5 -210t-30.5 -182z" />
    <glyph glyph-name="one" unicode="1" horiz-adv-x="311" 
d="M147 -4q-24 0 -61.5 26.5t-38.5 47.5q-2 58 64 193t160 287q-12 -6 -27 -16q-8 0 -26.5 18.5t-19.5 29.5q-1 28 76 83t115 55q31 0 51 -40q28 -22 29 -38q-91 -122 -182 -307t-140 -339z" />
    <glyph glyph-name="two" unicode="2" horiz-adv-x="449" 
d="M247 28q-84 0 -169 -17q-15 0 -24 24.5t-9 52.5q0 11 1 15q-12 10 -12 19q0 39 42.5 87.5t103.5 97.5l122.5 101t106.5 113t49 117q-68 -9 -129.5 -45t-93.5 -73q-13 2 -30 29t-17 51q0 39 70.5 80t131.5 41q43 0 78 -18.5t43 -48.5q50 -34 50 -88q0 -50 -24.5 -96.5
t-69 -87.5t-90 -76l-104.5 -79.5t-96 -80.5q32 4 73 4q90 0 131 -45q12 -12 19 -40t5 -49q-83 12 -158 12z" />
    <glyph glyph-name="three" unicode="3" horiz-adv-x="453" 
d="M211 0q-52 0 -70 43l-7 -1q-37 0 -66 36t-31 73q-3 49 19 93t42 44q13 0 41 -28t29 -45q-14 -24 -15.5 -69t7.5 -71q61 18 118 92.5t70 169.5q-33 -4 -79 -14q-16 5 -29.5 32.5t-3.5 38.5q88 28 143 98.5t65 147.5q-110 -19 -195 -106q-13 2 -29.5 27t-16.5 47
q-2 36 61 74t118 38q41 0 74 -17.5t42 -45.5q46 -33 46 -80q0 -50 -38.5 -114t-99.5 -95q29 -14 46.5 -40.5t17.5 -57.5q0 -25 -9.5 -58.5t-30.5 -71t-50 -68.5t-73.5 -51.5t-95.5 -20.5z" />
    <glyph glyph-name="four" unicode="4" horiz-adv-x="478" 
d="M510 210h-100q-50 -111 -89 -214q-23 0 -59 26.5t-37 47.5q-1 24 48 136q-78 -5 -151 -17q-17 6 -31.5 40t-10.5 59q-16 18 -16 31q0 35 87.5 133t194 182.5t150.5 84.5q25 0 51.5 -19.5t27.5 -43.5q-13 -7 -39 -23q26 -3 52.5 -17.5t27.5 -28.5q-87 -130 -172 -307
q26 -11 45.5 -32.5t20.5 -37.5zM318 302q91 182 169 297q-81 -59 -162 -137.5t-139 -154.5q77 0 132 -5z" />
    <glyph glyph-name="five" unicode="5" horiz-adv-x="464" 
d="M196 0q-29 0 -57.5 17t-38.5 42q-28 7 -44 33t-16 57q0 49 23.5 92t44.5 43q12 0 33 -27.5t22 -44.5q-16 -26 -20 -68t6 -64q81 21 151 114t77 181q-94 -7 -142 -41q-7 -5 -11 -4q-22 8 -50.5 38t-29.5 48q-1 23 33 86t71 115q-4 36 4 50q8 15 78.5 27.5t147.5 12.5
q136 0 91 -110q-126 3 -205 -8q-55 -77 -88 -142q14 1 43 1q52 0 93 -17t45 -51q27 -22 28 -66q3 -46 -17.5 -100.5t-57.5 -102t-94 -79.5t-120 -32z" />
    <glyph glyph-name="six" unicode="6" horiz-adv-x="491" 
d="M251 -3q-81 0 -103 61q-17 3 -25 6t-24.5 14t-25.5 36.5t-10 63.5q0 87 44.5 187.5t106.5 177t128.5 128t110.5 51.5q26 0 55 -19.5t30 -40.5q-168 -87 -278 -257q65 62 118 62q24 0 38.5 -11t18.5 -21t8 -28q66 -21 76 -99q7 -62 -30.5 -135t-103.5 -124.5t-134 -51.5z
M175 88q97 16 163.5 108.5t69.5 194.5q-88 -21 -161.5 -116.5t-71.5 -186.5z" />
    <glyph glyph-name="seven" unicode="7" horiz-adv-x="402" 
d="M205 0q-23 0 -59.5 27t-36.5 48q0 17 5.5 38t19 49.5l25.5 52t35.5 61l38 59.5l44.5 65l42.5 60.5l45 63l39.5 55.5q-122 11 -236 -7q-6 77 24 104q41 40 156 40q57 0 100.5 -13t52.5 -30q13 -23 20 -75q16 -16 17 -27q-213 -289 -333 -571z" />
    <glyph glyph-name="eight" unicode="8" horiz-adv-x="457" 
d="M243 -10q-60 -3 -100 35t-44 86q-29 32 -31 71q-1 28 10.5 55.5t26 47t46 46t50.5 40l60 41.5q-59 29 -65 102q-6 93 55 162t142 72q53 1 88.5 -21t41.5 -44q49 -25 50 -79q1 -41 -12.5 -76t-44.5 -67t-58 -53.5t-74 -53.5q57 -29 67 -100q15 -95 -54 -178t-154 -86z
M307 445q76 54 119 107.5t48 123.5q-59 -12 -99.5 -50t-56.5 -85t-11 -96zM143 106q53 -19 102.5 10t75 87t17.5 120q-77 -55 -125 -103.5t-70 -113.5z" />
    <glyph glyph-name="nine" unicode="9" horiz-adv-x="474" 
d="M204 -3q-36 0 -63 27t-28 52q56 0 126 71t128 179q-80 -89 -138 -89q-70 0 -76 78q-42 28 -45 91q-2 62 41.5 134.5t112 122.5t130.5 50q70 0 93 -41q66 -27 68 -111q3 -103 -58 -238.5t-145.5 -230.5t-145.5 -95zM213 334q95 27 165.5 121.5t82.5 161.5q0 8 1 12
q-94 -16 -164.5 -105t-84.5 -190z" />
    <glyph glyph-name="colon" unicode=":" horiz-adv-x="328" 
d="M265 303q-16 -13 -44.5 -9.5t-36.5 21.5q-25 12 -25 31q0 22 14 48t32 44q18 15 43.5 10t34.5 -22q26 -11 26 -31q0 -23 -13 -49.5t-31 -42.5zM203 75q-16 -14 -45 -10.5t-36 21.5q-25 13 -25 31q0 46 46 92q18 15 43 10.5t34 -21.5q27 -11 27 -31q0 -24 -13 -50t-31 -42
z" />
    <glyph glyph-name="semicolon" unicode=";" horiz-adv-x="308" 
d="M245 303q-16 -13 -44.5 -9.5t-36.5 21.5q-25 12 -25 31q0 22 14 48t32 44q18 15 43.5 10t34.5 -22q26 -11 26 -31q0 -23 -13 -49.5t-31 -42.5zM208 103q0 -57 -73 -133t-111 -76q-30 0 -59 29q95 107 179 238q23 -4 43.5 -20.5t20.5 -37.5z" />
    <glyph glyph-name="less" unicode="&#x3c;" horiz-adv-x="477" 
d="M380 161q-69 55 -143.5 129t-70.5 98q4 25 53.5 68t109 75t88.5 28q30 -5 60 -45l-170 -123q57 -48 95 -98t34 -74q-3 -14 -23 -33t-33 -25z" />
    <glyph glyph-name="equal" unicode="=" horiz-adv-x="555" 
d="M500 487q48 -10 45 -86q-230 -2 -359 -21q-9 16 -13.5 37t0.5 40t22 23q66 13 162 15.5t143 -8.5zM485 311q48 -10 45 -86q-230 -2 -359 -21q-9 16 -13.5 37t0.5 40t22 23q66 13 162 15.5t143 -8.5z" />
    <glyph glyph-name="greater" unicode="&#x3e;" horiz-adv-x="477" 
d="M461 341q-4 -25 -53.5 -68t-109 -75t-88.5 -28q-30 5 -60 45l170 123q-57 48 -95 98t-34 74q3 14 23 33t33 25q69 -55 143.5 -129t70.5 -98z" />
    <glyph glyph-name="question" unicode="?" horiz-adv-x="489" 
d="M224 193q-28 0 -49.5 17t-21.5 46q0 25 28 58t68.5 68.5l81.5 74t71 86.5t33 94q-69 -9 -130.5 -45t-92.5 -73q-13 2 -30 29t-17 51q0 39 70.5 80t131.5 41q43 0 77.5 -18t42.5 -48q42 -28 42 -80q0 -35 -31.5 -81t-76.5 -89l-89.5 -83.5t-76 -75t-31.5 -52.5zM162 12
q-15 -14 -44 -10.5t-37 21.5q-25 12 -25 31q0 23 14 49t33 43q14 13 41.5 8.5t35.5 -20.5q26 -11 26 -30q0 -24 -12.5 -50t-31.5 -42z" />
    <glyph glyph-name="at" unicode="@" horiz-adv-x="728" 
d="M328 -50q-88 0 -151 94t-63 201q0 164 105 292.5t230 128.5q54 0 99 -30.5t68 -76.5q49 -24 75.5 -78.5t26.5 -107.5q0 -62 -25 -118t-61.5 -91t-73.5 -55t-65 -20q-29 0 -48 19t-23.5 35.5t-4.5 26.5q-15 3 -22 18q-40 -42 -68 -42q-29 0 -45.5 20.5t-16.5 42.5
q-19 17 -19 53q0 82 65.5 156.5t118.5 74.5q31 0 49.5 -14t22.5 -34l5 -3q7 12 8 13q12 13 31 11t36 -14t17 -24q-28 -35 -72.5 -116t-66.5 -136q77 20 130 97.5t51 154.5q-2 41 -18 74q-62 55 -156 55q-119 0 -203.5 -95.5t-97.5 -239.5q21 -70 73.5 -115.5t111.5 -52.5
q18 -2 65 1t60 10q-7 -33 -47 -74t-101 -41zM298 219q31 12 61 39t53 60t39 61.5t26 53.5q-66 -13 -116 -82t-63 -132z" />
    <glyph glyph-name="A" unicode="A" horiz-adv-x="439" 
d="M235 74q0 37 30 135l-113 7q-62 -118 -105 -233q-37 0 -59.5 20t-22.5 60q0 45 62 162h-4q-23 34 -23 62q0 16 12 22.5t53 6.5h14q83 136 177.5 259t116.5 123q53 0 72 -43q27 -4 51.5 -19t24.5 -29q0 -12 -35.5 -115.5l-85 -252t-74.5 -242.5q-33 -1 -62 21t-29 56z
M292 292q52 153 123 326q-101 -112 -213 -310q63 -7 90 -16z" />
    <glyph glyph-name="B" unicode="B" horiz-adv-x="443" 
d="M171 -9q-34 0 -63.5 24t-40.5 68q-23 9 -41 26t-17 36q1 12 7.5 34t20.5 54l27 61.5t35 73.5l36 72.5l38 76.5l34 67q-57 -13 -107 -35q-18 15 -25.5 40t8.5 53q31 28 109.5 46t157.5 18q99 0 135 -19.5t39 -55.5q33 -21 33 -47q0 -53 -54.5 -129.5t-140.5 -123.5
q64 -20 64 -78q0 -34 -23 -79.5t-58 -86t-82.5 -68.5t-91.5 -28zM339 580q-1 -13 -109 -222q164 77 223 248q-62 5 -123 -2q9 -12 9 -24zM127 90q54 0 105.5 51.5t87.5 137.5q-83 2 -138 -13l-81 -170q13 -6 26 -6z" />
    <glyph glyph-name="C" unicode="C" horiz-adv-x="391" 
d="M540 356l-57.5 -93t-63.5 -92.5t-74.5 -93t-72.5 -59.5t-76 -27q-44 0 -76 27t-47 69q-52 26 -52 107q0 71 32 159t83 164.5t122.5 128.5t142.5 52q21 0 42 -18.5t28 -37.5q19 -6 30 -18.5t11 -22.5t-14 -41t-37.5 -78.5t-36.5 -76.5q-35 0 -56 16t-21 47q0 29 24 75
t50 81q-75 -30 -142 -115t-107 -191t-43 -203q157 -32 393 278q7 0 15 -14t3 -23z" />
    <glyph glyph-name="D" unicode="D" horiz-adv-x="510" 
d="M140 -24q-33 0 -55 30.5t-30 84.5q-45 19 -46 51q0 53 49 159.5t139 269.5q-53 -11 -97 -30q-18 16 -24.5 43t11.5 55q88 58 245 58q100 0 141 -28t47 -76q39 -24 40 -59q0 -98 -61.5 -228.5t-162 -230t-196.5 -99.5zM117 91q54 0 136 83.5t146 200.5t71 204
q-68 14 -155 9q12 -15 12 -27t-42.5 -98l-98 -200t-77.5 -172h8z" />
    <glyph glyph-name="E" unicode="E" horiz-adv-x="389" 
d="M534 354q-15 -32 -60.5 -91t-102.5 -120.5t-120 -106.5t-105 -45q-44 0 -75 26t-33 60q-61 28 -51 108q7 74 68 124.5t154 72.5q-52 22 -84 53.5t-28 69.5q3 24 11 37q-4 11 -4 24q0 57 68 94.5t156 37.5q44 0 83 -9t55 -22q26 -19 26 -50q17 -13 14 -35
q-7 -45 -62 -79.5t-93 -34.5q-20 0 -31 8.5t-9 23.5q86 55 119 104q-118 3 -231 -48q-5 -26 7.5 -50.5t39.5 -46t48 -34.5t50 -28q15 -7 10 -24.5t-21 -22.5q-104 -39 -175 -108t-62 -141q80 8 191 84t221 203q14 0 23 -11t3 -23z" />
    <glyph glyph-name="F" unicode="F" horiz-adv-x="423" 
d="M202 -68q-15 0 -33 7t-34.5 28.5t-14.5 53.5q3 80 124 300l-46 3q-22 2 -31.5 30.5t6.5 44.5q12 12 124 16l103 170q-125 12 -289 -20q53 -17 116 -28q6 -7 -0.5 -23.5t-19.5 -21.5q-18 -8 -65 -8t-75 11q-29 11 -25 58q-13 16 -12 44t19 41q87 60 237 60q104 0 152 -17
q22 -7 30 -32q24 -8 39 -23.5t8 -30.5l-100 -182q49 -3 55 -9q12 -10 -8 -43.5t-44 -37.5q-28 -4 -51 -4l-12 -26q-117 -245 -153 -361z" />
    <glyph glyph-name="G" unicode="G" horiz-adv-x="478" 
d="M257 -199q-26 -1 -52.5 20t-26.5 48q0 45 150 311q-112 -160 -189 -160q-40 0 -62.5 29t-25.5 73q-45 17 -45 88q0 43 24 105t68 128t98.5 123.5t122.5 94.5t133 37q52 0 64 -45q23 -5 36.5 -18t13.5 -25q0 -10 -14 -41t-37.5 -78.5t-36.5 -76.5q-35 0 -56 16t-21 47
q0 51 64 142q-107 -40 -223.5 -193t-141.5 -278q75 9 153 67t129 135q88 0 88 -54q0 -26 -41 -117l-96.5 -207t-75.5 -171z" />
    <glyph glyph-name="H" unicode="H" horiz-adv-x="533" 
d="M260 114q0 38 79 201q-75 -2 -112 -4q-88 -191 -140 -317q-27 0 -61.5 12.5t-34.5 36.5q0 19 98 254l-28 -4q-9 16 -13.5 37t0.5 40t22 23q42 8 64 10q81 187 131 288q46 0 75.5 -19t29.5 -40q0 -15 -99 -227q48 -7 85 -19q10 -4 14 -8l78 157t74 151q37 0 67 -20.5
t30 -52.5q0 -11 -43.5 -94.5l-106 -204t-94.5 -191.5q46 17 90.5 49t84 77.5t60.5 73t51 70.5q4 -2 9.5 -6t13 -14.5t-0.5 -20.5q-60 -107 -162.5 -230.5t-156.5 -123.5q-38 0 -60 55q-44 26 -44 61z" />
    <glyph glyph-name="I" unicode="I" horiz-adv-x="388" 
d="M97 -9q-31 0 -60.5 28.5t-31.5 65.5q104 -7 195 106q-109 36 -109 156q0 72 31 152.5t89 139.5t125 59q38 0 62 -19.5t23 -47.5q38 -22 38 -68q0 -103 -54 -237.5t-140.5 -234.5t-167.5 -100zM196 288q0 -54 18 -79q61 82 99 195t43 216q-65 -28 -112.5 -126.5
t-47.5 -205.5z" />
    <glyph glyph-name="J" unicode="J" horiz-adv-x="413" 
d="M76 -92q-25 0 -45 16.5t-21 44.5q-21 3 -36.5 20t-17.5 45q-3 53 58.5 99t169.5 61q-97 48 -97 159q0 49 19.5 108t53 112t84.5 88.5t107 35.5q33 0 55 -18t26 -45q37 -18 37 -63q0 -105 -60.5 -261.5t-155.5 -279t-177 -122.5zM194 306q0 -78 39 -102q54 99 91.5 212.5
t45.5 197.5q-74 -35 -125 -131.5t-51 -176.5zM23 -12q84 11 175 156q-82 -16 -120.5 -54t-54.5 -102z" />
    <glyph glyph-name="K" unicode="K" horiz-adv-x="507" 
d="M364 -4q-11 0 -20 4q-42 6 -91.5 74.5t-56.5 185.5q-59 -135 -93 -260q-32 0 -59.5 17t-27.5 53q0 55 79.5 253.5t166.5 364.5q29 0 64.5 -17.5t35.5 -44.5q0 -12 -16 -47l-51.5 -107.5l-60.5 -126.5q77 36 135.5 98.5t87.5 124.5t40 125q45 -8 66.5 -31t21.5 -68
q0 -83 -86.5 -192.5t-205.5 -137.5q27 -110 84 -145q38 20 77 53t78.5 80l58.5 71t51 68q3 -2 8.5 -6.5t12 -14.5t-0.5 -20q-34 -65 -85 -142t-113.5 -144t-99.5 -68z" />
    <glyph glyph-name="L" unicode="L" horiz-adv-x="435" 
d="M324 -4q-73 12 -171 8t-174 -22q-13 6 -13.5 42.5t17.5 49.5q30 12 66 21q-17 24 -16 68q4 94 61 217t140 213.5t153 90.5q26 0 43 -12.5t20 -32.5q64 -17 64 -75q0 -64 -50 -153t-126.5 -157t-142.5 -68q-32 0 -43 34q-19 -53 -28 -111q81 13 138 13q93 0 90 -57
q-1 -16 -9.5 -37.5t-18.5 -31.5zM167 262q76 18 160.5 134.5t96.5 221.5q-68 -47 -140.5 -145.5t-116.5 -210.5z" />
    <glyph glyph-name="M" unicode="M" horiz-adv-x="770" 
d="M607 -4q-25 -1 -43.5 28.5t-24.5 62.5q-18 18 -25 50q-7 36 45 159.5t108 211.5q-194 -197 -330 -484q-30 0 -48.5 19.5t-18.5 54.5q0 91 186 440q-76 -81 -182 -234.5t-179 -303.5q-36 0 -57.5 14.5t-21.5 58.5q0 46 89 263.5t154 343.5q33 0 58.5 -21t25.5 -50
q0 -16 -26.5 -71l-70.5 -139.5t-62 -122.5q274 401 321 401q30 0 56.5 -27.5t29.5 -54.5q-10 -23 -58.5 -113l-69.5 -130q75 94 142 165t102 99.5t44 28.5q19 0 43 -21.5t28 -38.5q0 -15 -42 -96.5l-97 -191.5t-77 -178q131 47 294 272q3 -2 6.5 -5.5t10.5 -14.5t-1 -21
q-32 -62 -87 -141.5t-119.5 -145.5t-102.5 -67z" />
    <glyph glyph-name="N" unicode="N" horiz-adv-x="547" 
d="M385 -7q-24 -1 -42.5 27.5t-24.5 61.5q-33 16 -37 60q-3 31 18.5 91t48.5 115l64 126q10 17 14 26q-80 -88 -171.5 -223t-152.5 -277q-29 0 -57.5 24t-28.5 69q0 39 82.5 243.5t147.5 343.5q34 0 62 -19t28 -47q0 -17 -19 -62.5t-59.5 -131.5l-52.5 -112q88 126 191 247
t131 121q29 0 55.5 -22t28.5 -41l-53 -100l-59.5 -112.5l-47 -94.5t-47 -107t-28.5 -88q40 11 81.5 38t70 53t64 69t49.5 62.5l41 57.5q34 -17 22 -41q-32 -61 -90 -141.5t-124.5 -147.5t-104.5 -68z" />
    <glyph glyph-name="O" unicode="O" horiz-adv-x="488" 
d="M185 -25q-84 0 -88 73q-39 15 -61.5 48.5t-22.5 80.5q0 72 32.5 164.5t94.5 175t134 106.5q61 75 115 75q67 0 81 -59q32 -9 46.5 -45t14.5 -81q0 -97 -51.5 -223.5t-134.5 -220.5t-160 -94zM119 130q0 -39 12 -65q79 19 152 113t115 206.5t52 210.5q-49 -16 -105.5 -86
t-107.5 -169q-35 0 -48 20q-70 -125 -70 -230z" />
    <glyph glyph-name="P" unicode="P" horiz-adv-x="456" 
d="M222 237q-12 0 -24 6q-42 -98 -98 -247q-27 0 -58.5 19.5t-32.5 57.5q-2 42 70.5 202.5t157.5 312.5q-66 -11 -115 -33q-20 16 -28.5 42.5t9.5 49.5q47 43 168.5 54.5t200.5 -17.5q25 -10 46 -41q27 -5 42.5 -25.5t16.5 -47.5q2 -38 -21.5 -92.5t-66 -109t-114 -93
t-153.5 -38.5zM355 570q-70 -130 -122 -248q187 86 252 267q-66 13 -138 10q7 -13 8 -29z" />
    <glyph glyph-name="Q" unicode="Q" horiz-adv-x="488" 
d="M397 -110q-61 8 -155 4t-156 -19q-12 6 -16.5 37.5t10.5 44.5q60 22 88 29q-68 5 -71 62q-39 15 -61.5 48.5t-22.5 80.5q0 72 32.5 164.5t94.5 175t134 106.5q61 75 115 75q67 0 81 -59q32 -9 46.5 -45t14.5 -81q0 -82 -38.5 -186.5t-102.5 -194.5t-132 -126q51 8 99 8
q62 0 62 -61q0 -40 -22 -63zM119 130q0 -39 12 -65q79 19 152 113t115 206.5t52 210.5q-49 -16 -105.5 -86t-107.5 -169q-35 0 -48 20q-70 -125 -70 -230z" />
    <glyph glyph-name="R" unicode="R" horiz-adv-x="507" 
d="M364 -4q-11 0 -20 4q-39 6 -86.5 67t-59.5 166q-75 -153 -108 -237q-27 0 -54 19.5t-27 57.5q0 43 79 207.5t167 314.5q-69 -11 -125 -35q-19 15 -26 37.5t9 49.5q50 43 171.5 54.5t200.5 -17.5q30 -13 49 -52q24 -12 35.5 -25t15.5 -37q4 -42 -32 -107t-106.5 -128
t-149.5 -86q28 -99 80 -130q38 20 77 53t78.5 80l58.5 71t51 68q4 -2 9 -6t11.5 -14.5t-0.5 -20.5q-34 -65 -85 -142t-113.5 -144t-99.5 -68zM363 580q0 -5 -5.5 -19t-19 -42l-25 -51.5l-34 -69.5l-35.5 -73q91 43 154.5 115.5t95.5 153.5q-58 12 -136 10q5 -12 5 -24z" />
    <glyph glyph-name="S" unicode="S" horiz-adv-x="423" 
d="M159 -7q-78 0 -132.5 37.5t-50.5 116.5q20 -18 62 -29t88 -11q68 0 98.5 20t30.5 51q0 20 -16 41t-39.5 40.5l-46.5 40.5t-39 50.5t-16 61.5q0 100 92.5 194.5t174.5 94.5q47 0 64 -30q33 -6 58.5 -30t25.5 -65q0 -78 -50.5 -144.5t-122.5 -66.5q-48 0 -56 37
q49 39 88 99.5t46 138.5q-81 -43 -146.5 -122t-65.5 -130q0 -27 26 -56.5t57.5 -52t57.5 -54.5t26 -64q0 -73 -57.5 -120.5t-156.5 -47.5z" />
    <glyph glyph-name="T" unicode="T" horiz-adv-x="391" 
d="M212 0q-26 0 -55 21.5t-29 67.5q0 47 39 133t81 156.5l127 205.5q-116 8 -261 -23q39 -11 113 -24q7 -6 0.5 -22.5t-19.5 -21.5q-19 -9 -65 -8.5t-76 11.5q-29 12 -25 53q-12 15 -11.5 45.5t18.5 43.5q85 60 224 63q84 3 147 -17q20 -7 29 -33q24 -9 39.5 -24t8.5 -29
l-59 -109l-81.5 -153t-73 -154.5t-71.5 -181.5z" />
    <glyph glyph-name="U" unicode="U" horiz-adv-x="519" 
d="M272 132q0 7 1 10q-97 -149 -170 -149q-63 0 -69 109q-24 21 -24 63q0 48 41.5 157t93 226t61.5 149q48 0 78.5 -18t30.5 -57q0 -30 -33 -105t-98.5 -205t-94.5 -193q25 6 49.5 20.5t49.5 39t46.5 48.5t47.5 64l45 69.5t46.5 80l44.5 82l46.5 88.5l45.5 86q44 0 69 -16
t25 -42q0 -20 -35.5 -97l-94.5 -202t-96 -218q26 10 50.5 25t49 37.5l41.5 39t40 46.5l32.5 42t31.5 44l24 35q34 -17 22 -41q-38 -68 -89 -142.5t-114.5 -143t-100.5 -68.5q-30 0 -47.5 29t-22.5 64q-22 14 -23 43z" />
    <glyph glyph-name="V" unicode="V" horiz-adv-x="429" 
d="M124 -4q-34 0 -52.5 31.5t-21.5 66.5q-35 19 -35 71q0 36 40 144t94.5 235t60.5 143q97 0 104 -70q2 -31 -30 -105.5t-97.5 -204.5t-93.5 -192q55 22 116.5 95t111 164t85 169.5t53.5 134.5q6 0 24.5 -3.5t42 -17t23.5 -33.5q0 -42 -44.5 -145.5t-107.5 -210.5
t-140 -189.5t-133 -82.5z" />
    <glyph glyph-name="W" unicode="W" horiz-adv-x="668" 
d="M286 132q0 10 2 34q-44 -77 -92 -125t-91 -48q-64 0 -72 109q-23 20 -23 63q0 36 41 146t96 240t61 145q107 0 107 -74q0 -29 -33.5 -106t-106 -223l-86.5 -175q55 14 110.5 72.5t102 143.5t80.5 162t62 158q48 0 73.5 -18t25.5 -44q0 -21 -30 -104.5t-81 -212
l-63 -160.5q91 47 184 228.5t132 350.5q99 0 99 -72q0 -42 -39.5 -145t-95 -210t-124.5 -189t-119 -82q-39 0 -60 27.5t-26 61.5q-34 15 -34 47z" />
    <glyph glyph-name="X" unicode="X" horiz-adv-x="504" 
d="M356 -1q-26 -1 -45 31.5t-24 65.5q-31 23 -41 82q-45 -70 -96 -124t-84 -54q-35 0 -63 43t-28 89q129 -22 264 141v10q1 112 56 328q-45 -23 -85 -86t-54 -137q-23 0 -49.5 25.5t-26.5 56.5q0 90 68 161.5t133 71.5q35 0 56 -40q48 -18 39 -73q-11 -83 -18 -177
q30 70 67 131.5t89.5 110.5t100.5 49q41 0 56.5 -25t15.5 -74q-32 12 -82 -29t-101 -111.5t-89 -129t-64 -106.5q2 -64 7 -105q34 13 70.5 40.5t61 50.5t60 66.5t45.5 57.5l40 55l3 -2q3 -2 7 -4t8 -6t6.5 -8.5t3.5 -9.5t-2 -11q-33 -63 -86.5 -141.5t-117.5 -145
t-101 -67.5z" />
    <glyph glyph-name="Y" unicode="Y" horiz-adv-x="476" 
d="M244 -200q-15 0 -31 4.5t-33 21.5t-19 43q0 10 12.5 42t36.5 85.5l44 95.5l51.5 109.5l42.5 90.5q-178 -299 -240 -299q-27 0 -44 18.5t-21.5 38t-7.5 48.5q-25 21 -25 64q0 46 94.5 276t100.5 259q48 0 78.5 -18t30.5 -57q0 -63 -211 -483q47 20 98 72t101 127.5
t84.5 133.5t76 135.5t48.5 88.5q47 0 67.5 -17t20.5 -42q0 -16 -50.5 -129l-142.5 -321.5t-162 -386.5z" />
    <glyph glyph-name="Z" unicode="Z" horiz-adv-x="493" 
d="M538 169q-47 3 -105 1q-52 -99 -141 -180t-186 -81q-66 0 -84 45q-24 7 -41.5 28.5t-17.5 51.5q0 88 107.5 140t264.5 52h13q14 18 31 49q-47 14 -160 30q-45 9 -45 77q95 25 169 78.5t115 120.5q-91 4 -171 -20t-104 -53q-13 2 -31.5 23.5t-18.5 40.5q0 46 67.5 76.5
t169.5 30.5q129 0 154 -82q23 -20 23 -52q0 -46 -51.5 -98.5t-125.5 -86.5q49 -10 64 -21q20 -13 23 -42q8 -18 8 -37q0 -16 -11 -44q69 -10 100 -21zM43 -6q57 7 124.5 52t125.5 110q-218 -38 -250 -162z" />
    <glyph glyph-name="bracketleft" unicode="[" horiz-adv-x="421" 
d="M345 -87q-2 -33 -22 -53q-38 3 -77 3.5t-83 -0.5t-54 -1q-30 0 -40 17q-27 19 -32 46q-6 38 352 889q3 5 6 6q52 10 193 10q41 0 58.5 -10.5t16.5 -34.5q-2 -33 -22 -53q-61 4 -182 2q-24 -78 -132.5 -347.5t-181.5 -430.5q42 2 125 2q41 0 58.5 -10.5t16.5 -34.5z" />
    <glyph glyph-name="backslash" unicode="\" horiz-adv-x="481" 
d="M114 783q9 30 34 43t49 5l129.5 -582.5t63.5 -355.5q-8 -21 -31.5 -34.5t-44.5 -11.5q-39 126 -122.5 521.5t-77.5 414.5z" />
    <glyph glyph-name="bracketright" unicode="]" horiz-adv-x="497" 
d="M164 -140q-38 3 -77 3.5t-83 -0.5t-54 -1q-45 0 -45 37q0 25 12 49q48 10 193 10q40 131 311 777q-26 0 -65.5 -0.5t-52.5 -0.5q-45 0 -45 37q0 25 12 49q48 10 194 10q41 0 58.5 -10.5t16.5 -34.5q-2 -21 -12 -38q-12 -54 -144.5 -382.5t-200.5 -469.5q-7 -24 -18 -35z
" />
    <glyph glyph-name="asciicircum" unicode="^" horiz-adv-x="386" 
d="M311 480q-19 0 -54.5 30.5t-66.5 72.5l-134 -101q-16 14 -16 36q0 30 69.5 92.5t101.5 62.5q8 0 21 -12.5t29.5 -34.5t30.5 -42.5l31 -46l23 -34.5q-17 -23 -35 -23z" />
    <glyph glyph-name="underscore" unicode="_" horiz-adv-x="449" 
d="M346 -25q30 -5 27 -83q-214 5 -390 -21q-9 16 -13.5 37t0.5 40t22 23q65 13 178 14t176 -10z" />
    <glyph glyph-name="grave" unicode="`" horiz-adv-x="171" 
d="M160 508q-24 -8 -89.5 40.5t-70.5 75.5q-3 17 17.5 43.5t39.5 34.5q14 -29 112 -164q7 -22 -9 -30z" />
    <glyph glyph-name="a" unicode="a" horiz-adv-x="463" 
d="M301 -7q-29 0 -48 29t-23 61q-6 4 -9 7q-71 -97 -112 -97q-35 0 -54 33t-21 71q-27 21 -27 70q0 52 25 107.5t61 97t78 68.5t75 27q39 0 61.5 -18.5t25.5 -43.5l23 35q16 17 39 15t43.5 -17.5t20.5 -31.5q-31 -42 -81.5 -136.5t-79.5 -165.5q43 18 87.5 53.5t88.5 88
t65 80.5l55 77q4 -2 9.5 -5.5t12.5 -14.5t1 -22q-39 -70 -92 -148t-119 -149t-105 -71zM74 111q42 15 83 52.5t70 82.5t48.5 82.5t29.5 65.5q-58 -11 -110.5 -64.5t-82 -112t-38.5 -106.5z" />
    <glyph glyph-name="b" unicode="b" horiz-adv-x="459" 
d="M371 73q-45 -28 -91 -26q-52 -54 -92 -54q-66 0 -80 83q-12 0 -21 4l-36 -84q-30 0 -50 26.5t-13 57.5q8 35 117.5 265l157.5 325q42 0 62 -19t20 -46q0 -57 -83 -160q30 22 55 22q29 0 39 -13t12 -35q26 -2 45 -17t19 -47q0 -79 -65 -192q54 38 105.5 95t117.5 148
q10 -3 20.5 -15.5t2.5 -28.5q-41 -87 -116.5 -173t-125.5 -116zM123 96q43 7 83.5 45t68.5 89.5t45.5 94t25.5 74.5q-52 -12 -104.5 -72t-83.5 -123.5t-40 -107.5h5z" />
    <glyph glyph-name="c" unicode="c" horiz-adv-x="342" 
d="M500 361q-221 -368 -345 -368q-45 0 -77.5 29t-41.5 75q-36 21 -36 70q0 104 83 202.5t163 98.5q64 0 76 -48q16 -7 27.5 -20t11.5 -25q0 -11 -21 -39.5t-52 -65t-35 -42.5q-20 0 -30.5 17t-8.5 43q2 42 49 97q-49 -23 -91 -74t-65.5 -103t-30.5 -95q44 -10 98 7t103 56
q97 77 199 227q9 0 20.5 -13t3.5 -29z" />
    <glyph glyph-name="d" unicode="d" horiz-adv-x="471" 
d="M308 -7q-27 0 -46 27t-24 59q-12 5 -15 7q-69 -93 -105 -93q-34 0 -53 31t-22 65q-34 20 -34 75q0 111 79.5 207t151.5 96q40 0 62.5 -18.5t25.5 -43.5l6 -4q90 181 138 269q41 0 61 -20.5t20 -48.5q0 -44 -56 -137t-110 -154q-51 -81 -94 -206q31 11 64.5 34t58 44.5
t58 60.5t48.5 58l46 60.5t34 46.5l3 -2l6.5 -4.5t7.5 -6.5t6.5 -8t3 -9.5t-3.5 -11.5q-42 -73 -93.5 -149.5t-118.5 -150t-105 -73.5zM75 103q41 13 81 50t69.5 84t49 85.5t33.5 72.5q-46 -6 -89 -40.5t-72 -80.5t-48 -91t-24 -80z" />
    <glyph glyph-name="e" unicode="e" horiz-adv-x="376" 
d="M530 361q-33 -66 -94 -149t-136 -151t-125 -68q-49 0 -83.5 28t-43.5 77q-39 25 -39 80q0 60 39.5 129.5t98 116t110.5 46.5q69 0 80 -51q31 -18 31 -48q0 -64 -66.5 -133.5t-122.5 -69.5q-18 0 -33.5 12t-22.5 27q-21 -54 -23 -104q17 -5 29 -5q177 -6 378 305
q8 0 19.5 -13t3.5 -29zM130 224q44 11 99 69t77 112q-52 -14 -99.5 -64.5t-76.5 -116.5z" />
    <glyph glyph-name="f" unicode="f" horiz-adv-x="260" 
d="M-4 -248q-24 0 -42.5 27t-18.5 51q-30 19 -30 48q20 111 146 380t216 412q42 0 62 -20t20 -48q0 -55 -47 -131t-109 -142q-41 -73 -100 -200q73 16 160.5 100t138.5 171q11 0 20 -13.5t2 -32.5q-19 -53 -66 -122t-107 -123t-103 -55q7 -18 8 -40q4 -53 -16.5 -114.5
t-57.5 -104.5t-76 -43zM70 74q0 6 1 9q-73 -159 -98 -239q50 30 83.5 101.5t13.5 128.5z" />
    <glyph glyph-name="g" unicode="g" horiz-adv-x="446" 
d="M156 -237q-46 0 -72 18.5t-26 51.5t26 62.5t78 71.5q38 88 103 211q-104 -171 -164 -171q-67 0 -67 86q-25 22 -25 69q0 113 84.5 209t160.5 96q42 0 70.5 -18t33.5 -43q14 20 25 34q10 0 26.5 -3t35.5 -17t15 -37q-99 -164 -171 -308q152 135 287 306q8 0 17.5 -9
t9.5 -22q0 -47 -123.5 -177t-251.5 -229q-47 -109 -72 -181zM77 100q25 6 52 25t48 39t49 56l44 58t44 64t38 56q-54 -2 -104.5 -35.5t-84.5 -81.5t-56.5 -96t-29.5 -85z" />
    <glyph glyph-name="h" unicode="h" horiz-adv-x="463" 
d="M304 -7q-26 0 -44.5 25.5t-24.5 56.5q-22 19 -22 44q0 31 29 98.5t67 131.5q-147 -130 -254 -349q-25 0 -42.5 25t-17.5 55q0 12 3.5 26.5t11.5 35l12.5 32t16.5 37t14 30.5l116 248.5t91 179.5q41 0 64.5 -15.5t23.5 -45.5q0 -42 -99 -183q-38 -74 -75 -136
q82 90 140 131.5t87 41.5q19 0 40.5 -19.5t22.5 -34.5q-65 -109 -144 -289q51 26 102.5 77t108.5 121.5t71 85.5q37 -16 23 -42q-22 -42 -77.5 -123.5t-130 -163t-113.5 -81.5z" />
    <glyph glyph-name="i" unicode="i" horiz-adv-x="267" 
d="M220 474q-34 0 -46 22.5t-9 40.5q-3 7 -3 17q0 30 30 58t72 28q32 0 52 -14.5t24.5 -28t2.5 -19.5q-23 5 -48 2q20 -14 20 -46q0 -17 -29 -38.5t-66 -21.5zM203 532q57 3 73 44q-47 -15 -73 -44zM105 -7q-23 -1 -40.5 21t-25.5 51q-39 14 -43 55q-4 36 55 152t109 179
q23 0 51.5 -21t28.5 -35q0 -8 -23 -44.5t-61.5 -105.5t-66.5 -141q37 12 78 42.5t68.5 57t67.5 76.5t51.5 66.5l43.5 61.5q2 0 9.5 -5.5t13.5 -15t0 -21.5q-39 -70 -92 -149t-119.5 -151t-104.5 -73z" />
    <glyph glyph-name="j" unicode="j" horiz-adv-x="251" 
d="M214 474q-34 0 -46 22.5t-9 40.5q-3 7 -3 17q0 30 30 58t72 28q32 0 52 -14.5t24.5 -28t2.5 -19.5q-23 5 -48 2q20 -14 20 -46q0 -17 -29 -38.5t-66 -21.5zM197 532q57 3 73 44q-47 -15 -73 -44zM-66 -278q-56 0 -78 35.5t-2 81.5q18 42 86 110q43 118 109.5 275
t99.5 227q34 -2 59 -13.5t25 -26.5q0 -21 -23.5 -74t-63.5 -132t-53 -107l-9 -20q178 159 283 303q9 0 20 -13.5t3 -28.5q-60 -112 -150 -209.5t-233 -223.5q-44 -101 -73 -184z" />
    <glyph glyph-name="k" unicode="k" horiz-adv-x="434" 
d="M265 -1q-36 0 -71.5 41t-43.5 112q-12 6 -17 11l-70 -167q-30 0 -51.5 20t-21.5 49q0 13 10.5 44t26.5 69t40.5 90l45.5 96.5l48.5 100l44.5 88l37.5 73l22.5 44.5q38 0 63 -18t25 -42q0 -27 -46 -97t-89 -125l5 -4q69 83 114 83q39 0 51 -35q41 -9 49 -52q5 -32 -29 -86
t-87 -97.5t-95 -45.5l14 -53q129 25 286 244q4 6 43 61q36 -18 23 -42q-92 -170 -181 -266t-147 -96zM169 215q58 7 111 65t73 123q-58 -18 -109.5 -73.5t-74.5 -114.5z" />
    <glyph glyph-name="l" unicode="l" horiz-adv-x="344" 
d="M496 365q-54 -116 -180.5 -244t-187.5 -128q-40 0 -63.5 31.5t-26.5 64.5q-29 18 -29 63q0 81 56.5 209.5t133 226t126.5 97.5q20 0 39 -15t19 -32l-3 -3q43 -21 43 -60q0 -57 -51.5 -141t-117 -145.5t-104.5 -61.5q-13 0 -23 10q-29 -76 -40 -137q170 34 386 308
q10 -4 17.5 -15.5t5.5 -27.5zM149 291q57 46 126.5 148.5t84.5 173.5q-132 -148 -211 -322z" />
    <glyph glyph-name="m" unicode="m" horiz-adv-x="632" 
d="M471 -7q-30 0 -46.5 34t-16.5 67q-6 16 -7 28q-6 51 90 220q-136 -127 -231 -311q-51 0 -51 75q0 64 87 226q-62 -54 -132 -152.5t-106 -181.5q-24 0 -40.5 26t-17.5 58q0 33 55 161q76 172 106 210q37 0 57 -14.5t20 -32.5q0 -21 -53 -125q148 170 177 170q23 0 40 -12
t18 -26q-16 -30 -55 -123q67 76 127 119.5t84 43.5q22 0 36.5 -18.5t15.5 -35.5q-93 -158 -144 -287q40 18 80.5 51t78 77.5t61 75.5t52.5 73q6 9 9 13q5 -2 10.5 -6.5t12.5 -15t0 -20.5q-38 -69 -91.5 -147.5t-119.5 -149t-106 -70.5z" />
    <glyph glyph-name="n" unicode="n" horiz-adv-x="460" 
d="M299 -7q-26 0 -44.5 25.5t-24.5 56.5q-18 17 -21 42q-5 55 92 228q-147 -132 -252 -345q-25 0 -42 25t-17 55q0 12 3.5 26.5t11.5 35l12.5 32t16.5 37t14 30.5q30 68 63 134t37 76q76 0 76 -44q0 -22 -68 -132q70 80 138 133.5t99 53.5q20 0 42.5 -20t23.5 -34
q-88 -150 -146 -292q33 16 69.5 45.5t63 56.5t60 69t47.5 61l39 55q13 -5 20.5 -16.5t2.5 -25.5q-16 -43 -74 -129.5t-130 -162.5t-112 -76z" />
    <glyph glyph-name="o" unicode="o" horiz-adv-x="400" 
d="M296 70q-14 0 -31 9q-67 -86 -128 -86t-67 59q-61 13 -61 95q0 69 38.5 144.5t97 125.5t112.5 50t61 -40q53 -25 53 -92q0 -74 -53 -175q53 42 114 109t100 134q34 -17 22 -46q-24 -57 -65 -120.5t-95.5 -115t-97.5 -51.5zM245 305q-2 -44 7 -89q50 103 50 204
q-21 -10 -38.5 -42t-18.5 -73zM180 267q0 24 10 54q-79 -110 -94 -250q60 11 110 73q-26 54 -26 123z" />
    <glyph glyph-name="p" unicode="p" horiz-adv-x="460" 
d="M182 -6q-55 0 -75 53q-12 2 -21 7l-105 -262q-79 8 -79 76q0 13 4 31t14 41.5l17.5 41.5t23 48.5t23 44l25 46t20.5 37.5q23 46 44.5 97.5t45.5 116t30 79.5q50 4 83 -31q49 46 86 46q38 0 52 -33q13 -3 25.5 -10.5t25.5 -27t13 -45.5q0 -41 -27.5 -104t-69.5 -123
q63 37 118.5 98t134.5 170q10 -3 21 -16t2 -28q-53 -97 -122 -181.5t-114 -111.5q-58 -37 -121 -23q-42 -37 -74 -37zM113 87q45 5 89 42t75 87.5t52 100t29 87.5q-62 -17 -143.5 -125.5t-101.5 -191.5z" />
    <glyph glyph-name="q" unicode="q" horiz-adv-x="461" 
d="M293 -7q-22 0 -37 12q-10 -81 -41 -171.5t-63 -90.5q-24 0 -43.5 31t-18.5 56q0 33 127 265q-76 -103 -113 -103q-41 0 -57.5 37.5t-12.5 72.5q-25 23 -25 68q0 111 81 204.5t155 93.5q38 0 59.5 -19t25.5 -45l32 54q17 0 50.5 -18t25.5 -44q-31 -56 -142 -299
q23 11 47 28t44 34.5t43.5 43.5l39 44.5t38 48t32.5 44l29.5 42.5l23.5 34q3 -2 9 -6.5t11.5 -15.5t1.5 -21q-42 -102 -152.5 -240.5t-169.5 -139.5zM78 111q35 12 70 41t69 75.5t54 78.5l52 86q-49 -2 -94 -33.5t-75 -76.5t-49.5 -89.5t-26.5 -81.5z" />
    <glyph glyph-name="r" unicode="r" horiz-adv-x="358" 
d="M203 -7q-49 0 -67 67q-43 21 -43 71q0 56 105 211q-26 6 -49 18q-61 -105 -124 -178q-1 -10 -9 1q-19 23 -6 53l4 8q32 38 99 141q-22 20 -22 40q0 26 27.5 67.5t51.5 41.5q22 0 40 -14t18 -27q-4 -13 -31 -59q49 -17 105 -16q9 3 22 -13t12 -29q-79 -127 -142 -264
q44 16 88 50t88.5 86.5t64 78t55.5 76.5q36 -18 22 -42q-39 -72 -90 -149t-115.5 -148t-103.5 -71z" />
    <glyph glyph-name="s" unicode="s" horiz-adv-x="334" 
d="M109 -7q-55 0 -85.5 33.5t-30.5 78.5q0 21 5 35q29 -39 68 -39q37 0 64.5 28.5t27.5 74.5t-25 121q-41 -72 -80.5 -128.5t-56.5 -56.5q-20 0 -28 18.5t4 32.5q55 68 143 191q-2 10 -2 14q0 27 43.5 70.5t68.5 43.5q17 0 35.5 -20.5t25.5 -50.5q-9 -15 -36 -41.5
t-34 -37.5q49 -109 49 -184q0 -14 -1 -20q13 10 27 23l24.5 23.5t25.5 29l23 28t25.5 34l24 33.5l27.5 39l27 39q9 -1 20 -14t3 -30q-52 -101 -111 -185.5t-100 -109.5q-35 -20 -70 -25q-46 -48 -101 -48z" />
    <glyph glyph-name="t" unicode="t" horiz-adv-x="305" 
d="M117 -7q-23 -1 -40 19.5t-25 49.5q-30 12 -30 53q0 60 97 254q-9 0 -25 2q-20 2 -31 32.5t6 39.5q11 5 94 7q34 63 66 107q23 0 42.5 -11t27.5 -25t2 -23q-8 -13 -26 -48q67 -2 74 -7q11 -9 -5 -40t-37 -34q-19 -3 -77 -5q-75 -146 -120 -261q146 52 327 305q4 -2 9.5 -6
t11.5 -14.5t2 -21.5q-25 -64 -91 -152.5t-139 -154t-113 -66.5z" />
    <glyph glyph-name="u" unicode="u" horiz-adv-x="468" 
d="M306 -9q-25 0 -43.5 27t-24.5 60q-13 6 -20 15q-61 -100 -107 -100q-37 0 -58 27.5t-25 59.5q-30 18 -30 49q0 54 72 180q83 141 97 141q24 1 48.5 -13t25.5 -28q-87 -147 -154 -310q38 16 80.5 61t73 91l68.5 104.5t59 84.5q21 3 50 -10t29 -34q-53 -86 -138 -280
q43 18 86.5 53.5t86 86t64 78.5t53.5 74q4 -2 9.5 -5.5t12.5 -14.5t1 -22q-27 -50 -65.5 -109t-84.5 -121t-91 -103.5t-75 -41.5z" />
    <glyph glyph-name="v" unicode="v" horiz-adv-x="442" 
d="M332 70q-33 0 -55 47q-47 -55 -90.5 -89.5t-67.5 -34.5q-26 0 -41 24t-19 54q-25 7 -42 23.5t-17 40.5q0 47 71.5 184.5t86.5 137.5q25 1 57 -16t33 -31q-92 -156 -156 -318q69 22 163 132q-3 74 18 127q15 37 45 77.5t48 40.5q24 0 44 -16t20 -42q0 -17 -4 -36
t-11 -37.5t-15.5 -37t-19.5 -36.5l-20.5 -33.5t-19.5 -30l-16.5 -24t-13.5 -17.5l-6 -8q20 3 42 14t40 23.5t40.5 34.5l37 37t36 42.5l30 39l28 38.5t21.5 30q11 0 21.5 -13t1.5 -29q-91 -160 -156 -229t-114 -69z" />
    <glyph glyph-name="w" unicode="w" horiz-adv-x="643" 
d="M533 70q-33 0 -51 46q-105 -123 -153 -123q-24 0 -40.5 20.5t-22.5 48.5q-27 12 -27 44v8q-86 -121 -137 -121q-28 0 -48 23.5t-25 51.5q-29 14 -29 55q0 52 35 133t74 138t52 57q28 0 59 -16t20 -32q-21 -28 -73.5 -133.5t-82.5 -178.5q38 16 81 63t74 96l69.5 109
t59.5 87q15 7 52 -7t27 -38q-51 -83 -144 -308q66 24 161 141q2 74 22 122q15 37 45.5 77.5t47.5 40.5q25 0 45 -16t20 -42q0 -46 -38 -119t-95 -146q20 4 41 15.5t39 24t40 35l35.5 37t35 42l30 38.5t27.5 38t21 29q11 0 21.5 -13t1.5 -29q-13 -25 -25.5 -46.5t-46 -72.5
t-62.5 -86t-67 -64t-69 -29z" />
    <glyph glyph-name="x" unicode="x" horiz-adv-x="422" 
d="M261 -7q-30 -1 -48.5 32t-18.5 62q-24 9 -29 31q-29 -62 -50 -93.5t-41 -31.5q-46 0 -68 93q41 0 72 25.5t69 80.5l-61 248q11 6 28.5 9t36.5 3t34.5 -10t20.5 -29q18 -59 32 -136q30 44 99 173q31 0 53.5 -19t22.5 -42q0 -28 -57 -95t-107 -102q6 -44 9 -88q42 18 86 54
t88 88.5t65.5 80.5l56.5 76q36 -18 22 -42q-30 -55 -63.5 -108.5t-79.5 -117t-91.5 -103t-80.5 -39.5z" />
    <glyph glyph-name="y" unicode="y" horiz-adv-x="435" 
d="M145 -237q-46 0 -72 18.5t-26 51.5t26 62.5t78 71.5q29 69 101 208q-101 -167 -162 -168q-38 -1 -52 24.5t-15 61.5q-16 16 -16 44q0 47 37.5 122.5t108.5 191.5q27 1 54 -12.5t28 -27.5q0 -8 -26.5 -57.5l-66 -124t-61.5 -125.5q27 10 58 34.5t54.5 49.5t54 66.5
t46.5 65l44 67.5l34 53q10 0 26.5 -3t35.5 -17t15 -37q-93 -151 -171 -309q154 138 287 307q8 0 17.5 -9t9.5 -22q0 -47 -123.5 -176.5t-251.5 -229.5q-47 -109 -72 -181z" />
    <glyph glyph-name="z" unicode="z" horiz-adv-x="365" 
d="M37 -269q-20 0 -35.5 19.5t-21.5 45.5q-29 11 -29 49q0 78 101 139q37 21 79 48q-36 5 -83 5h-10q-11 1 -17 11.5t-2.5 25.5t18.5 26q60 47 132.5 130.5t88.5 140.5q-115 -40 -158 -162q-28 0 -48 16t-20 42q0 57 63 120.5t127 63.5q44 0 64 -34q30 -5 52 -21t22 -45
q0 -38 -63 -126t-137 -142q7 -1 34 -8q140 102 304 306q9 0 18.5 -12.5t2.5 -29.5q-17 -42 -98 -131.5t-168 -159.5q28 -20 28 -43q0 -45 -41 -110.5t-99.5 -114.5t-103.5 -49zM216 10q-6 4 -10 6q-143 -82 -192 -193q58 17 115.5 71.5t86.5 115.5z" />
    <glyph glyph-name="braceleft" unicode="{" horiz-adv-x="420" 
d="M237 -166q-9 -13 -35.5 -9t-48.5 27q-48 49 -48.5 103t55.5 181q46 104 57 181.5t-20 114.5q-9 9 -9 24q47 0 97 55.5t93 155.5q52 124 97.5 168t114.5 44q28 0 48.5 -17.5t19.5 -33.5q-49 0 -88 -40.5t-80 -137.5q-48 -112 -97.5 -168t-117.5 -65q33 -38 40 -88.5
t-8 -110t-52 -141.5q-44 -94 -47.5 -152.5t29.5 -90.5z" />
    <glyph glyph-name="braceright" unicode="}" horiz-adv-x="420" 
d="M-31 -196q-28 0 -48.5 17.5t-19.5 33.5q49 0 88 40.5t80 137.5q48 112 97.5 168t117.5 65q-33 38 -40 88.5t8 110t52 141.5q44 94 47.5 152.5t-29.5 90.5q9 13 35.5 9t48.5 -27q48 -49 48.5 -103t-55.5 -181q-46 -104 -57 -181.5t20 -114.5q9 -9 9 -24q-47 0 -97 -55.5
t-93 -155.5q-52 -124 -97.5 -168t-114.5 -44z" />
    <glyph glyph-name="asciitilde" unicode="~" horiz-adv-x="408" 
d="M434 555q-39 0 -111.5 13t-96.5 13q-53 0 -79 -26l-7 4q17 132 135 132q38 0 109 -14.5t89 -14.5q31 0 43 2.5t24 12.5q6 0 8 -4q-9 -58 -36 -88t-78 -30z" />
    <glyph glyph-name="exclamdown" unicode="&#xa1;" horiz-adv-x="529" 
d="M407 570q-14 -12 -40.5 -8t-36.5 19q-27 12 -27 31q0 24 13 50t32 42q15 14 44 10.5t36 -21.5q26 -13 26 -31q0 -23 -14 -49t-33 -43zM77 77q55 153 199 436q9 19 51 5t34 -40q-91 -227 -178 -477q-32 -1 -73 28t-33 48z" />
    <glyph glyph-name="cent" unicode="&#xa2;" horiz-adv-x="479" 
d="M241 -24q-7 -12 -44.5 2.5t-34.5 29.5q7 28 33 79q-31 18 -43 54q-50 37 -50 108q0 90 72.5 210t160.5 169q26 87 53 120q8 5 26.5 2t36.5 -14.5t16 -21.5q-3 -21 -27 -66q60 -14 75 -54q18 -18 20 -48q3 -40 -33 -97t-61 -75q-12 -6 -31 -1.5t-33 18t-6 23.5
q49 71 89 159q-62 -17 -122.5 -87.5t-98 -152.5t-49.5 -151q134 7 254 123l5 6q29 -27 28 -60q-2 -32 -60 -92.5t-126 -78.5q-26 -79 -50 -104z" />
    <glyph glyph-name="sterling" unicode="&#xa3;" horiz-adv-x="540" 
d="M459 26q-73 12 -171 8t-174 -22q-13 6 -13.5 42.5t17.5 49.5q30 12 66 21q-17 24 -16 68q1 28 8 66q-42 -5 -71 -9q-9 17 -14 35.5t0 35.5t22 21q37 8 88 14q46 141 127.5 249.5t158.5 108.5q25 0 42 -11.5t20 -31.5q31 -1 49.5 -16t18.5 -29q0 -10 -14 -41t-37.5 -78.5
t-36.5 -76.5q-35 0 -56 16t-21 47q0 29 23.5 74.5t50.5 80.5q-54 -37 -108 -112.5t-95 -169.5q101 3 146 -9q21 -5 30 -30.5t8 -49.5q-88 3 -219 -8q-22 -74 -30 -130q81 13 139 13q93 0 90 -57q-1 -16 -9.5 -37.5t-18.5 -31.5z" />
    <glyph glyph-name="yen" unicode="&#xa5;" horiz-adv-x="539" 
d="M647 396q-29 1 -111 -1q-97 -161 -199 -187q-9 -29 -97 -214q-33 0 -61.5 20t-28.5 51q0 7 1 14.5t4 18l5.5 19t8 22.5l9.5 23.5l12 27.5l12.5 28.5t15 33t15.5 34.5q-2 12 -2 16q-35 19 -35 70q-19 -2 -63 -7q-30 52 19 63q8 2 51 8q9 42 14 60q-50 -5 -74 -9
q-32 56 19 67q20 5 75 10q18 56 43 123q97 0 104 -70q1 -21 -3 -42q33 2 110 4q18 40 38 99q6 0 24.5 -3.5t42 -17t23.5 -33.5t-6 -48q7 0 17 -2q15 -3 21.5 -12t6 -20t-0.5 -24h-62q-10 -28 -26 -62q29 0 51 -4q15 -3 21.5 -12t6 -20t-0.5 -24zM332 448l94 6q22 34 34 59
l-101 -6q-18 -38 -27 -59zM272 320q52 14 102 67q-50 -4 -74 -5q-2 -5 -28 -62z" />
    <glyph glyph-name="section" unicode="&#xa7;" horiz-adv-x="443" 
d="M74 -247q-78 0 -132.5 37.5t-50.5 116.5q20 -18 62 -29t88 -11q68 0 98.5 20t30.5 51q0 17 -11.5 34.5t-29 32.5l-38 34t-38 37t-29 43.5t-11.5 52.5q0 59 29 103.5t91 60.5q-25 37 -25 76q0 100 92.5 194.5t174.5 94.5q47 0 64 -30q33 -6 58.5 -30t25.5 -65
q0 -78 -50.5 -144.5t-122.5 -66.5q-48 0 -56 37q49 39 88 99.5t46 138.5q-81 -43 -146.5 -122t-65.5 -130q0 -27 26 -56.5t57.5 -52t57.5 -54.5t26 -64q0 -58 -38.5 -97t-108.5 -52q52 -48 52 -91q0 -73 -57.5 -120.5t-156.5 -47.5zM121 148q0 -25 21 -51q62 4 92.5 30
t30.5 51q0 15 -10.5 31.5t-21 27t-33.5 30.5q-36 -16 -57.5 -53t-21.5 -66z" />
    <glyph glyph-name="dieresis" unicode="&#xa8;" horiz-adv-x="290" 
d="M86 550q-13 -12 -38 -9t-27 18q-21 10 -21 26q0 37 38 75q14 12 35.5 8t28.5 -18q21 -10 21 -25q0 -19 -10.5 -40.5t-26.5 -34.5zM254 541q-13 -13 -38 -8.5t-29 21.5q-22 11 -22 26q0 40 38 76q17 14 41.5 7t24.5 -21q21 -11 21 -26q0 -20 -10 -41t-26 -34z" />
    <glyph glyph-name="copyright" unicode="&#xa9;" horiz-adv-x="696" 
d="M458 30q-17 0 -30 5q-47 -49 -110 -49q-93 0 -171.5 85t-78.5 188q0 109 50 208.5t128 158t160 58.5q54 0 99.5 -30t68.5 -76q51 -25 78 -83.5t27 -120.5q0 -139 -70.5 -241.5t-150.5 -102.5zM379 90q37 0 69 6q67 61 102 162.5t33 185.5q-2 50 -31 98q-49 31 -128 31
q-116 0 -199.5 -92t-104.5 -243q17 -46 46 -77t66 -45.5t71 -20t76 -5.5zM416 247q0 -24 -26 -53t-49 -29q-50 0 -63 43q-36 10 -36 57q0 77 59.5 163.5t128.5 86.5q10 0 21.5 -10.5t12.5 -17.5q21 -7 21 -21q0 -5 -7 -19.5l-19.5 -39t-18.5 -37.5q-37 0 -37 30q0 31 36 77
q-58 -23 -101.5 -103t-42.5 -154q22 -7 45 5.5t56 38.5q5 5 8 7q12 -12 12 -24z" />
    <glyph glyph-name="ordfeminine" unicode="&#xaa;" horiz-adv-x="277" 
d="M242 402q-14 0 -24.5 15t-13.5 32q-1 1 -2.5 2t-2.5 2q-39 -53 -61 -53q-20 0 -30.5 19t-10.5 38q-15 11 -15 38q0 57 46 111t85 54q43 0 49 -33q2 5 6.5 11.5t5.5 7.5q11 14 34 4.5t22 -23.5q-16 -23 -42.5 -71.5t-42.5 -87.5q25 10 49 29.5t35 37.5q19 -14 19 -30
q-1 -18 -43.5 -60t-62.5 -43zM119 465q43 16 78.5 67t47.5 88q-46 -9 -82 -60t-44 -95z" />
    <glyph glyph-name="guillemotleft" unicode="&#xab;" horiz-adv-x="312" 
d="M233 214q-57 33 -124.5 81.5t-67.5 67.5q0 31 68.5 96.5t104.5 65.5q20 0 51 -28l-115 -115q49 -30 84 -64t35 -53q0 -11 -13.5 -28t-22.5 -23z" />
    <glyph glyph-name="registered" unicode="&#xae;" horiz-adv-x="696" 
d="M458 30q-17 0 -30 5q-47 -49 -110 -49q-93 0 -171.5 85t-78.5 188q0 109 50 208.5t128 158t160 58.5q54 0 99.5 -30t68.5 -76q51 -25 78 -83.5t27 -120.5q0 -139 -70.5 -241.5t-150.5 -102.5zM379 90q37 0 69 6q67 61 102 162.5t33 185.5q-2 50 -31 98q-49 31 -128 31
q-116 0 -199.5 -92t-104.5 -243q17 -46 46 -77t66 -45.5t71 -20t76 -5.5zM390 170q-28 0 -50 31.5t-29 90.5q-28 -58 -50 -122q-14 0 -29 9.5t-15 28.5q0 22 37 97.5t82 149.5q-5 -1 -15 -2.5t-15 -1.5q-13 29 1 49q18 15 67.5 17.5t80.5 -6.5q15 -4 24 -26q23 -12 25 -31
q3 -34 -40 -88t-101 -71q30 -77 74 -67q0 -29 -14 -43.5t-33 -14.5zM389 450q0 -6 -6.5 -20t-24 -46.5l-28.5 -53.5q86 39 126 129q-31 2 -70 0q3 -5 3 -9z" />
    <glyph glyph-name="macron" unicode="&#xaf;" horiz-adv-x="289" 
d="M75 548q-44 0 -59.5 11.5t-15.5 43.5q0 14 4.5 19.5t16.5 6.5l191 9q44 2 60.5 -12.5t16.5 -51.5q0 -16 -4 -21t-16 -5h-194z" />
    <glyph glyph-name="degree" unicode="&#xb0;" horiz-adv-x="401" 
d="M487 586q0 -56 -34.5 -88.5t-90.5 -32.5q-50 0 -86.5 33t-36.5 88t36.5 89t86.5 34q56 0 90.5 -33t34.5 -90zM303 586q0 -28 15.5 -46.5t43.5 -18.5t44.5 19t16.5 46q0 30 -16 49t-44 19t-44 -19t-16 -49z" />
    <glyph glyph-name="plusminus" unicode="&#xb1;" horiz-adv-x="561" 
d="M143 73q-7 12 -11 26.5t-5 29t5.5 25.5t19.5 14q50 10 113 13l21 126q-73 -5 -120 -12q-7 12 -11 26.5t-5 29t5.5 25.5t19.5 14q51 11 126 14q15 94 19 141q25 11 59 3.5t39 -34.5q2 -19 -12 -107q67 0 104 -8q19 -4 28 -20t8 -32.5t-1 -30.5q-47 0 -157 -4
q-5 -27 -14.5 -71t-12.5 -56q91 0 126 -8q19 -4 28 -20t8 -32.5t-1 -30.5q-251 -2 -379 -21z" />
    <glyph glyph-name="acute" unicode="&#xb4;" horiz-adv-x="195" 
d="M1 522q-9 23 40 88.5t75 70.5q17 3 44 -17.5t35 -39.5q-33 -15 -165 -113q-22 -6 -29 11z" />
    <glyph glyph-name="paragraph" unicode="&#xb6;" horiz-adv-x="605" 
d="M714 568q-38 3 -82 3q-73 -182 -263 -577q-31 0 -53 19.5t-22 51.5q0 40 215 506h-60q-80 -198 -263 -577q-31 0 -53 19.5t-22 51.5q0 27 106 265q-56 47 -83.5 110.5t-24.5 113.5q1 27 16.5 47.5t42.5 25.5q21 31 46 41q89 31 259 31q148 0 208.5 -10.5t60.5 -52.5
q0 -15 -9 -36t-19 -32z" />
    <glyph glyph-name="periodcentered" unicode="&#xb7;" horiz-adv-x="319" 
d="M205 307q-16 -16 -48.5 -12.5t-41.5 24.5q-29 14 -29 34q0 25 16 54t37 49q20 17 49.5 11.5t38.5 -25.5q27 -13 27 -33q0 -27 -14 -56t-35 -46z" />
    <glyph glyph-name="cedilla" unicode="&#xb8;" horiz-adv-x="195" 
d="M181 -148q-30 -33 -73 -27q-39 -22 -74 4q-27 21 -32.5 55.5t14.5 65.5q18 23 40 10q6 -65 45 -105q23 37 31 81t3 73.5t-15 38.5l2 2t2.5 0.5t2.5 -0.5t2.5 -1.5t3 -2.5t3.5 -3l4 -4l4.5 -4.5l4.5 -4.5q30 -24 42.5 -86.5t-10.5 -91.5z" />
    <glyph glyph-name="ordmasculine" unicode="&#xba;" horiz-adv-x="217" 
d="M152 400q-34 0 -36 31q-34 8 -34 53q0 59 45 117.5t91 58.5q30 0 34 -21q29 -13 29 -51q0 -53 -43.5 -120.5t-85.5 -67.5zM214 575q-1 -15 8 -39q21 53 21 99q-27 -13 -29 -60zM183 564q0 10 3 21q-48 -63 -56 -143q40 9 69 52q-16 37 -16 70z" />
    <glyph glyph-name="guillemotright" unicode="&#xbb;" horiz-adv-x="312" 
d="M127 214q-9 6 -22.5 23t-13.5 28q0 19 35 53t84 64l-115 115q32 28 51 28q36 0 104.5 -65.5t68.5 -96.5q0 -19 -67.5 -67.5t-124.5 -81.5z" />
    <glyph glyph-name="questiondown" unicode="&#xbf;" horiz-adv-x="469" 
d="M463 575q-14 -13 -41.5 -8.5t-35.5 19.5q-27 14 -27 32q0 23 13 49.5t31 41.5q16 14 45 10.5t36 -21.5q25 -13 25 -31q0 -22 -14 -48.5t-32 -43.5zM199 1q-42 0 -76.5 18t-43.5 47q-43 28 -43 81q0 43 47.5 103.5t105 110t105 97.5t47.5 70q28 0 49.5 -17t21.5 -46
q0 -25 -28 -58t-68 -68.5l-81 -74t-71 -86.5t-33 -94q68 9 129 45t94 73q13 -2 30 -28.5t17 -50.5q0 -39 -71 -80.5t-131 -41.5z" />
    <glyph glyph-name="Agrave" unicode="&#xc0;" horiz-adv-x="439" 
d="M469 738q-24 -8 -89.5 40.5t-70.5 75.5q-3 17 17.5 43.5t39.5 34.5q14 -29 112 -164q7 -22 -9 -30zM235 74q0 37 30 135l-113 7q-62 -118 -105 -233q-37 0 -59.5 20t-22.5 60q0 45 62 162h-4q-23 34 -23 62q0 16 12 22.5t53 6.5h14q83 136 177.5 259t116.5 123
q53 0 72 -43q27 -4 51.5 -19t24.5 -29q0 -12 -35.5 -115.5l-85 -252t-74.5 -242.5q-33 -1 -62 21t-29 56zM292 292q52 153 123 326q-101 -112 -213 -310q63 -7 90 -16z" />
    <glyph glyph-name="Aacute" unicode="&#xc1;" horiz-adv-x="439" 
d="M445 752q-9 23 40 88.5t75 70.5q17 3 44 -17.5t35 -39.5q-33 -15 -165 -113q-22 -6 -29 11zM235 74q0 37 30 135l-113 7q-62 -118 -105 -233q-37 0 -59.5 20t-22.5 60q0 45 62 162h-4q-23 34 -23 62q0 16 12 22.5t53 6.5h14q83 136 177.5 259t116.5 123q53 0 72 -43
q27 -4 51.5 -19t24.5 -29q0 -12 -35.5 -115.5l-85 -252t-74.5 -242.5q-33 -1 -62 21t-29 56zM292 292q52 153 123 326q-101 -112 -213 -310q63 -7 90 -16z" />
    <glyph glyph-name="Acircumflex" unicode="&#xc2;" horiz-adv-x="439" 
d="M560 747q-16 0 -44.5 24.5t-53.5 59.5l-108 -82q-13 11 -13 29q0 24 56 74.5t82 50.5q7 0 17.5 -10t23.5 -28l24.5 -34.5l25 -36.5t18.5 -28q-14 -19 -28 -19zM235 74q0 37 30 135l-113 7q-62 -118 -105 -233q-37 0 -59.5 20t-22.5 60q0 45 62 162h-4q-23 34 -23 62
q0 16 12 22.5t53 6.5h14q83 136 177.5 259t116.5 123q53 0 72 -43q27 -4 51.5 -19t24.5 -29q0 -12 -35.5 -115.5l-85 -252t-74.5 -242.5q-33 -1 -62 21t-29 56zM292 292q52 153 123 326q-101 -112 -213 -310q63 -7 90 -16z" />
    <glyph glyph-name="Atilde" unicode="&#xc3;" horiz-adv-x="439" 
d="M530 785q-30 0 -85.5 10t-73.5 10q-41 0 -61 -20l-5 3q13 101 103 101q30 0 84 -11t68 -11q38 0 51 11q5 0 6 -3q-14 -90 -87 -90zM235 74q0 37 30 135l-113 7q-62 -118 -105 -233q-37 0 -59.5 20t-22.5 60q0 45 62 162h-4q-23 34 -23 62q0 16 12 22.5t53 6.5h14
q83 136 177.5 259t116.5 123q53 0 72 -43q27 -4 51.5 -19t24.5 -29q0 -12 -35.5 -115.5l-85 -252t-74.5 -242.5q-33 -1 -62 21t-29 56zM292 292q52 153 123 326q-101 -112 -213 -310q63 -7 90 -16z" />
    <glyph glyph-name="Adieresis" unicode="&#xc4;" horiz-adv-x="439" 
d="M420 780q-13 -12 -38 -9t-27 18q-21 10 -21 26q0 37 38 75q14 12 35.5 8t28.5 -18q21 -10 21 -25q0 -19 -10.5 -40.5t-26.5 -34.5zM588 771q-13 -13 -38 -8.5t-29 21.5q-22 11 -22 26q0 40 38 76q17 14 41.5 7t24.5 -21q21 -11 21 -26q0 -20 -10 -41t-26 -34zM235 74
q0 37 30 135l-113 7q-62 -118 -105 -233q-37 0 -59.5 20t-22.5 60q0 45 62 162h-4q-23 34 -23 62q0 16 12 22.5t53 6.5h14q83 136 177.5 259t116.5 123q53 0 72 -43q27 -4 51.5 -19t24.5 -29q0 -12 -35.5 -115.5l-85 -252t-74.5 -242.5q-33 -1 -62 21t-29 56zM292 292
q52 153 123 326q-101 -112 -213 -310q63 -7 90 -16z" />
    <glyph glyph-name="Aring" unicode="&#xc5;" horiz-adv-x="439" 
d="M544 843q0 -44 -27 -69.5t-71 -25.5q-39 0 -67.5 26t-28.5 69t28.5 69.5t67.5 26.5q44 0 71 -26t27 -70zM389 843q0 -28 15 -46t42 -18q28 0 43.5 18.5t15.5 45.5q0 29 -15.5 47t-42.5 18t-42.5 -18t-15.5 -47zM235 74q0 37 30 135l-113 7q-62 -118 -105 -233
q-37 0 -59.5 20t-22.5 60q0 45 62 162h-4q-23 34 -23 62q0 16 12 22.5t53 6.5h14q83 136 177.5 259t116.5 123q53 0 72 -43q27 -4 51.5 -19t24.5 -29q0 -12 -35.5 -115.5l-85 -252t-74.5 -242.5q-33 -1 -62 21t-29 56zM292 292q52 153 123 326q-101 -112 -213 -310
q63 -7 90 -16z" />
    <glyph glyph-name="AE" unicode="&#xc6;" horiz-adv-x="694" 
d="M238 69q0 44 60 204l-105 -6q-99 -157 -146 -284q-37 0 -59.5 20t-22.5 60q0 52 83 193q-86 -8 -110 -15q-12 5 -8.5 52.5t21.5 58.5q24 3 167 14q87 129 174 230.5t113 101.5q46 0 76 -25q110 23 198 23q93 0 90 -57q-1 -15 -9.5 -36.5t-18.5 -31.5q-74 4 -180 -8
q-38 -69 -85 -176q88 5 100 5q52 0 71.5 -7t18.5 -34q-1 -15 -9.5 -36.5t-18.5 -31.5q-42 1 -208 -4l-64 -163q68 11 140 11q30 0 48 -14t17 -42q-1 -15 -9.5 -36.5t-18.5 -31.5q-35 0 -233 -13l-3 3q-26 4 -47.5 23t-21.5 53zM266 375q12 1 37 2.5t38 2.5q52 122 103 218
q-90 -99 -178 -223z" />
    <glyph glyph-name="Ccedilla" unicode="&#xc7;" horiz-adv-x="391" 
d="M169 -168q-30 -33 -73 -27q-39 -22 -74 4q-27 21 -32.5 55.5t14.5 65.5q18 23 40 10q6 -65 45 -105q23 37 31 81t3 73.5t-15 38.5q-23 26 -35 59q-52 26 -52 107q0 71 32 159t83 164.5t122.5 128.5t142.5 52q21 0 42 -18.5t28 -37.5q19 -6 30 -18.5t11 -22.5t-14 -41
t-37.5 -78.5t-36.5 -76.5q-35 0 -56 16t-21 47q0 29 24 75t50 81q-75 -30 -142 -115t-107 -191t-43 -203q157 -32 393 278q7 0 15 -14t3 -23l-57.5 -93t-63.5 -92.5t-74.5 -93t-72.5 -59.5t-76 -27q-27 0 -51 11q26 -30 35.5 -86t-11.5 -84z" />
    <glyph glyph-name="Egrave" unicode="&#xc8;" horiz-adv-x="379" 
d="M393 738q-24 -8 -89.5 40.5t-70.5 75.5q-3 17 17.5 43.5t39.5 34.5q14 -29 112 -164q7 -22 -9 -30zM534 354q-15 -32 -60.5 -91t-102.5 -120.5t-120 -106.5t-105 -45q-44 0 -75 26t-33 60q-61 28 -51 108q7 74 68 124.5t154 72.5q-52 22 -84 53.5t-28 69.5q3 24 11 37
q-4 11 -4 24q0 57 68 94.5t156 37.5q44 0 83 -9t55 -22q26 -19 26 -50q17 -13 14 -35q-7 -45 -62 -79.5t-93 -34.5q-20 0 -31 8.5t-9 23.5q86 55 119 104q-118 3 -231 -48q-5 -26 7.5 -50.5t39.5 -46t48 -34.5t50 -28q15 -7 10 -24.5t-21 -22.5q-104 -39 -175 -108t-62 -141
q80 8 191 84t221 203q14 0 23 -11t3 -23z" />
    <glyph glyph-name="Eacute" unicode="&#xc9;" horiz-adv-x="379" 
d="M369 752q-9 23 40 88.5t75 70.5q17 3 44 -17.5t35 -39.5q-33 -15 -165 -113q-22 -6 -29 11zM534 354q-15 -32 -60.5 -91t-102.5 -120.5t-120 -106.5t-105 -45q-44 0 -75 26t-33 60q-61 28 -51 108q7 74 68 124.5t154 72.5q-52 22 -84 53.5t-28 69.5q3 24 11 37
q-4 11 -4 24q0 57 68 94.5t156 37.5q44 0 83 -9t55 -22q26 -19 26 -50q17 -13 14 -35q-7 -45 -62 -79.5t-93 -34.5q-20 0 -31 8.5t-9 23.5q86 55 119 104q-118 3 -231 -48q-5 -26 7.5 -50.5t39.5 -46t48 -34.5t50 -28q15 -7 10 -24.5t-21 -22.5q-104 -39 -175 -108t-62 -141
q80 8 191 84t221 203q14 0 23 -11t3 -23z" />
    <glyph glyph-name="Ecircumflex" unicode="&#xca;" horiz-adv-x="379" 
d="M484 747q-16 0 -44.5 24.5t-53.5 59.5l-108 -82q-13 11 -13 29q0 24 56 74.5t82 50.5q7 0 17.5 -10t23.5 -28l24.5 -34.5l25 -36.5t18.5 -28q-14 -19 -28 -19zM534 354q-15 -32 -60.5 -91t-102.5 -120.5t-120 -106.5t-105 -45q-44 0 -75 26t-33 60q-61 28 -51 108
q7 74 68 124.5t154 72.5q-52 22 -84 53.5t-28 69.5q3 24 11 37q-4 11 -4 24q0 57 68 94.5t156 37.5q44 0 83 -9t55 -22q26 -19 26 -50q17 -13 14 -35q-7 -45 -62 -79.5t-93 -34.5q-20 0 -31 8.5t-9 23.5q86 55 119 104q-118 3 -231 -48q-5 -26 7.5 -50.5t39.5 -46t48 -34.5
t50 -28q15 -7 10 -24.5t-21 -22.5q-104 -39 -175 -108t-62 -141q80 8 191 84t221 203q14 0 23 -11t3 -23z" />
    <glyph glyph-name="Edieresis" unicode="&#xcb;" horiz-adv-x="379" 
d="M344 780q-13 -12 -38 -9t-27 18q-21 10 -21 26q0 37 38 75q14 12 35.5 8t28.5 -18q21 -10 21 -25q0 -19 -10.5 -40.5t-26.5 -34.5zM512 771q-13 -13 -38 -8.5t-29 21.5q-22 11 -22 26q0 40 38 76q17 14 41.5 7t24.5 -21q21 -11 21 -26q0 -20 -10 -41t-26 -34zM534 354
q-15 -32 -60.5 -91t-102.5 -120.5t-120 -106.5t-105 -45q-44 0 -75 26t-33 60q-61 28 -51 108q7 74 68 124.5t154 72.5q-52 22 -84 53.5t-28 69.5q3 24 11 37q-4 11 -4 24q0 57 68 94.5t156 37.5q44 0 83 -9t55 -22q26 -19 26 -50q17 -13 14 -35q-7 -45 -62 -79.5t-93 -34.5
q-20 0 -31 8.5t-9 23.5q86 55 119 104q-118 3 -231 -48q-5 -26 7.5 -50.5t39.5 -46t48 -34.5t50 -28q15 -7 10 -24.5t-21 -22.5q-104 -39 -175 -108t-62 -141q80 8 191 84t221 203q14 0 23 -11t3 -23z" />
    <glyph glyph-name="Igrave" unicode="&#xcc;" horiz-adv-x="388" 
d="M377 738q-24 -8 -89.5 40.5t-70.5 75.5q-3 17 17.5 43.5t39.5 34.5q14 -29 112 -164q7 -22 -9 -30zM97 -9q-31 0 -60.5 28.5t-31.5 65.5q104 -7 195 106q-109 36 -109 156q0 72 31 152.5t89 139.5t125 59q38 0 62 -19.5t23 -47.5q38 -22 38 -68q0 -103 -54 -237.5
t-140.5 -234.5t-167.5 -100zM196 288q0 -54 18 -79q61 82 99 195t43 216q-65 -28 -112.5 -126.5t-47.5 -205.5z" />
    <glyph glyph-name="Iacute" unicode="&#xcd;" horiz-adv-x="388" 
d="M353 752q-9 23 40 88.5t75 70.5q17 3 44 -17.5t35 -39.5q-33 -15 -165 -113q-22 -6 -29 11zM97 -9q-31 0 -60.5 28.5t-31.5 65.5q104 -7 195 106q-109 36 -109 156q0 72 31 152.5t89 139.5t125 59q38 0 62 -19.5t23 -47.5q38 -22 38 -68q0 -103 -54 -237.5t-140.5 -234.5
t-167.5 -100zM196 288q0 -54 18 -79q61 82 99 195t43 216q-65 -28 -112.5 -126.5t-47.5 -205.5z" />
    <glyph glyph-name="Icircumflex" unicode="&#xce;" horiz-adv-x="388" 
d="M468 747q-16 0 -44.5 24.5t-53.5 59.5l-108 -82q-13 11 -13 29q0 24 56 74.5t82 50.5q7 0 17.5 -10t23.5 -28l24.5 -34.5l25 -36.5t18.5 -28q-14 -19 -28 -19zM97 -9q-31 0 -60.5 28.5t-31.5 65.5q104 -7 195 106q-109 36 -109 156q0 72 31 152.5t89 139.5t125 59
q38 0 62 -19.5t23 -47.5q38 -22 38 -68q0 -103 -54 -237.5t-140.5 -234.5t-167.5 -100zM196 288q0 -54 18 -79q61 82 99 195t43 216q-65 -28 -112.5 -126.5t-47.5 -205.5z" />
    <glyph glyph-name="Idieresis" unicode="&#xcf;" horiz-adv-x="388" 
d="M328 780q-13 -12 -38 -9t-27 18q-21 10 -21 26q0 37 38 75q14 12 35.5 8t28.5 -18q21 -10 21 -25q0 -19 -10.5 -40.5t-26.5 -34.5zM496 771q-13 -13 -38 -8.5t-29 21.5q-22 11 -22 26q0 40 38 76q17 14 41.5 7t24.5 -21q21 -11 21 -26q0 -20 -10 -41t-26 -34zM97 -9
q-31 0 -60.5 28.5t-31.5 65.5q104 -7 195 106q-109 36 -109 156q0 72 31 152.5t89 139.5t125 59q38 0 62 -19.5t23 -47.5q38 -22 38 -68q0 -103 -54 -237.5t-140.5 -234.5t-167.5 -100zM196 288q0 -54 18 -79q61 82 99 195t43 216q-65 -28 -112.5 -126.5t-47.5 -205.5z" />
    <glyph glyph-name="Eth" unicode="&#xd0;" horiz-adv-x="510" 
d="M140 -24q-33 0 -55 30.5t-30 84.5q-45 19 -46 51q0 51 55 173l-68 -9q-9 17 -14 35.5t0 35.5t22 21q55 11 110 17l83 156q-53 -11 -97 -30q-18 16 -24.5 43t11.5 55q88 58 245 58q100 0 141 -28t47 -76q39 -24 40 -59q0 -98 -61.5 -228.5t-162 -230t-196.5 -99.5zM117 91
q54 0 136 83.5t146 200.5t71 204q-68 14 -155 9q12 -15 12 -27q0 -11 -64 -143q22 -2 33 -4q36 -7 33 -87q-64 2 -112 -1q-85 -171 -108 -235h8z" />
    <glyph glyph-name="Ntilde" unicode="&#xd1;" horiz-adv-x="547" 
d="M520 785q-30 0 -85.5 10t-73.5 10q-41 0 -61 -20l-5 3q13 101 103 101q30 0 84 -11t68 -11q38 0 51 11q5 0 6 -3q-14 -90 -87 -90zM385 -7q-24 -1 -42.5 27.5t-24.5 61.5q-33 16 -37 60q-3 31 18.5 91t48.5 115l64 126q10 17 14 26q-80 -88 -171.5 -223t-152.5 -277
q-29 0 -57.5 24t-28.5 69q0 39 82.5 243.5t147.5 343.5q34 0 62 -19t28 -47q0 -17 -19 -62.5t-59.5 -131.5l-52.5 -112q88 126 191 247t131 121q29 0 55.5 -22t28.5 -41l-53 -100l-59.5 -112.5l-47 -94.5t-47 -107t-28.5 -88q40 11 81.5 38t70 53t64 69t49.5 62.5l41 57.5
q34 -17 22 -41q-32 -61 -90 -141.5t-124.5 -147.5t-104.5 -68z" />
    <glyph glyph-name="Ograve" unicode="&#xd2;" horiz-adv-x="488" 
d="M412 738q-24 -8 -89.5 40.5t-70.5 75.5q-3 17 17.5 43.5t39.5 34.5q14 -29 112 -164q7 -22 -9 -30zM185 -25q-84 0 -88 73q-39 15 -61.5 48.5t-22.5 80.5q0 72 32.5 164.5t94.5 175t134 106.5q61 75 115 75q67 0 81 -59q32 -9 46.5 -45t14.5 -81q0 -97 -51.5 -223.5
t-134.5 -220.5t-160 -94zM119 130q0 -39 12 -65q79 19 152 113t115 206.5t52 210.5q-49 -16 -105.5 -86t-107.5 -169q-35 0 -48 20q-70 -125 -70 -230z" />
    <glyph glyph-name="Oacute" unicode="&#xd3;" horiz-adv-x="488" 
d="M388 752q-9 23 40 88.5t75 70.5q17 3 44 -17.5t35 -39.5q-33 -15 -165 -113q-22 -6 -29 11zM185 -25q-84 0 -88 73q-39 15 -61.5 48.5t-22.5 80.5q0 72 32.5 164.5t94.5 175t134 106.5q61 75 115 75q67 0 81 -59q32 -9 46.5 -45t14.5 -81q0 -97 -51.5 -223.5
t-134.5 -220.5t-160 -94zM119 130q0 -39 12 -65q79 19 152 113t115 206.5t52 210.5q-49 -16 -105.5 -86t-107.5 -169q-35 0 -48 20q-70 -125 -70 -230z" />
    <glyph glyph-name="Ocircumflex" unicode="&#xd4;" horiz-adv-x="488" 
d="M503 747q-16 0 -44.5 24.5t-53.5 59.5l-108 -82q-13 11 -13 29q0 24 56 74.5t82 50.5q7 0 17.5 -10t23.5 -28l24.5 -34.5l25 -36.5t18.5 -28q-14 -19 -28 -19zM185 -25q-84 0 -88 73q-39 15 -61.5 48.5t-22.5 80.5q0 72 32.5 164.5t94.5 175t134 106.5q61 75 115 75
q67 0 81 -59q32 -9 46.5 -45t14.5 -81q0 -97 -51.5 -223.5t-134.5 -220.5t-160 -94zM119 130q0 -39 12 -65q79 19 152 113t115 206.5t52 210.5q-49 -16 -105.5 -86t-107.5 -169q-35 0 -48 20q-70 -125 -70 -230z" />
    <glyph glyph-name="Otilde" unicode="&#xd5;" horiz-adv-x="488" 
d="M473 785q-30 0 -85.5 10t-73.5 10q-41 0 -61 -20l-5 3q13 101 103 101q30 0 84 -11t68 -11q38 0 51 11q4 0 6 -3q-14 -90 -87 -90zM185 -25q-84 0 -88 73q-39 15 -61.5 48.5t-22.5 80.5q0 72 32.5 164.5t94.5 175t134 106.5q61 75 115 75q67 0 81 -59q32 -9 46.5 -45
t14.5 -81q0 -97 -51.5 -223.5t-134.5 -220.5t-160 -94zM119 130q0 -39 12 -65q79 19 152 113t115 206.5t52 210.5q-49 -16 -105.5 -86t-107.5 -169q-35 0 -48 20q-70 -125 -70 -230z" />
    <glyph glyph-name="Odieresis" unicode="&#xd6;" horiz-adv-x="488" 
d="M363 780q-13 -12 -38 -9t-27 18q-21 10 -21 26q0 37 38 75q14 12 35.5 8t28.5 -18q21 -10 21 -25q0 -19 -10.5 -40.5t-26.5 -34.5zM531 771q-13 -13 -38 -8.5t-29 21.5q-22 11 -22 26q0 40 38 76q16 14 41 7t25 -21q21 -11 21 -26q0 -20 -10 -41t-26 -34zM185 -25
q-84 0 -88 73q-39 15 -61.5 48.5t-22.5 80.5q0 72 32.5 164.5t94.5 175t134 106.5q61 75 115 75q67 0 81 -59q32 -9 46.5 -45t14.5 -81q0 -97 -51.5 -223.5t-134.5 -220.5t-160 -94zM119 130q0 -39 12 -65q79 19 152 113t115 206.5t52 210.5q-49 -16 -105.5 -86t-107.5 -169
q-35 0 -48 20q-70 -125 -70 -230z" />
    <glyph glyph-name="multiply" unicode="&#xd7;" horiz-adv-x="571" 
d="M449 127q-6 8 -115 143q-95 -96 -127 -135q-29 10 -50.5 33t-6.5 43q37 48 124 132q-71 86 -102 120q13 29 39 48t49 5q21 -15 89 -101q80 72 110 88q6 4 12 5.5t11.5 0.5l10.5 -2t10.5 -5l9 -6.5t8.5 -8t7 -8l6.5 -8t5.5 -6.5l-133 -125q67 -88 92 -124q24 -31 -50 -89z
" />
    <glyph glyph-name="Oslash" unicode="&#xd8;" horiz-adv-x="503" 
d="M200 -25q-26 0 -47 7l-48 -106q-26 0 -26 34q0 23 40 131q-106 17 -106 169q0 57 26.5 133.5t72 151.5t118 126.5t153.5 51.5q8 0 12 -1l45 98q13 0 22.5 -9t9.5 -26q0 -13 -27 -81q22 -16 25 -41q33 -10 52 -42.5t19 -83.5q0 -111 -51 -231t-131.5 -200.5t-158.5 -80.5z
M193 69q66 36 124 134.5t89 207t33 193.5q-5 0 -15 -2q-74 -182 -231 -533zM124 130q0 -34 7 -59q57 143 216 496q-95 -64 -159 -198.5t-64 -238.5z" />
    <glyph glyph-name="Ugrave" unicode="&#xd9;" horiz-adv-x="519" 
d="M456 738q-24 -8 -89.5 40.5t-70.5 75.5q-3 17 17.5 43.5t39.5 34.5q14 -29 112 -164q7 -22 -9 -30zM272 132q0 7 1 10q-97 -149 -170 -149q-63 0 -69 109q-24 21 -24 63q0 48 41.5 157t93 226t61.5 149q48 0 78.5 -18t30.5 -57q0 -30 -33 -105t-98.5 -205t-94.5 -193
q25 6 49.5 20.5t49.5 39t46.5 48.5t47.5 64l45 69.5t46.5 80l44.5 82l46.5 88.5l45.5 86q44 0 69 -16t25 -42q0 -20 -35.5 -97l-94.5 -202t-96 -218q26 10 50.5 25t49 37.5l41.5 39t40 46.5l32.5 42t31.5 44l24 35q34 -17 22 -41q-38 -68 -89 -142.5t-114.5 -143
t-100.5 -68.5q-30 0 -47.5 29t-22.5 64q-22 14 -23 43z" />
    <glyph glyph-name="Uacute" unicode="&#xda;" horiz-adv-x="519" 
d="M432 752q-9 23 40 88.5t75 70.5q17 3 44 -17.5t35 -39.5q-33 -15 -165 -113q-22 -6 -29 11zM272 132q0 7 1 10q-97 -149 -170 -149q-63 0 -69 109q-24 21 -24 63q0 48 41.5 157t93 226t61.5 149q48 0 78.5 -18t30.5 -57q0 -30 -33 -105t-98.5 -205t-94.5 -193
q25 6 49.5 20.5t49.5 39t46.5 48.5t47.5 64l45 69.5t46.5 80l44.5 82l46.5 88.5l45.5 86q44 0 69 -16t25 -42q0 -20 -35.5 -97l-94.5 -202t-96 -218q26 10 50.5 25t49 37.5l41.5 39t40 46.5l32.5 42t31.5 44l24 35q34 -17 22 -41q-38 -68 -89 -142.5t-114.5 -143
t-100.5 -68.5q-30 0 -47.5 29t-22.5 64q-22 14 -23 43z" />
    <glyph glyph-name="Ucircumflex" unicode="&#xdb;" horiz-adv-x="519" 
d="M547 747q-16 0 -44.5 24.5t-53.5 59.5l-108 -82q-13 11 -13 29q0 24 56 74.5t82 50.5q7 0 17.5 -10t23.5 -28l24.5 -34.5l25 -36.5t18.5 -28q-14 -19 -28 -19zM272 132q0 7 1 10q-97 -149 -170 -149q-63 0 -69 109q-24 21 -24 63q0 48 41.5 157t93 226t61.5 149
q48 0 78.5 -18t30.5 -57q0 -30 -33 -105t-98.5 -205t-94.5 -193q25 6 49.5 20.5t49.5 39t46.5 48.5t47.5 64l45 69.5t46.5 80l44.5 82l46.5 88.5l45.5 86q44 0 69 -16t25 -42q0 -20 -35.5 -97l-94.5 -202t-96 -218q26 10 50.5 25t49 37.5l41.5 39t40 46.5l32.5 42t31.5 44
l24 35q34 -17 22 -41q-38 -68 -89 -142.5t-114.5 -143t-100.5 -68.5q-30 0 -47.5 29t-22.5 64q-22 14 -23 43z" />
    <glyph glyph-name="Udieresis" unicode="&#xdc;" horiz-adv-x="519" 
d="M407 780q-13 -12 -38 -9t-27 18q-21 10 -21 26q0 37 38 75q14 12 35.5 8t28.5 -18q21 -10 21 -25q0 -19 -10.5 -40.5t-26.5 -34.5zM575 771q-13 -13 -38 -8.5t-29 21.5q-22 11 -22 26q0 40 38 76q16 14 41 7t25 -21q21 -11 21 -26q0 -20 -10 -41t-26 -34zM272 132
q0 7 1 10q-97 -149 -170 -149q-63 0 -69 109q-24 21 -24 63q0 48 41.5 157t93 226t61.5 149q48 0 78.5 -18t30.5 -57q0 -30 -33 -105t-98.5 -205t-94.5 -193q25 6 49.5 20.5t49.5 39t46.5 48.5t47.5 64l45 69.5t46.5 80l44.5 82l46.5 88.5l45.5 86q44 0 69 -16t25 -42
q0 -20 -35.5 -97l-94.5 -202t-96 -218q26 10 50.5 25t49 37.5l41.5 39t40 46.5l32.5 42t31.5 44l24 35q34 -17 22 -41q-38 -68 -89 -142.5t-114.5 -143t-100.5 -68.5q-30 0 -47.5 29t-22.5 64q-22 14 -23 43z" />
    <glyph glyph-name="Yacute" unicode="&#xdd;" horiz-adv-x="476" 
d="M397 752q-9 23 40 88.5t75 70.5q17 3 44 -17.5t35 -39.5q-33 -15 -165 -113q-22 -6 -29 11zM244 -200q-15 0 -31 4.5t-33 21.5t-19 43q0 10 12.5 42t36.5 85.5l44 95.5l51.5 109.5l42.5 90.5q-178 -299 -240 -299q-27 0 -44 18.5t-21.5 38t-7.5 48.5q-25 21 -25 64
q0 46 94.5 276t100.5 259q48 0 78.5 -18t30.5 -57q0 -63 -211 -483q47 20 98 72t101 127.5t84.5 133.5t76 135.5t48.5 88.5q47 0 67.5 -17t20.5 -42q0 -16 -50.5 -129l-142.5 -321.5t-162 -386.5z" />
    <glyph glyph-name="Thorn" unicode="&#xde;" horiz-adv-x="503" 
d="M168 142q-8 0 -16 3q-37 -81 -65 -151q-27 0 -61.5 12.5t-34.5 36.5q0 20 102 263t172 385q46 0 75.5 -19t29.5 -40q0 -9 -40 -99q51 -5 88 -18q25 -10 46 -41q27 -5 42.5 -25.5t16.5 -47.5q2 -37 -21.5 -80.5t-66 -84t-113.5 -67.5t-154 -27zM189 228q99 36 155.5 80.5
t85.5 111.5q-71 13 -148 10z" />
    <glyph glyph-name="germandbls" unicode="&#xdf;" horiz-adv-x="474" 
d="M217 -11q-46 0 -77.5 23.5t-41.5 58.5l-117 -272q-46 1 -64 29.5t-4 61.5l245 577q48 112 96.5 163.5t106.5 49.5q38 -1 55 -28q36 -7 58.5 -38t21.5 -73q0 -133 -210 -200q51 -45 75.5 -87.5t25.5 -104.5q93 63 223 230q10 -3 21 -16.5t1 -28.5q-55 -92 -131.5 -174.5
t-124.5 -109.5q-15 -8 -32 -15q-52 -49 -127 -46zM173 98q48 -2 78.5 31t30.5 91q1 71 -31 108q-9 33 18 46q46 21 84.5 78t39.5 111q2 39 -15 64q-52 -25 -105 -147l-158 -368q20 -12 58 -14z" />
    <glyph glyph-name="agrave" unicode="&#xe0;" horiz-adv-x="463" 
d="M305 508q-24 -8 -89.5 40.5t-70.5 75.5q-3 17 17.5 43.5t39.5 34.5q14 -29 112 -164q7 -22 -9 -30zM301 -7q-29 0 -48 29t-23 61q-6 4 -9 7q-71 -97 -112 -97q-35 0 -54 33t-21 71q-27 21 -27 70q0 52 25 107.5t61 97t78 68.5t75 27q39 0 61.5 -18.5t25.5 -43.5l23 35
q16 17 39 15t43.5 -17.5t20.5 -31.5q-31 -42 -81.5 -136.5t-79.5 -165.5q43 18 87.5 53.5t88.5 88t65 80.5l55 77q4 -2 9.5 -5.5t12.5 -14.5t1 -22q-39 -70 -92 -148t-119 -149t-105 -71zM74 111q42 15 83 52.5t70 82.5t48.5 82.5t29.5 65.5q-58 -11 -110.5 -64.5t-82 -112
t-38.5 -106.5z" />
    <glyph glyph-name="aacute" unicode="&#xe1;" horiz-adv-x="463" 
d="M281 522q-9 23 40 88.5t75 70.5q17 3 44 -17.5t35 -39.5q-33 -15 -165 -113q-22 -6 -29 11zM301 -7q-29 0 -48 29t-23 61q-6 4 -9 7q-71 -97 -112 -97q-35 0 -54 33t-21 71q-27 21 -27 70q0 52 25 107.5t61 97t78 68.5t75 27q39 0 61.5 -18.5t25.5 -43.5l23 35
q16 17 39 15t43.5 -17.5t20.5 -31.5q-31 -42 -81.5 -136.5t-79.5 -165.5q43 18 87.5 53.5t88.5 88t65 80.5l55 77q4 -2 9.5 -5.5t12.5 -14.5t1 -22q-39 -70 -92 -148t-119 -149t-105 -71zM74 111q42 15 83 52.5t70 82.5t48.5 82.5t29.5 65.5q-58 -11 -110.5 -64.5t-82 -112
t-38.5 -106.5z" />
    <glyph glyph-name="acircumflex" unicode="&#xe2;" horiz-adv-x="463" 
d="M396 517q-16 0 -44.5 24.5t-53.5 59.5l-108 -82q-13 11 -13 29q0 24 56 74.5t82 50.5q7 0 17.5 -10t23.5 -28l24.5 -34.5l25 -36.5t18.5 -28q-14 -19 -28 -19zM301 -7q-29 0 -48 29t-23 61q-6 4 -9 7q-71 -97 -112 -97q-35 0 -54 33t-21 71q-27 21 -27 70q0 52 25 107.5
t61 97t78 68.5t75 27q39 0 61.5 -18.5t25.5 -43.5l23 35q16 17 39 15t43.5 -17.5t20.5 -31.5q-31 -42 -81.5 -136.5t-79.5 -165.5q43 18 87.5 53.5t88.5 88t65 80.5l55 77q4 -2 9.5 -5.5t12.5 -14.5t1 -22q-39 -70 -92 -148t-119 -149t-105 -71zM74 111q42 15 83 52.5
t70 82.5t48.5 82.5t29.5 65.5q-58 -11 -110.5 -64.5t-82 -112t-38.5 -106.5z" />
    <glyph glyph-name="atilde" unicode="&#xe3;" horiz-adv-x="463" 
d="M366 555q-30 0 -85.5 10t-73.5 10q-41 0 -61 -20l-5 3q13 101 103 101q30 0 84 -11t68 -11q38 0 51 11q5 0 6 -3q-14 -90 -87 -90zM301 -7q-29 0 -48 29t-23 61q-6 4 -9 7q-71 -97 -112 -97q-35 0 -54 33t-21 71q-27 21 -27 70q0 52 25 107.5t61 97t78 68.5t75 27
q39 0 61.5 -18.5t25.5 -43.5l23 35q16 17 39 15t43.5 -17.5t20.5 -31.5q-31 -42 -81.5 -136.5t-79.5 -165.5q43 18 87.5 53.5t88.5 88t65 80.5l55 77q4 -2 9.5 -5.5t12.5 -14.5t1 -22q-39 -70 -92 -148t-119 -149t-105 -71zM74 111q42 15 83 52.5t70 82.5t48.5 82.5
t29.5 65.5q-58 -11 -110.5 -64.5t-82 -112t-38.5 -106.5z" />
    <glyph glyph-name="adieresis" unicode="&#xe4;" horiz-adv-x="463" 
d="M256 550q-13 -12 -38 -9t-27 18q-21 10 -21 26q0 37 38 75q14 12 35.5 8t28.5 -18q21 -10 21 -25q0 -19 -10.5 -40.5t-26.5 -34.5zM424 541q-13 -13 -38 -8.5t-29 21.5q-22 11 -22 26q0 40 38 76q17 14 41.5 7t24.5 -21q21 -11 21 -26q0 -20 -10 -41t-26 -34zM301 -7
q-29 0 -48 29t-23 61q-6 4 -9 7q-71 -97 -112 -97q-35 0 -54 33t-21 71q-27 21 -27 70q0 52 25 107.5t61 97t78 68.5t75 27q39 0 61.5 -18.5t25.5 -43.5l23 35q16 17 39 15t43.5 -17.5t20.5 -31.5q-31 -42 -81.5 -136.5t-79.5 -165.5q43 18 87.5 53.5t88.5 88t65 80.5l55 77
q4 -2 9.5 -5.5t12.5 -14.5t1 -22q-39 -70 -92 -148t-119 -149t-105 -71zM74 111q42 15 83 52.5t70 82.5t48.5 82.5t29.5 65.5q-58 -11 -110.5 -64.5t-82 -112t-38.5 -106.5z" />
    <glyph glyph-name="aring" unicode="&#xe5;" horiz-adv-x="463" 
d="M380 613q0 -44 -27 -69.5t-71 -25.5q-39 0 -67.5 26t-28.5 69t28.5 69.5t67.5 26.5q44 0 71 -26t27 -70zM236 613q0 -22 12 -36.5t34 -14.5t35 14.5t13 36.5q0 23 -12.5 38t-34.5 15t-34.5 -15t-12.5 -38zM301 -7q-29 0 -48 29t-23 61q-6 4 -9 7q-71 -97 -112 -97
q-35 0 -54 33t-21 71q-27 21 -27 70q0 52 25 107.5t61 97t78 68.5t75 27q39 0 61.5 -18.5t25.5 -43.5l23 35q16 17 39 15t43.5 -17.5t20.5 -31.5q-31 -42 -81.5 -136.5t-79.5 -165.5q43 18 87.5 53.5t88.5 88t65 80.5l55 77q4 -2 9.5 -5.5t12.5 -14.5t1 -22
q-39 -70 -92 -148t-119 -149t-105 -71zM74 111q42 15 83 52.5t70 82.5t48.5 82.5t29.5 65.5q-58 -11 -110.5 -64.5t-82 -112t-38.5 -106.5z" />
    <glyph glyph-name="ae" unicode="&#xe6;" horiz-adv-x="589" 
d="M743 358q-33 -66 -94 -149t-136 -151t-125 -68q-49 0 -83.5 28t-43.5 77q-14 9 -21 21q-86 -123 -131 -123q-35 0 -54 33t-21 71q-27 21 -27 70q0 52 25 107.5t61 97t78 68.5t75 27q42 0 65 -21t23 -45l1 -1h2q70 67 133 67q69 0 80 -51q31 -18 31 -48
q0 -64 -66.5 -133.5t-122.5 -69.5q-18 0 -33.5 12t-22.5 27q-21 -54 -23 -104q17 -5 29 -5q177 -6 378 305q8 0 19.5 -13t3.5 -29zM343 221q44 11 99 69t77 112q-52 -14 -99.5 -64.5t-76.5 -116.5zM74 111q93 33 176 172q7 14 23 40q22 42 32 71q-58 -11 -110.5 -64.5
t-82 -112t-38.5 -106.5z" />
    <glyph glyph-name="ccedilla" unicode="&#xe7;" horiz-adv-x="342" 
d="M181 -148q-30 -33 -73 -27q-39 -22 -74 4q-27 21 -32.5 55.5t14.5 65.5q18 23 40 10q6 -65 45 -105q39 62 35 139q-38 6 -65 34t-35 69q-36 21 -36 70q0 104 83 202.5t163 98.5q64 0 76 -48q16 -7 27.5 -20t11.5 -25q0 -11 -21 -39.5t-52 -65t-35 -42.5q-20 0 -30.5 17
t-8.5 43q2 42 49 97q-49 -23 -91 -74t-65.5 -103t-30.5 -95q44 -10 98 7t103 56q97 77 199 227q9 0 20.5 -13t3.5 -29q-205 -341 -326 -366q18 -36 21 -77.5t-14 -65.5z" />
    <glyph glyph-name="egrave" unicode="&#xe8;" horiz-adv-x="376" 
d="M291 508q-24 -8 -89.5 40.5t-70.5 75.5q-3 17 17.5 43.5t39.5 34.5q14 -29 112 -164q7 -22 -9 -30zM530 361q-33 -66 -94 -149t-136 -151t-125 -68q-49 0 -83.5 28t-43.5 77q-39 25 -39 80q0 60 39.5 129.5t98 116t110.5 46.5q69 0 80 -51q31 -18 31 -48
q0 -64 -66.5 -133.5t-122.5 -69.5q-18 0 -33.5 12t-22.5 27q-21 -54 -23 -104q17 -5 29 -5q177 -6 378 305q8 0 19.5 -13t3.5 -29zM130 224q44 11 99 69t77 112q-52 -14 -99.5 -64.5t-76.5 -116.5z" />
    <glyph glyph-name="eacute" unicode="&#xe9;" horiz-adv-x="376" 
d="M267 522q-9 23 40 88.5t75 70.5q17 3 44 -17.5t35 -39.5q-33 -15 -165 -113q-22 -6 -29 11zM530 361q-33 -66 -94 -149t-136 -151t-125 -68q-49 0 -83.5 28t-43.5 77q-39 25 -39 80q0 60 39.5 129.5t98 116t110.5 46.5q69 0 80 -51q31 -18 31 -48q0 -64 -66.5 -133.5
t-122.5 -69.5q-18 0 -33.5 12t-22.5 27q-21 -54 -23 -104q17 -5 29 -5q177 -6 378 305q8 0 19.5 -13t3.5 -29zM130 224q44 11 99 69t77 112q-52 -14 -99.5 -64.5t-76.5 -116.5z" />
    <glyph glyph-name="ecircumflex" unicode="&#xea;" horiz-adv-x="376" 
d="M382 517q-16 0 -44.5 24.5t-53.5 59.5l-108 -82q-13 11 -13 29q0 24 56 74.5t82 50.5q7 0 17.5 -10t23.5 -28l24.5 -34.5l25 -36.5t18.5 -28q-14 -19 -28 -19zM530 361q-33 -66 -94 -149t-136 -151t-125 -68q-49 0 -83.5 28t-43.5 77q-39 25 -39 80q0 60 39.5 129.5
t98 116t110.5 46.5q69 0 80 -51q31 -18 31 -48q0 -64 -66.5 -133.5t-122.5 -69.5q-18 0 -33.5 12t-22.5 27q-21 -54 -23 -104q17 -5 29 -5q177 -6 378 305q8 0 19.5 -13t3.5 -29zM130 224q44 11 99 69t77 112q-52 -14 -99.5 -64.5t-76.5 -116.5z" />
    <glyph glyph-name="edieresis" unicode="&#xeb;" horiz-adv-x="376" 
d="M242 550q-13 -12 -38 -9t-27 18q-21 10 -21 26q0 37 38 75q14 12 35.5 8t28.5 -18q21 -10 21 -25q0 -19 -10.5 -40.5t-26.5 -34.5zM410 541q-13 -13 -38 -8.5t-29 21.5q-22 11 -22 26q0 40 38 76q17 14 41.5 7t24.5 -21q21 -11 21 -26q0 -20 -10 -41t-26 -34zM530 361
q-33 -66 -94 -149t-136 -151t-125 -68q-49 0 -83.5 28t-43.5 77q-39 25 -39 80q0 60 39.5 129.5t98 116t110.5 46.5q69 0 80 -51q31 -18 31 -48q0 -64 -66.5 -133.5t-122.5 -69.5q-18 0 -33.5 12t-22.5 27q-21 -54 -23 -104q17 -5 29 -5q177 -6 378 305q8 0 19.5 -13
t3.5 -29zM130 224q44 11 99 69t77 112q-52 -14 -99.5 -64.5t-76.5 -116.5z" />
    <glyph glyph-name="igrave" unicode="&#xec;" horiz-adv-x="267" 
d="M253 508q-24 -8 -89.5 40.5t-70.5 75.5q-3 17 17.5 43.5t39.5 34.5q14 -29 112 -164q7 -22 -9 -30zM105 -7q-23 -1 -40.5 21t-25.5 51q-39 14 -43 55q-4 36 55 152t109 179q23 0 51.5 -21t28.5 -35q0 -8 -23 -44.5t-61.5 -105.5t-66.5 -141q37 12 78 42.5t68.5 57
t67.5 76.5t51.5 66.5l43.5 61.5q2 0 9.5 -5.5t13.5 -15t0 -21.5q-39 -70 -92 -149t-119.5 -151t-104.5 -73z" />
    <glyph glyph-name="iacute" unicode="&#xed;" horiz-adv-x="267" 
d="M229 522q-9 23 40 88.5t75 70.5q17 3 44 -17.5t35 -39.5q-33 -15 -165 -113q-22 -6 -29 11zM105 -7q-23 -1 -40.5 21t-25.5 51q-39 14 -43 55q-4 36 55 152t109 179q23 0 51.5 -21t28.5 -35q0 -8 -23 -44.5t-61.5 -105.5t-66.5 -141q37 12 78 42.5t68.5 57t67.5 76.5
t51.5 66.5l43.5 61.5q2 0 9.5 -5.5t13.5 -15t0 -21.5q-39 -70 -92 -149t-119.5 -151t-104.5 -73z" />
    <glyph glyph-name="icircumflex" unicode="&#xee;" horiz-adv-x="267" 
d="M344 517q-16 0 -44.5 24.5t-53.5 59.5l-108 -82q-13 11 -13 29q0 24 56 74.5t82 50.5q7 0 17.5 -10t23.5 -28l24.5 -34.5l25 -36.5t18.5 -28q-14 -19 -28 -19zM105 -7q-23 -1 -40.5 21t-25.5 51q-39 14 -43 55q-4 36 55 152t109 179q23 0 51.5 -21t28.5 -35
q0 -8 -23 -44.5t-61.5 -105.5t-66.5 -141q37 12 78 42.5t68.5 57t67.5 76.5t51.5 66.5l43.5 61.5q2 0 9.5 -5.5t13.5 -15t0 -21.5q-39 -70 -92 -149t-119.5 -151t-104.5 -73z" />
    <glyph glyph-name="idieresis" unicode="&#xef;" horiz-adv-x="267" 
d="M204 550q-13 -12 -38 -9t-27 18q-21 10 -21 26q0 37 38 75q14 12 35.5 8t28.5 -18q21 -10 21 -25q0 -19 -10.5 -40.5t-26.5 -34.5zM372 541q-13 -13 -38 -8.5t-29 21.5q-22 11 -22 26q0 40 38 76q17 14 41.5 7t24.5 -21q21 -11 21 -26q0 -20 -10 -41t-26 -34zM105 -7
q-23 -1 -40.5 21t-25.5 51q-39 14 -43 55q-4 36 55 152t109 179q23 0 51.5 -21t28.5 -35q0 -8 -23 -44.5t-61.5 -105.5t-66.5 -141q37 12 78 42.5t68.5 57t67.5 76.5t51.5 66.5l43.5 61.5q36 -18 23 -42q-39 -70 -92 -149t-119.5 -151t-104.5 -73z" />
    <glyph glyph-name="eth" unicode="&#xf0;" horiz-adv-x="385" 
d="M137 -7q-61 0 -67 59q-61 13 -61 95q0 108 73 208t155 100q21 0 36 -7q-6 39 -20 81l-104 -44q-27 18 3 43q28 17 85 41q-17 42 -41 63q50 0 93 -41l101 44q27 -24 2 -43q-22 -12 -75 -35q28 -41 43.5 -95t15.5 -101q0 -93 -38 -180t-93.5 -137.5t-107.5 -50.5zM277 396
v12q-55 -24 -111.5 -116t-69.5 -220q77 15 129 111t52 213z" />
    <glyph glyph-name="ntilde" unicode="&#xf1;" horiz-adv-x="460" 
d="M388 555q-30 0 -85.5 10t-73.5 10q-41 0 -61 -20l-5 3q13 101 103 101q30 0 84 -11t68 -11q38 0 51 11q5 0 6 -3q-14 -90 -87 -90zM299 -7q-26 0 -44.5 25.5t-24.5 56.5q-18 17 -21 42q-5 55 92 228q-147 -132 -252 -345q-25 0 -42 25t-17 55q0 12 3.5 26.5t11.5 35
l12.5 32t16.5 37t14 30.5q30 68 63 134t37 76q76 0 76 -44q0 -22 -68 -132q70 80 138 133.5t99 53.5q20 0 42.5 -20t23.5 -34q-88 -150 -146 -292q33 16 69.5 45.5t63 56.5t60 69t47.5 61l39 55q13 -5 20.5 -16.5t2.5 -25.5q-16 -43 -74 -129.5t-130 -162.5t-112 -76z" />
    <glyph glyph-name="ograve" unicode="&#xf2;" horiz-adv-x="400" 
d="M279 508q-24 -8 -89.5 40.5t-70.5 75.5q-3 17 17.5 43.5t39.5 34.5q14 -29 112 -164q7 -22 -9 -30zM296 70q-14 0 -31 9q-67 -86 -128 -86t-67 59q-61 13 -61 95q0 69 38.5 144.5t97 125.5t112.5 50t61 -40q53 -25 53 -92q0 -74 -53 -175q53 42 114 109t100 134
q34 -17 22 -46q-24 -57 -65 -120.5t-95.5 -115t-97.5 -51.5zM245 305q-2 -44 7 -89q50 103 50 204q-21 -10 -38.5 -42t-18.5 -73zM180 267q0 24 10 54q-79 -110 -94 -250q60 11 110 73q-26 54 -26 123z" />
    <glyph glyph-name="oacute" unicode="&#xf3;" horiz-adv-x="400" 
d="M255 522q-9 23 40 88.5t75 70.5q17 3 44 -17.5t35 -39.5q-33 -15 -165 -113q-22 -6 -29 11zM296 70q-14 0 -31 9q-67 -86 -128 -86t-67 59q-61 13 -61 95q0 69 38.5 144.5t97 125.5t112.5 50t61 -40q53 -25 53 -92q0 -74 -53 -175q53 42 114 109t100 134q34 -17 22 -46
q-24 -57 -65 -120.5t-95.5 -115t-97.5 -51.5zM245 305q-2 -44 7 -89q50 103 50 204q-21 -10 -38.5 -42t-18.5 -73zM180 267q0 24 10 54q-79 -110 -94 -250q60 11 110 73q-26 54 -26 123z" />
    <glyph glyph-name="ocircumflex" unicode="&#xf4;" horiz-adv-x="400" 
d="M370 517q-16 0 -44.5 24.5t-53.5 59.5l-108 -82q-13 11 -13 29q0 24 56 74.5t82 50.5q7 0 17.5 -10t23.5 -28l24.5 -34.5l25 -36.5t18.5 -28q-14 -19 -28 -19zM296 70q-14 0 -31 9q-67 -86 -128 -86t-67 59q-61 13 -61 95q0 69 38.5 144.5t97 125.5t112.5 50t61 -40
q53 -25 53 -92q0 -74 -53 -175q53 42 114 109t100 134q34 -17 22 -46q-24 -57 -65 -120.5t-95.5 -115t-97.5 -51.5zM245 305q-2 -44 7 -89q50 103 50 204q-21 -10 -38.5 -42t-18.5 -73zM180 267q0 24 10 54q-79 -110 -94 -250q60 11 110 73q-26 54 -26 123z" />
    <glyph glyph-name="otilde" unicode="&#xf5;" horiz-adv-x="400" 
d="M340 555q-30 0 -85.5 10t-73.5 10q-41 0 -61 -20l-5 3q13 101 103 101q30 0 84 -11t68 -11q38 0 51 11q5 0 6 -3q-14 -90 -87 -90zM296 70q-14 0 -31 9q-67 -86 -128 -86t-67 59q-61 13 -61 95q0 69 38.5 144.5t97 125.5t112.5 50t61 -40q53 -25 53 -92q0 -74 -53 -175
q53 42 114 109t100 134q34 -17 22 -46q-24 -57 -65 -120.5t-95.5 -115t-97.5 -51.5zM245 305q-2 -44 7 -89q50 103 50 204q-21 -10 -38.5 -42t-18.5 -73zM180 267q0 24 10 54q-79 -110 -94 -250q60 11 110 73q-26 54 -26 123z" />
    <glyph glyph-name="odieresis" unicode="&#xf6;" horiz-adv-x="400" 
d="M230 550q-13 -12 -38 -9t-27 18q-21 10 -21 26q0 37 38 75q14 12 35.5 8t28.5 -18q21 -10 21 -25q0 -19 -10.5 -40.5t-26.5 -34.5zM398 541q-13 -13 -38 -8.5t-29 21.5q-22 11 -22 26q0 40 38 76q17 14 41.5 7t24.5 -21q21 -11 21 -26q0 -20 -10 -41t-26 -34zM296 70
q-14 0 -31 9q-67 -86 -128 -86t-67 59q-61 13 -61 95q0 69 38.5 144.5t97 125.5t112.5 50t61 -40q53 -25 53 -92q0 -74 -53 -175q53 42 114 109t100 134q34 -17 22 -46q-24 -57 -65 -120.5t-95.5 -115t-97.5 -51.5zM245 305q-2 -44 7 -89q50 103 50 204q-21 -10 -38.5 -42
t-18.5 -73zM180 267q0 24 10 54q-79 -110 -94 -250q60 11 110 73q-26 54 -26 123z" />
    <glyph glyph-name="divide" unicode="&#xf7;" horiz-adv-x="570" 
d="M397 471q-12 -12 -35 -9t-30 18q-21 10 -21 26q0 38 38 76q14 12 35.5 8t28.5 -18q22 -9 22 -25q0 -19 -11 -40.5t-27 -35.5zM510 400q48 -10 45 -86q-262 -2 -389 -21q-9 16 -13.5 37t0.5 40t22 23q65 13 176.5 15.5t158.5 -8.5zM357 121q-12 -12 -35 -9t-30 18
q-21 10 -21 26q0 38 38 76q14 12 35.5 8t28.5 -18q22 -9 22 -25q0 -19 -11 -41t-27 -35z" />
    <glyph glyph-name="oslash" unicode="&#xf8;" horiz-adv-x="409" 
d="M121 4q-14 2 -21 4q-48 -86 -74 -127q-25 1 -23 35q3 31 56 139q-1 3 -1 13q-60 18 -55 99q8 107 97.5 207t172.5 95q5 0 15 -2l75 131q13 -1 21.5 -10.5t7.5 -26.5q-3 -20 -60 -131q0 -1 0.5 -3t0.5 -3q50 -28 45 -95q-6 -77 -66 -171q56 38 122 100.5t109 126.5
q34 -17 19 -47q-46 -91 -130.5 -181.5t-147.5 -86.5q-17 2 -30 11q-73 -81 -133 -77zM250 307q-6 -37 0 -89q59 100 65 200q-22 -8 -41.5 -39t-23.5 -72zM182 275q1 22 13 50q-85 -105 -109 -239q60 7 114 64q-22 56 -18 125z" />
    <glyph glyph-name="ugrave" unicode="&#xf9;" horiz-adv-x="468" 
d="M339 508q-24 -8 -89.5 40.5t-70.5 75.5q-3 17 17.5 43.5t39.5 34.5q14 -29 112 -164q7 -22 -9 -30zM306 -9q-25 0 -43.5 27t-24.5 60q-13 6 -20 15q-61 -100 -107 -100q-37 0 -58 27.5t-25 59.5q-30 18 -30 49q0 54 72 180q83 141 97 141q24 1 48.5 -13t25.5 -28
q-87 -147 -154 -310q38 16 80.5 61t73 91l68.5 104.5t59 84.5q21 3 50 -10t29 -34q-53 -86 -138 -280q43 18 86.5 53.5t86 86t64 78.5t53.5 74q4 -2 9.5 -5.5t12.5 -14.5t1 -22q-27 -50 -65.5 -109t-84.5 -121t-91 -103.5t-75 -41.5z" />
    <glyph glyph-name="uacute" unicode="&#xfa;" horiz-adv-x="468" 
d="M315 522q-9 23 40 88.5t75 70.5q17 3 44 -17.5t35 -39.5q-33 -15 -165 -113q-22 -6 -29 11zM306 -9q-25 0 -43.5 27t-24.5 60q-13 6 -20 15q-61 -100 -107 -100q-37 0 -58 27.5t-25 59.5q-30 18 -30 49q0 54 72 180q83 141 97 141q24 1 48.5 -13t25.5 -28
q-87 -147 -154 -310q38 16 80.5 61t73 91l68.5 104.5t59 84.5q21 3 50 -10t29 -34q-53 -86 -138 -280q43 18 86.5 53.5t86 86t64 78.5t53.5 74q4 -2 9.5 -5.5t12.5 -14.5t1 -22q-27 -50 -65.5 -109t-84.5 -121t-91 -103.5t-75 -41.5z" />
    <glyph glyph-name="ucircumflex" unicode="&#xfb;" horiz-adv-x="468" 
d="M430 517q-16 0 -44.5 24.5t-53.5 59.5l-108 -82q-13 11 -13 29q0 24 56 74.5t82 50.5q7 0 17.5 -10t23.5 -28l24.5 -34.5l25 -36.5t18.5 -28q-14 -19 -28 -19zM306 -9q-25 0 -43.5 27t-24.5 60q-13 6 -20 15q-61 -100 -107 -100q-37 0 -58 27.5t-25 59.5q-30 18 -30 49
q0 54 72 180q83 141 97 141q24 1 48.5 -13t25.5 -28q-87 -147 -154 -310q38 16 80.5 61t73 91l68.5 104.5t59 84.5q21 3 50 -10t29 -34q-53 -86 -138 -280q43 18 86.5 53.5t86 86t64 78.5t53.5 74q4 -2 9.5 -5.5t12.5 -14.5t1 -22q-27 -50 -65.5 -109t-84.5 -121t-91 -103.5
t-75 -41.5z" />
    <glyph glyph-name="udieresis" unicode="&#xfc;" horiz-adv-x="468" 
d="M290 550q-13 -12 -38 -9t-27 18q-21 10 -21 26q0 37 38 75q14 12 35.5 8t28.5 -18q21 -10 21 -25q0 -19 -10.5 -40.5t-26.5 -34.5zM458 541q-13 -13 -38 -8.5t-29 21.5q-22 11 -22 26q0 40 38 76q17 14 41.5 7t24.5 -21q21 -11 21 -26q0 -20 -10 -41t-26 -34zM306 -9
q-25 0 -43.5 27t-24.5 60q-13 6 -20 15q-61 -100 -107 -100q-37 0 -58 27.5t-25 59.5q-30 18 -30 49q0 54 72 180q83 141 97 141q24 1 48.5 -13t25.5 -28q-87 -147 -154 -310q38 16 80.5 61t73 91l68.5 104.5t59 84.5q21 3 50 -10t29 -34q-53 -86 -138 -280q43 18 86.5 53.5
t86 86t64 78.5t53.5 74q4 -2 9.5 -5.5t12.5 -14.5t1 -22q-27 -50 -65.5 -109t-84.5 -121t-91 -103.5t-75 -41.5z" />
    <glyph glyph-name="yacute" unicode="&#xfd;" horiz-adv-x="435" 
d="M309 522q-9 23 40 88.5t75 70.5q17 3 44 -17.5t35 -39.5q-33 -15 -165 -113q-22 -6 -29 11zM145 -237q-46 0 -72 18.5t-26 51.5t26 62.5t78 71.5q29 69 101 208q-101 -167 -162 -168q-38 -1 -52 24.5t-15 61.5q-16 16 -16 44q0 47 37.5 122.5t108.5 191.5q27 1 54 -12.5
t28 -27.5q0 -8 -26.5 -57.5l-66 -124t-61.5 -125.5q27 10 58 34.5t54.5 49.5t54 66.5t46.5 65l44 67.5l34 53q10 0 26.5 -3t35.5 -17t15 -37q-93 -151 -171 -309q154 138 287 307q8 0 17.5 -9t9.5 -22q0 -47 -123.5 -176.5t-251.5 -229.5q-47 -109 -72 -181z" />
    <glyph glyph-name="thorn" unicode="&#xfe;" horiz-adv-x="450" 
d="M172 -6q-55 0 -75 53q-15 2 -26 10q-98 -199 -129 -268q-26 4 -42.5 14t-20.5 21.5t-6 24t1 20.5q0 9 81.5 178.5l181 373t122.5 254.5q30 -2 47.5 -7.5t23 -13.5t7 -18t-0.5 -20q-1 -14 -72 -164q23 14 44 14q38 0 52 -33q13 -3 25.5 -10.5t25.5 -27t13 -45.5
q0 -41 -27.5 -104t-69.5 -123q63 37 118.5 98t134.5 170q10 -3 21 -16t2 -28q-53 -97 -122 -181.5t-114 -111.5q-58 -37 -121 -23q-42 -37 -74 -37zM103 87q45 5 89 42t75 87.5t52 100t29 87.5q-62 -17 -143.5 -125.5t-101.5 -191.5z" />
    <glyph glyph-name="ydieresis" unicode="&#xff;" horiz-adv-x="435" 
d="M284 550q-13 -12 -38 -9t-27 18q-21 10 -21 26q0 37 38 75q14 12 35.5 8t28.5 -18q21 -10 21 -25q0 -19 -10.5 -40.5t-26.5 -34.5zM452 541q-13 -13 -38 -8.5t-29 21.5q-22 11 -22 26q0 40 38 76q17 14 41.5 7t24.5 -21q21 -11 21 -26q0 -20 -10 -41t-26 -34zM145 -237
q-46 0 -72 18.5t-26 51.5t26 62.5t78 71.5q29 69 101 208q-101 -167 -162 -168q-38 -1 -52 24.5t-15 61.5q-16 16 -16 44q0 47 37.5 122.5t108.5 191.5q27 1 54 -12.5t28 -27.5q0 -8 -26.5 -57.5l-66 -124t-61.5 -125.5q27 10 58 34.5t54.5 49.5t54 66.5t46.5 65l44 67.5
l34 53q10 0 26.5 -3t35.5 -17t15 -37q-93 -151 -171 -309q154 138 287 307q8 0 17.5 -9t9.5 -22q0 -47 -123.5 -176.5t-251.5 -229.5q-47 -109 -72 -181z" />
    <glyph glyph-name="Amacron" unicode="&#x100;" horiz-adv-x="439" 
d="M382 778q-44 0 -59.5 11.5t-15.5 43.5q0 14 4.5 19.5t16.5 6.5l191 9q44 2 60.5 -12.5t16.5 -51.5q0 -16 -4 -21t-16 -5h-194zM235 74q0 37 30 135l-113 7q-62 -118 -105 -233q-37 0 -59.5 20t-22.5 60q0 45 62 162h-4q-23 34 -23 62q0 16 12 22.5t53 6.5h14
q83 136 177.5 259t116.5 123q53 0 72 -43q27 -4 51.5 -19t24.5 -29q0 -12 -35.5 -115.5l-85 -252t-74.5 -242.5q-33 -1 -62 21t-29 56zM292 292q52 153 123 326q-101 -112 -213 -310q63 -7 90 -16z" />
    <glyph glyph-name="amacron" unicode="&#x101;" horiz-adv-x="463" 
d="M218 548q-44 0 -59.5 11.5t-15.5 43.5q0 14 4.5 19.5t16.5 6.5l191 9q44 2 60.5 -12.5t16.5 -51.5q0 -16 -4 -21t-16 -5h-194zM301 -7q-29 0 -48 29t-23 61q-6 4 -9 7q-71 -97 -112 -97q-35 0 -54 33t-21 71q-27 21 -27 70q0 52 25 107.5t61 97t78 68.5t75 27
q39 0 61.5 -18.5t25.5 -43.5l23 35q16 17 39 15t43.5 -17.5t20.5 -31.5q-31 -42 -81.5 -136.5t-79.5 -165.5q43 18 87.5 53.5t88.5 88t65 80.5l55 77q4 -2 9.5 -5.5t12.5 -14.5t1 -22q-39 -70 -92 -148t-119 -149t-105 -71zM74 111q42 15 83 52.5t70 82.5t48.5 82.5
t29.5 65.5q-58 -11 -110.5 -64.5t-82 -112t-38.5 -106.5z" />
    <glyph glyph-name="Abreve" unicode="&#x102;" horiz-adv-x="439" 
d="M448 729q-45 0 -49 39q-19 4 -34 16t-15 33q0 44 38 107q58 0 62 -38q0 -11 -4.5 -25t-14.5 -38t-15 -38q43 7 74.5 45t45.5 79q17 0 33.5 -13.5t16.5 -31.5q0 -35 -40 -85t-98 -50zM235 74q0 37 30 135l-113 7q-62 -118 -105 -233q-37 0 -59.5 20t-22.5 60q0 45 62 162
h-4q-23 34 -23 62q0 16 12 22.5t53 6.5h14q83 136 177.5 259t116.5 123q53 0 72 -43q27 -4 51.5 -19t24.5 -29q0 -12 -35.5 -115.5l-85 -252t-74.5 -242.5q-33 -1 -62 21t-29 56zM292 292q52 153 123 326q-101 -112 -213 -310q63 -7 90 -16z" />
    <glyph glyph-name="abreve" unicode="&#x103;" horiz-adv-x="463" 
d="M284 499q-45 0 -49 39q-19 4 -34 16t-15 33q0 44 38 107q58 0 62 -38q0 -11 -4.5 -25t-14.5 -38t-15 -38q43 7 74.5 45t45.5 79q17 0 33.5 -13.5t16.5 -31.5q0 -35 -40 -85t-98 -50zM301 -7q-29 0 -48 29t-23 61q-6 4 -9 7q-71 -97 -112 -97q-35 0 -54 33t-21 71
q-27 21 -27 70q0 52 25 107.5t61 97t78 68.5t75 27q39 0 61.5 -18.5t25.5 -43.5l23 35q16 17 39 15t43.5 -17.5t20.5 -31.5q-31 -42 -81.5 -136.5t-79.5 -165.5q43 18 87.5 53.5t88.5 88t65 80.5l55 77q4 -2 9.5 -5.5t12.5 -14.5t1 -22q-39 -70 -92 -148t-119 -149t-105 -71
zM74 111q42 15 83 52.5t70 82.5t48.5 82.5t29.5 65.5q-58 -11 -110.5 -64.5t-82 -112t-38.5 -106.5z" />
    <glyph glyph-name="Aogonek" unicode="&#x104;" horiz-adv-x="439" 
d="M341 -95q0 -28 -46.5 -67.5t-78.5 -39.5q-16 0 -27.5 15.5t-16.5 35.5q-39 25 -39 68q0 32 39 68t78 47q-15 18 -15 42q0 37 30 135l-113 7q-62 -118 -105 -233q-37 0 -59.5 20t-22.5 60q0 45 62 162h-4q-23 34 -23 62q0 16 12 22.5t53 6.5h14q83 136 177.5 259
t116.5 123q53 0 72 -43q27 -4 51.5 -19t24.5 -29q0 -12 -35.5 -115.5l-85 -252t-74.5 -242.5q-28 0 -53 15q-67 -58 -77 -144q69 8 121 69q24 -6 24 -32zM292 292q52 153 123 326q-101 -112 -213 -310q63 -7 90 -16z" />
    <glyph glyph-name="aogonek" unicode="&#x105;" horiz-adv-x="463" 
d="M269 -208q-16 0 -27.5 15.5t-16.5 35.5q-39 25 -39 68q0 24 23.5 51.5t55.5 46.5q-29 26 -35 74q-6 4 -9 7q-71 -97 -112 -97q-35 0 -54 33t-21 71q-27 21 -27 70q0 52 25 107.5t61 97t78 68.5t75 27q39 0 61.5 -18.5t25.5 -43.5l23 35q16 17 39 15t43.5 -17.5
t20.5 -31.5q-31 -42 -81.5 -136.5t-79.5 -165.5q43 18 87.5 53.5t88.5 88t65 80.5l55 77q4 -2 9.5 -5.5t12.5 -14.5t1 -22q-37 -66 -86.5 -139.5t-112.5 -144.5t-103 -82q-57 -57 -66 -133q69 8 121 69q24 -6 24 -32q0 -28 -46.5 -67.5t-78.5 -39.5zM74 111q42 15 83 52.5
t70 82.5t48.5 82.5t29.5 65.5q-58 -11 -110.5 -64.5t-82 -112t-38.5 -106.5z" />
    <glyph glyph-name="Cacute" unicode="&#x106;" horiz-adv-x="391" 
d="M408 752q-9 23 40 88.5t75 70.5q17 3 44 -17.5t35 -39.5q-33 -15 -165 -113q-22 -6 -29 11zM540 356l-57.5 -93t-63.5 -92.5t-74.5 -93t-72.5 -59.5t-76 -27q-44 0 -76 27t-47 69q-52 26 -52 107q0 71 32 159t83 164.5t122.5 128.5t142.5 52q21 0 42 -18.5t28 -37.5
q19 -6 30 -18.5t11 -22.5t-14 -41t-37.5 -78.5t-36.5 -76.5q-35 0 -56 16t-21 47q0 29 24 75t50 81q-75 -30 -142 -115t-107 -191t-43 -203q157 -32 393 278q7 0 15 -14t3 -23z" />
    <glyph glyph-name="cacute" unicode="&#x107;" horiz-adv-x="342" 
d="M247 522q-9 23 40 88.5t75 70.5q17 3 44 -17.5t35 -39.5q-33 -15 -165 -113q-22 -6 -29 11zM500 361q-221 -368 -345 -368q-45 0 -77.5 29t-41.5 75q-36 21 -36 70q0 104 83 202.5t163 98.5q64 0 76 -48q16 -7 27.5 -20t11.5 -25q0 -11 -21 -39.5t-52 -65t-35 -42.5
q-20 0 -30.5 17t-8.5 43q2 42 49 97q-49 -23 -91 -74t-65.5 -103t-30.5 -95q44 -10 98 7t103 56q97 77 199 227q9 0 20.5 -13t3.5 -29z" />
    <glyph glyph-name="Cdotaccent" unicode="&#x10a;" horiz-adv-x="391" 
d="M437 777q-15 -15 -44.5 -11.5t-37.5 23.5q-26 11 -26 32q0 47 48 95q18 15 44.5 10t35.5 -22q27 -13 27 -32q0 -25 -13.5 -51.5t-33.5 -43.5zM540 356l-57.5 -93t-63.5 -92.5t-74.5 -93t-72.5 -59.5t-76 -27q-44 0 -76 27t-47 69q-52 26 -52 107q0 71 32 159t83 164.5
t122.5 128.5t142.5 52q21 0 42 -18.5t28 -37.5q19 -6 30 -18.5t11 -22.5t-14 -41t-37.5 -78.5t-36.5 -76.5q-35 0 -56 16t-21 47q0 29 24 75t50 81q-75 -30 -142 -115t-107 -191t-43 -203q157 -32 393 278q7 0 15 -14t3 -23z" />
    <glyph glyph-name="cdotaccent" unicode="&#x10b;" horiz-adv-x="342" 
d="M276 547q-15 -15 -44.5 -11.5t-37.5 23.5q-26 11 -26 32q0 47 48 95q18 15 44.5 10t35.5 -22q27 -13 27 -32q0 -25 -13.5 -51.5t-33.5 -43.5zM500 361q-221 -368 -345 -368q-45 0 -77.5 29t-41.5 75q-36 21 -36 70q0 104 83 202.5t163 98.5q64 0 76 -48q16 -7 27.5 -20
t11.5 -25q0 -11 -21 -39.5t-52 -65t-35 -42.5q-20 0 -30.5 17t-8.5 43q2 42 49 97q-49 -23 -91 -74t-65.5 -103t-30.5 -95q44 -10 98 7t103 56q97 77 199 227q9 0 20.5 -13t3.5 -29z" />
    <glyph glyph-name="Ccaron" unicode="&#x10c;" horiz-adv-x="391" 
d="M431 741q-7 0 -17.5 10t-23.5 28l-24.5 34.5l-25 36.5t-18.5 28q14 19 28 19q16 0 44.5 -24.5t53.5 -59.5l108 82q13 -11 13 -29q0 -24 -56 -74.5t-82 -50.5zM540 356l-57.5 -93t-63.5 -92.5t-74.5 -93t-72.5 -59.5t-76 -27q-44 0 -76 27t-47 69q-52 26 -52 107
q0 71 32 159t83 164.5t122.5 128.5t142.5 52q21 0 42 -18.5t28 -37.5q19 -6 30 -18.5t11 -22.5t-14 -41t-37.5 -78.5t-36.5 -76.5q-35 0 -56 16t-21 47q0 29 24 75t50 81q-75 -30 -142 -115t-107 -191t-43 -203q157 -32 393 278q7 0 15 -14t3 -23z" />
    <glyph glyph-name="ccaron" unicode="&#x10d;" horiz-adv-x="342" 
d="M270 511q-7 0 -17.5 10t-23.5 28l-24.5 34.5l-25 36.5t-18.5 28q14 19 28 19q16 0 44.5 -24.5t53.5 -59.5l108 82q13 -11 13 -29q0 -24 -56 -74.5t-82 -50.5zM500 361q-221 -368 -345 -368q-45 0 -77.5 29t-41.5 75q-36 21 -36 70q0 104 83 202.5t163 98.5q64 0 76 -48
q16 -7 27.5 -20t11.5 -25q0 -11 -21 -39.5t-52 -65t-35 -42.5q-20 0 -30.5 17t-8.5 43q2 42 49 97q-49 -23 -91 -74t-65.5 -103t-30.5 -95q44 -10 98 7t103 56q97 77 199 227q9 0 20.5 -13t3.5 -29z" />
    <glyph glyph-name="Dcaron" unicode="&#x10e;" horiz-adv-x="510" 
d="M428 741q-7 0 -17.5 10t-23.5 28l-24.5 34.5l-25 36.5t-18.5 28q14 19 28 19q16 0 44.5 -24.5t53.5 -59.5l108 82q13 -11 13 -29q0 -24 -56 -74.5t-82 -50.5zM140 -24q-33 0 -55 30.5t-30 84.5q-45 19 -46 51q0 53 49 159.5t139 269.5q-53 -11 -97 -30q-18 16 -24.5 43
t11.5 55q88 58 245 58q100 0 141 -28t47 -76q39 -24 40 -59q0 -98 -61.5 -228.5t-162 -230t-196.5 -99.5zM117 91q54 0 136 83.5t146 200.5t71 204q-68 14 -155 9q12 -15 12 -27t-42.5 -98l-98 -200t-77.5 -172h8z" />
    <glyph glyph-name="dcaron" unicode="&#x10f;" horiz-adv-x="471" 
d="M308 -7q-27 0 -46 27t-24 59q-12 5 -15 7q-69 -93 -105 -93q-34 0 -53 31t-22 65q-34 20 -34 75q0 111 79.5 207t151.5 96q40 0 62.5 -18.5t25.5 -43.5l6 -4q90 181 138 269q41 0 61 -20.5t20 -48.5q0 -44 -56 -137t-110 -154q-51 -81 -94 -206q31 11 64.5 34t58 44.5
t58 60.5t48.5 58l46 60.5t34 46.5l3 -2l6.5 -4.5t7.5 -6.5t6.5 -8t3 -9.5t-3.5 -11.5q-42 -73 -93.5 -149.5t-118.5 -150t-105 -73.5zM239 511q-7 0 -17.5 10t-23.5 28l-24.5 34.5l-25 36.5t-18.5 28q14 19 28 19q16 0 44.5 -24.5t53.5 -59.5l108 82q13 -11 13 -29
q0 -24 -56 -74.5t-82 -50.5zM75 103q41 13 81 50t69.5 84t49 85.5t33.5 72.5q-46 -6 -89 -40.5t-72 -80.5t-48 -91t-24 -80z" />
    <glyph glyph-name="Dcroat" unicode="&#x110;" horiz-adv-x="510" 
d="M140 -24q-33 0 -55 30.5t-30 84.5q-45 19 -46 51q0 51 55 173l-68 -9q-9 17 -14 35.5t0 35.5t22 21q55 11 110 17l83 156q-53 -11 -97 -30q-18 16 -24.5 43t11.5 55q88 58 245 58q100 0 141 -28t47 -76q39 -24 40 -59q0 -98 -61.5 -228.5t-162 -230t-196.5 -99.5zM117 91
q54 0 136 83.5t146 200.5t71 204q-68 14 -155 9q12 -15 12 -27q0 -11 -64 -143q22 -2 33 -4q36 -7 33 -87q-64 2 -112 -1q-85 -171 -108 -235h8z" />
    <glyph glyph-name="dcroat" unicode="&#x111;" horiz-adv-x="471" 
d="M308 -7q-27 0 -46 27t-24 59q-12 5 -15 7q-69 -93 -105 -93q-34 0 -53 31t-22 65q-34 20 -34 75q0 111 79.5 207t151.5 96q40 0 62.5 -18.5t25.5 -43.5l6 -4l56 112q-92 4 -127 4q-10 17 -14.5 32.5t0.5 29t22 15.5q54 7 161 0l40 76q41 0 61 -20.5t20 -48.5q0 -4 -2 -20
q18 -2 27 -4q36 -7 33 -72l-90 3q-52 -103 -134 -198q-51 -81 -94 -206q31 11 64.5 34t58 44.5t58 60.5t48.5 58l46 60.5t34 46.5l3 -2l6.5 -4.5t7.5 -6.5t6.5 -8t3 -9.5t-3.5 -11.5q-42 -73 -93.5 -149.5t-118.5 -150t-105 -73.5zM75 103q41 13 81 50t69.5 84t49 85.5
t33.5 72.5q-46 -6 -89 -40.5t-72 -80.5t-48 -91t-24 -80z" />
    <glyph glyph-name="Emacron" unicode="&#x112;" horiz-adv-x="379" 
d="M306 778q-44 0 -59.5 11.5t-15.5 43.5q0 14 4.5 19.5t16.5 6.5l191 9q44 2 60.5 -12.5t16.5 -51.5q0 -16 -4 -21t-16 -5h-194zM534 354q-15 -32 -60.5 -91t-102.5 -120.5t-120 -106.5t-105 -45q-44 0 -75 26t-33 60q-61 28 -51 108q7 74 68 124.5t154 72.5
q-52 22 -84 53.5t-28 69.5q3 24 11 37q-4 11 -4 24q0 57 68 94.5t156 37.5q44 0 83 -9t55 -22q26 -19 26 -50q17 -13 14 -35q-7 -45 -62 -79.5t-93 -34.5q-20 0 -31 8.5t-9 23.5q86 55 119 104q-118 3 -231 -48q-5 -26 7.5 -50.5t39.5 -46t48 -34.5t50 -28q15 -7 10 -24.5
t-21 -22.5q-104 -39 -175 -108t-62 -141q80 8 191 84t221 203q14 0 23 -11t3 -23z" />
    <glyph glyph-name="emacron" unicode="&#x113;" horiz-adv-x="376" 
d="M204 548q-44 0 -59.5 11.5t-15.5 43.5q0 14 4.5 19.5t16.5 6.5l191 9q44 2 60.5 -12.5t16.5 -51.5q0 -16 -4 -21t-16 -5h-194zM530 361q-33 -66 -94 -149t-136 -151t-125 -68q-49 0 -83.5 28t-43.5 77q-39 25 -39 80q0 60 39.5 129.5t98 116t110.5 46.5q69 0 80 -51
q31 -18 31 -48q0 -64 -66.5 -133.5t-122.5 -69.5q-18 0 -33.5 12t-22.5 27q-21 -54 -23 -104q17 -5 29 -5q177 -6 378 305q8 0 19.5 -13t3.5 -29zM130 224q44 11 99 69t77 112q-52 -14 -99.5 -64.5t-76.5 -116.5z" />
    <glyph glyph-name="Ebreve" unicode="&#x114;" horiz-adv-x="379" 
d="M372 729q-45 0 -49 39q-19 4 -34 16t-15 33q0 44 38 107q58 0 62 -38q0 -11 -4.5 -25t-14.5 -38t-15 -38q43 7 74.5 45t45.5 79q17 0 33.5 -13.5t16.5 -31.5q0 -35 -40 -85t-98 -50zM534 354q-15 -32 -60.5 -91t-102.5 -120.5t-120 -106.5t-105 -45q-44 0 -75 26t-33 60
q-61 28 -51 108q7 74 68 124.5t154 72.5q-52 22 -84 53.5t-28 69.5q3 24 11 37q-4 11 -4 24q0 57 68 94.5t156 37.5q44 0 83 -9t55 -22q26 -19 26 -50q17 -13 14 -35q-7 -45 -62 -79.5t-93 -34.5q-20 0 -31 8.5t-9 23.5q86 55 119 104q-118 3 -231 -48q-5 -26 7.5 -50.5
t39.5 -46t48 -34.5t50 -28q15 -7 10 -24.5t-21 -22.5q-104 -39 -175 -108t-62 -141q80 8 191 84t221 203q14 0 23 -11t3 -23z" />
    <glyph glyph-name="ebreve" unicode="&#x115;" horiz-adv-x="376" 
d="M270 499q-45 0 -49 39q-19 4 -34 16t-15 33q0 44 38 107q58 0 62 -38q0 -11 -4.5 -25t-14.5 -38t-15 -38q43 7 74.5 45t45.5 79q17 0 33.5 -13.5t16.5 -31.5q0 -35 -40 -85t-98 -50zM530 361q-33 -66 -94 -149t-136 -151t-125 -68q-49 0 -83.5 28t-43.5 77q-39 25 -39 80
q0 60 39.5 129.5t98 116t110.5 46.5q69 0 80 -51q31 -18 31 -48q0 -64 -66.5 -133.5t-122.5 -69.5q-18 0 -33.5 12t-22.5 27q-21 -54 -23 -104q17 -5 29 -5q177 -6 378 305q8 0 19.5 -13t3.5 -29zM130 224q44 11 99 69t77 112q-52 -14 -99.5 -64.5t-76.5 -116.5z" />
    <glyph glyph-name="Edotaccent" unicode="&#x116;" horiz-adv-x="379" 
d="M398 777q-15 -15 -44.5 -11.5t-37.5 23.5q-26 11 -26 32q0 47 48 95q18 15 44.5 10t35.5 -22q27 -13 27 -32q0 -25 -13.5 -51.5t-33.5 -43.5zM534 354q-15 -32 -60.5 -91t-102.5 -120.5t-120 -106.5t-105 -45q-44 0 -75 26t-33 60q-61 28 -51 108q7 74 68 124.5t154 72.5
q-52 22 -84 53.5t-28 69.5q3 24 11 37q-4 11 -4 24q0 57 68 94.5t156 37.5q44 0 83 -9t55 -22q26 -19 26 -50q17 -13 14 -35q-7 -45 -62 -79.5t-93 -34.5q-20 0 -31 8.5t-9 23.5q86 55 119 104q-118 3 -231 -48q-5 -26 7.5 -50.5t39.5 -46t48 -34.5t50 -28q15 -7 10 -24.5
t-21 -22.5q-104 -39 -175 -108t-62 -141q80 8 191 84t221 203q14 0 23 -11t3 -23z" />
    <glyph glyph-name="edotaccent" unicode="&#x117;" horiz-adv-x="376" 
d="M296 547q-15 -15 -44.5 -11.5t-37.5 23.5q-26 11 -26 32q0 47 48 95q18 15 44.5 10t35.5 -22q27 -13 27 -32q0 -25 -13.5 -51.5t-33.5 -43.5zM530 361q-33 -66 -94 -149t-136 -151t-125 -68q-49 0 -83.5 28t-43.5 77q-39 25 -39 80q0 60 39.5 129.5t98 116t110.5 46.5
q69 0 80 -51q31 -18 31 -48q0 -64 -66.5 -133.5t-122.5 -69.5q-18 0 -33.5 12t-22.5 27q-21 -54 -23 -104q17 -5 29 -5q177 -6 378 305q8 0 19.5 -13t3.5 -29zM130 224q44 11 99 69t77 112q-52 -14 -99.5 -64.5t-76.5 -116.5z" />
    <glyph glyph-name="Eogonek" unicode="&#x118;" horiz-adv-x="379" 
d="M208 -95q0 -28 -46.5 -67.5t-78.5 -39.5q-16 0 -27.5 15.5t-16.5 35.5q-39 25 -39 68q0 23 22.5 50t53.5 46q-36 25 -38 64q-61 28 -51 108q7 74 68 124.5t154 72.5q-52 22 -84 53.5t-28 69.5q3 24 11 37q-4 11 -4 24q0 57 68 94.5t156 37.5q44 0 83 -9t55 -22
q26 -19 26 -50q17 -13 14 -35q-7 -45 -62 -79.5t-93 -34.5q-20 0 -31 8.5t-9 23.5q86 55 119 104q-118 3 -231 -48q-5 -26 7.5 -50.5t39.5 -46t48 -34.5t50 -28q15 -7 10 -24.5t-21 -22.5q-104 -39 -175 -108t-62 -141q80 8 191 84t221 203q14 0 23 -11t3 -23
q-15 -32 -60.5 -91t-102.5 -120.5t-120 -106.5t-105 -45q-9 0 -25 2q-49 -55 -58 -125q69 8 121 69q24 -6 24 -32z" />
    <glyph glyph-name="eogonek" unicode="&#x119;" horiz-adv-x="376" 
d="M208 -95q0 -28 -46.5 -67.5t-78.5 -39.5q-16 0 -27.5 15.5t-16.5 35.5q-39 25 -39 68q0 26 28 56t63 48q-36 29 -43 77q-39 25 -39 80q0 60 39.5 129.5t98 116t110.5 46.5q69 0 80 -51q31 -18 31 -48q0 -64 -66.5 -133.5t-122.5 -69.5q-18 0 -33.5 12t-22.5 27
q-21 -54 -23 -104q17 -5 29 -5q177 -6 378 305q8 0 19.5 -13t3.5 -29q-33 -66 -94 -149t-136 -151t-125 -68q-23 0 -47 8q-56 -58 -65 -133q69 8 121 69q24 -6 24 -32zM130 224q44 11 99 69t77 112q-52 -14 -99.5 -64.5t-76.5 -116.5z" />
    <glyph glyph-name="Ecaron" unicode="&#x11a;" horiz-adv-x="379" 
d="M392 741q-7 0 -17.5 10t-23.5 28l-24.5 34.5l-25 36.5t-18.5 28q14 19 28 19q16 0 44.5 -24.5t53.5 -59.5l108 82q13 -11 13 -29q0 -24 -56 -74.5t-82 -50.5zM534 354q-15 -32 -60.5 -91t-102.5 -120.5t-120 -106.5t-105 -45q-44 0 -75 26t-33 60q-61 28 -51 108
q7 74 68 124.5t154 72.5q-52 22 -84 53.5t-28 69.5q3 24 11 37q-4 11 -4 24q0 57 68 94.5t156 37.5q44 0 83 -9t55 -22q26 -19 26 -50q17 -13 14 -35q-7 -45 -62 -79.5t-93 -34.5q-20 0 -31 8.5t-9 23.5q86 55 119 104q-118 3 -231 -48q-5 -26 7.5 -50.5t39.5 -46t48 -34.5
t50 -28q15 -7 10 -24.5t-21 -22.5q-104 -39 -175 -108t-62 -141q80 8 191 84t221 203q14 0 23 -11t3 -23z" />
    <glyph glyph-name="ecaron" unicode="&#x11b;" horiz-adv-x="376" 
d="M290 511q-7 0 -17.5 10t-23.5 28l-24.5 34.5l-25 36.5t-18.5 28q14 19 28 19q16 0 44.5 -24.5t53.5 -59.5l108 82q13 -11 13 -29q0 -24 -56 -74.5t-82 -50.5zM530 361q-33 -66 -94 -149t-136 -151t-125 -68q-49 0 -83.5 28t-43.5 77q-39 25 -39 80q0 60 39.5 129.5
t98 116t110.5 46.5q69 0 80 -51q31 -18 31 -48q0 -64 -66.5 -133.5t-122.5 -69.5q-18 0 -33.5 12t-22.5 27q-21 -54 -23 -104q17 -5 29 -5q177 -6 378 305q8 0 19.5 -13t3.5 -29zM130 224q44 11 99 69t77 112q-52 -14 -99.5 -64.5t-76.5 -116.5z" />
    <glyph glyph-name="Gcircumflex" unicode="&#x11c;" horiz-adv-x="478" 
d="M578 747q-16 0 -44.5 24.5t-53.5 59.5l-108 -82q-13 11 -13 29q0 24 56 74.5t82 50.5q7 0 17.5 -10t23.5 -28l24.5 -34.5l25 -36.5t18.5 -28q-14 -19 -28 -19zM257 -199q-26 -1 -52.5 20t-26.5 48q0 45 150 311q-112 -160 -189 -160q-40 0 -62.5 29t-25.5 73
q-45 17 -45 88q0 43 24 105t68 128t98.5 123.5t122.5 94.5t133 37q52 0 64 -45q23 -5 36.5 -18t13.5 -25q0 -10 -14 -41t-37.5 -78.5t-36.5 -76.5q-35 0 -56 16t-21 47q0 51 64 142q-107 -40 -223.5 -193t-141.5 -278q75 9 153 67t129 135q88 0 88 -54q0 -26 -41 -117
l-96.5 -207t-75.5 -171z" />
    <glyph glyph-name="gcircumflex" unicode="&#x11d;" horiz-adv-x="446" 
d="M386 517q-16 0 -44.5 24.5t-53.5 59.5l-108 -82q-13 11 -13 29q0 24 56 74.5t82 50.5q7 0 17.5 -10t23.5 -28l24.5 -34.5l25 -36.5t18.5 -28q-14 -19 -28 -19zM156 -237q-46 0 -72 18.5t-26 51.5t26 62.5t78 71.5q38 88 103 211q-104 -171 -164 -171q-67 0 -67 86
q-25 22 -25 69q0 113 84.5 209t160.5 96q42 0 70.5 -18t33.5 -43q14 20 25 34q10 0 26.5 -3t35.5 -17t15 -37q-99 -164 -171 -308q152 135 287 306q8 0 17.5 -9t9.5 -22q0 -47 -123.5 -177t-251.5 -229q-47 -109 -72 -181zM77 100q25 6 52 25t48 39t49 56l44 58t44 64t38 56
q-54 -2 -104.5 -35.5t-84.5 -81.5t-56.5 -96t-29.5 -85z" />
    <glyph glyph-name="Gbreve" unicode="&#x11e;" horiz-adv-x="478" 
d="M466 729q-45 0 -49 39q-19 4 -34 16t-15 33q0 44 38 107q58 0 62 -38q0 -11 -4.5 -25t-14.5 -38t-15 -38q43 7 74.5 45t45.5 79q17 0 33.5 -13.5t16.5 -31.5q0 -35 -40 -85t-98 -50zM257 -199q-26 -1 -52.5 20t-26.5 48q0 45 150 311q-112 -160 -189 -160q-40 0 -62.5 29
t-25.5 73q-45 17 -45 88q0 43 24 105t68 128t98.5 123.5t122.5 94.5t133 37q52 0 64 -45q23 -5 36.5 -18t13.5 -25q0 -10 -14 -41t-37.5 -78.5t-36.5 -76.5q-35 0 -56 16t-21 47q0 51 64 142q-107 -40 -223.5 -193t-141.5 -278q75 9 153 67t129 135q88 0 88 -54
q0 -26 -41 -117l-96.5 -207t-75.5 -171z" />
    <glyph glyph-name="gbreve" unicode="&#x11f;" horiz-adv-x="446" 
d="M274 499q-45 0 -49 39q-19 4 -34 16t-15 33q0 44 38 107q58 0 62 -38q0 -11 -4.5 -25t-14.5 -38t-15 -38q43 7 74.5 45t45.5 79q17 0 33.5 -13.5t16.5 -31.5q0 -35 -40 -85t-98 -50zM156 -237q-46 0 -72 18.5t-26 51.5t26 62.5t78 71.5q38 88 103 211
q-104 -171 -164 -171q-67 0 -67 86q-25 22 -25 69q0 113 84.5 209t160.5 96q42 0 70.5 -18t33.5 -43q14 20 25 34q10 0 26.5 -3t35.5 -17t15 -37q-99 -164 -171 -308q152 135 287 306q8 0 17.5 -9t9.5 -22q0 -47 -123.5 -177t-251.5 -229q-47 -109 -72 -181zM77 100
q25 6 52 25t48 39t49 56l44 58t44 64t38 56q-54 -2 -104.5 -35.5t-84.5 -81.5t-56.5 -96t-29.5 -85z" />
    <glyph glyph-name="Gdotaccent" unicode="&#x120;" horiz-adv-x="478" 
d="M492 777q-15 -15 -44.5 -11.5t-37.5 23.5q-26 11 -26 32q0 47 48 95q18 15 44.5 10t35.5 -22q27 -13 27 -32q0 -25 -13.5 -51.5t-33.5 -43.5zM257 -199q-26 -1 -52.5 20t-26.5 48q0 45 150 311q-112 -160 -189 -160q-40 0 -62.5 29t-25.5 73q-45 17 -45 88q0 43 24 105
t68 128t98.5 123.5t122.5 94.5t133 37q52 0 64 -45q23 -5 36.5 -18t13.5 -25q0 -10 -14 -41t-37.5 -78.5t-36.5 -76.5q-35 0 -56 16t-21 47q0 51 64 142q-107 -40 -223.5 -193t-141.5 -278q75 9 153 67t129 135q88 0 88 -54q0 -26 -41 -117l-96.5 -207t-75.5 -171z" />
    <glyph glyph-name="gdotaccent" unicode="&#x121;" horiz-adv-x="446" 
d="M300 547q-15 -15 -44.5 -11.5t-37.5 23.5q-26 11 -26 32q0 47 48 95q18 15 44.5 10t35.5 -22q27 -13 27 -32q0 -25 -13.5 -51.5t-33.5 -43.5zM156 -237q-46 0 -72 18.5t-26 51.5t26 62.5t78 71.5q38 88 103 211q-104 -171 -164 -171q-67 0 -67 86q-25 22 -25 69
q0 113 84.5 209t160.5 96q42 0 70.5 -18t33.5 -43q14 20 25 34q10 0 26.5 -3t35.5 -17t15 -37q-99 -164 -171 -308q152 135 287 306q8 0 17.5 -9t9.5 -22q0 -47 -123.5 -177t-251.5 -229q-47 -109 -72 -181zM77 100q25 6 52 25t48 39t49 56l44 58t44 64t38 56
q-54 -2 -104.5 -35.5t-84.5 -81.5t-56.5 -96t-29.5 -85z" />
    <glyph glyph-name="Gcommaaccent" unicode="&#x122;" horiz-adv-x="478" 
d="M257 -199q-26 -1 -52.5 20t-26.5 48q0 45 150 311q-112 -160 -189 -160q-40 0 -62.5 29t-25.5 73q-45 17 -45 88q0 43 24 105t68 128t98.5 123.5t122.5 94.5t133 37q52 0 64 -45q23 -5 36.5 -18t13.5 -25q0 -10 -14 -41t-37.5 -78.5t-36.5 -76.5q-35 0 -56 16t-21 47
q0 51 64 142q-107 -40 -223.5 -193t-141.5 -278q75 9 153 67t129 135q88 0 88 -54q0 -26 -41 -117l-96.5 -207t-75.5 -171zM94 -178q-16 -15 -43.5 -22t-49.5 0q16 15 35 49q-36 12 -36 35q0 35 43 78q19 17 49.5 9t30.5 -28q24 -7 24 -23q0 -23 -17 -52.5t-36 -45.5z" />
    <glyph glyph-name="gcommaaccent" unicode="&#x123;" horiz-adv-x="446" 
d="M156 -237q-46 0 -72 18.5t-26 51.5t26 62.5t78 71.5q38 88 103 211q-104 -171 -164 -171q-67 0 -67 86q-25 22 -25 69q0 113 84.5 209t160.5 96q42 0 70.5 -18t33.5 -43q14 20 25 34q10 0 26.5 -3t35.5 -17t15 -37q-99 -164 -171 -308q152 135 287 306q8 0 17.5 -9
t9.5 -22q0 -47 -123.5 -177t-251.5 -229q-47 -109 -72 -181zM77 100q25 6 52 25t48 39t49 56l44 58t44 64t38 56q-54 -2 -104.5 -35.5t-84.5 -81.5t-56.5 -96t-29.5 -85zM13 -178q-16 -15 -43.5 -22t-49.5 0q16 15 35 49q-36 12 -36 35q0 35 43 78q20 17 50 9t30 -28
q24 -7 24 -23q0 -23 -17 -52.5t-36 -45.5z" />
    <glyph glyph-name="hcircumflex" unicode="&#x125;" horiz-adv-x="468" 
d="M304 -7q-26 0 -44.5 25.5t-24.5 56.5q-22 19 -22 44q0 31 29 98.5t67 131.5q-147 -130 -254 -349q-25 0 -42.5 25t-17.5 55q0 12 3.5 26.5t11.5 35l12.5 32t16.5 37t14 30.5l116 248.5t91 179.5q41 0 64.5 -15.5t23.5 -45.5q0 -42 -99 -183q-38 -74 -75 -136
q82 90 140 131.5t87 41.5q19 0 40.5 -19.5t22.5 -34.5q-65 -109 -144 -289q51 26 102.5 77t108.5 121.5t71 85.5q37 -16 23 -42q-22 -42 -77.5 -123.5t-130 -163t-113.5 -81.5zM521 497q-23 0 -62 79l-84 -69q-13 19 -13 33q3 26 47 71.5t69 45.5q16 -3 39.5 -53.5
t31.5 -91.5q-11 -15 -28 -15z" />
    <glyph glyph-name="Hbar" unicode="&#x126;" horiz-adv-x="533" 
d="M260 114q0 31 52 145l-110 -3q-80 -176 -115 -262q-27 0 -61.5 12.5t-34.5 36.5q0 15 76 202q-9 -1 -28.5 -3.5t-29.5 -4.5q-9 16 -13.5 37t0.5 40t22 23q37 8 93 13l27 63q-99 -5 -129 -10q-9 17 -14 35.5t0 35.5t22 21q40 8 164 15q49 111 84 181q46 0 75.5 -19
t29.5 -40q0 -12 -49 -118q42 1 116 -1q74 147 85 173q37 0 67 -20.5t30 -52.5q0 -12 -52 -111q17 -3 26 -6q35 -13 33 -72q-38 2 -100 0q-122 -234 -151 -301q46 17 90.5 49t84 77.5t60.5 73t51 70.5q35 -18 22 -41q-60 -107 -162.5 -230.5t-156.5 -123.5q-38 0 -60 55
q-44 26 -44 61zM329 330q10 -4 13 -8l49 100l-114 -3l-33 -71q46 -4 85 -18z" />
    <glyph glyph-name="hbar" unicode="&#x127;" horiz-adv-x="468" 
d="M630 361q-22 -42 -77.5 -123.5t-130 -163t-113.5 -81.5q-26 0 -44.5 25.5t-24.5 56.5q-22 19 -22 44q0 31 29 98.5t67 131.5q-147 -130 -254 -349q-25 0 -42.5 25t-17.5 55q0 12 3.5 26.5t11.5 35l12.5 32t16.5 37t14 30.5q34 77 124 264q-56 2 -77 2q-10 17 -14.5 32.5
t0.5 29t22 15.5q43 5 108 3q37 71 44 82q41 0 64.5 -15.5t23.5 -45.5q0 -8 -7 -31q52 -6 74 -10q36 -7 33 -72q-55 1 -149 5q-18 -29 -50 -75q-38 -74 -75 -136q82 90 140 131.5t87 41.5q19 0 40.5 -19.5t22.5 -34.5q-65 -109 -144 -289q51 26 102.5 77t108.5 121.5t71 85.5
q37 -16 23 -42z" />
    <glyph glyph-name="Itilde" unicode="&#x128;" horiz-adv-x="388" 
d="M438 785q-30 0 -85.5 10t-73.5 10q-41 0 -61 -20l-5 3q13 101 103 101q30 0 84 -11t68 -11q38 0 51 11q5 0 6 -3q-14 -90 -87 -90zM97 -9q-31 0 -60.5 28.5t-31.5 65.5q104 -7 195 106q-109 36 -109 156q0 72 31 152.5t89 139.5t125 59q38 0 62 -19.5t23 -47.5
q38 -22 38 -68q0 -103 -54 -237.5t-140.5 -234.5t-167.5 -100zM196 288q0 -54 18 -79q61 82 99 195t43 216q-65 -28 -112.5 -126.5t-47.5 -205.5z" />
    <glyph glyph-name="itilde" unicode="&#x129;" horiz-adv-x="267" 
d="M314 555q-30 0 -85.5 10t-73.5 10q-41 0 -61 -20l-5 3q13 101 103 101q30 0 84 -11t68 -11q38 0 51 11q5 0 6 -3q-14 -90 -87 -90zM105 -7q-23 -1 -40.5 21t-25.5 51q-39 14 -43 55q-4 36 55 152t109 179q23 0 51.5 -21t28.5 -35q0 -8 -23 -44.5t-61.5 -105.5t-66.5 -141
q37 12 78 42.5t68.5 57t67.5 76.5t51.5 66.5l43.5 61.5q36 -18 23 -42q-39 -70 -92 -149t-119.5 -151t-104.5 -73z" />
    <glyph glyph-name="Imacron" unicode="&#x12a;" horiz-adv-x="388" 
d="M290 778q-44 0 -59.5 11.5t-15.5 43.5q0 14 4.5 19.5t16.5 6.5l191 9q44 2 60.5 -12.5t16.5 -51.5q0 -16 -4 -21t-16 -5h-194zM97 -9q-31 0 -60.5 28.5t-31.5 65.5q104 -7 195 106q-109 36 -109 156q0 72 31 152.5t89 139.5t125 59q38 0 62 -19.5t23 -47.5q38 -22 38 -68
q0 -103 -54 -237.5t-140.5 -234.5t-167.5 -100zM196 288q0 -54 18 -79q61 82 99 195t43 216q-65 -28 -112.5 -126.5t-47.5 -205.5z" />
    <glyph glyph-name="imacron" unicode="&#x12b;" horiz-adv-x="267" 
d="M166 548q-44 0 -59.5 11.5t-15.5 43.5q0 14 4.5 19.5t16.5 6.5l191 9q44 2 60.5 -12.5t16.5 -51.5q0 -16 -4 -21t-16 -5h-194zM105 -7q-23 -1 -40.5 21t-25.5 51q-39 14 -43 55q-4 36 55 152t109 179q23 0 51.5 -21t28.5 -35q0 -8 -23 -44.5t-61.5 -105.5t-66.5 -141
q37 12 78 42.5t68.5 57t67.5 76.5t51.5 66.5l43.5 61.5q36 -18 23 -42q-39 -70 -92 -149t-119.5 -151t-104.5 -73z" />
    <glyph glyph-name="Ibreve" unicode="&#x12c;" horiz-adv-x="388" 
d="M356 729q-45 0 -49 39q-19 4 -34 16t-15 33q0 44 38 107q58 0 62 -38q0 -11 -4.5 -25t-14.5 -38t-15 -38q43 7 74.5 45t45.5 79q17 0 33.5 -13.5t16.5 -31.5q0 -35 -40 -85t-98 -50zM97 -9q-31 0 -60.5 28.5t-31.5 65.5q104 -7 195 106q-109 36 -109 156q0 72 31 152.5
t89 139.5t125 59q38 0 62 -19.5t23 -47.5q38 -22 38 -68q0 -103 -54 -237.5t-140.5 -234.5t-167.5 -100zM196 288q0 -54 18 -79q61 82 99 195t43 216q-65 -28 -112.5 -126.5t-47.5 -205.5z" />
    <glyph glyph-name="ibreve" unicode="&#x12d;" horiz-adv-x="267" 
d="M232 499q-45 0 -49 39q-19 4 -34 16t-15 33q0 44 38 107q58 0 62 -38q0 -11 -4.5 -25t-14.5 -38t-15 -38q43 7 74.5 45t45.5 79q17 0 33.5 -13.5t16.5 -31.5q0 -35 -40 -85t-98 -50zM105 -7q-23 -1 -40.5 21t-25.5 51q-39 14 -43 55q-4 36 55 152t109 179q23 0 51.5 -21
t28.5 -35q0 -8 -23 -44.5t-61.5 -105.5t-66.5 -141q37 12 78 42.5t68.5 57t67.5 76.5t51.5 66.5l43.5 61.5q36 -18 23 -42q-39 -70 -92 -149t-119.5 -151t-104.5 -73z" />
    <glyph glyph-name="Iogonek" unicode="&#x12e;" horiz-adv-x="388" 
d="M67 -226q-16 0 -27.5 15.5t-16.5 35.5q-39 25 -39 68q0 26 26.5 55t61.5 48q-26 10 -46 35t-21 54q104 -7 195 106q-109 36 -109 156q0 72 31 152.5t89 139.5t125 59q38 0 62 -19.5t23 -47.5q38 -22 38 -68q0 -102 -47.5 -223.5t-122.5 -217t-149 -124.5
q-28 -15 -57 -57.5t-36 -96.5q69 8 121 69q24 -6 24 -32q0 -28 -46.5 -67.5t-78.5 -39.5zM196 288q0 -54 18 -79q61 82 99 195t43 216q-65 -28 -112.5 -126.5t-47.5 -205.5z" />
    <glyph glyph-name="iogonek" unicode="&#x12f;" horiz-adv-x="267" 
d="M220 474q-34 0 -46 22.5t-9 40.5q-3 7 -3 17q0 30 30 58t72 28q32 0 52 -14.5t24.5 -28t2.5 -19.5q-23 5 -48 2q20 -14 20 -46q0 -17 -29 -38.5t-66 -21.5zM203 532q57 3 73 44q-47 -15 -73 -44zM83 -202q-16 0 -27.5 15.5t-16.5 35.5q-39 25 -39 68q0 22 20 47.5
t49 44.5q-21 21 -30 56q-39 14 -43 55q-4 36 55 152t109 179q23 0 51.5 -21t28.5 -35q0 -8 -23 -44.5t-61.5 -105.5t-66.5 -141q37 12 78 42.5t68.5 57t67.5 76.5t51.5 66.5l43.5 61.5q36 -18 23 -42q-61 -109 -149.5 -226t-145.5 -142q-54 -56 -63 -130q69 8 121 69
q24 -6 24 -32q0 -28 -46.5 -67.5t-78.5 -39.5z" />
    <glyph glyph-name="Idotaccent" unicode="&#x130;" horiz-adv-x="388" 
d="M382 777q-15 -15 -44.5 -11.5t-37.5 23.5q-26 11 -26 32q0 47 48 95q18 15 44.5 10t35.5 -22q27 -13 27 -32q0 -25 -13.5 -51.5t-33.5 -43.5zM97 -9q-31 0 -60.5 28.5t-31.5 65.5q104 -7 195 106q-109 36 -109 156q0 72 31 152.5t89 139.5t125 59q38 0 62 -19.5t23 -47.5
q38 -22 38 -68q0 -103 -54 -237.5t-140.5 -234.5t-167.5 -100zM196 288q0 -54 18 -79q61 82 99 195t43 216q-65 -28 -112.5 -126.5t-47.5 -205.5z" />
    <glyph glyph-name="dotlessi" unicode="&#x131;" horiz-adv-x="267" 
d="M105 -7q-23 -1 -40.5 21t-25.5 51q-39 14 -43 55q-4 36 55 152t109 179q23 0 51.5 -21t28.5 -35q0 -8 -23 -44.5t-61.5 -105.5t-66.5 -141q37 12 78 42.5t68.5 57t67.5 76.5t51.5 66.5l43.5 61.5q36 -18 23 -42q-39 -70 -92 -149t-119.5 -151t-104.5 -73z" />
    <glyph glyph-name="Jcircumflex" unicode="&#x134;" horiz-adv-x="413" 
d="M492 747q-16 0 -44.5 24.5t-53.5 59.5l-108 -82q-13 11 -13 29q0 24 56 74.5t82 50.5q7 0 17.5 -10t23.5 -28l24.5 -34.5l25 -36.5t18.5 -28q-14 -19 -28 -19zM76 -92q-25 0 -45 16.5t-21 44.5q-21 3 -36.5 20t-17.5 45q-3 53 58.5 99t169.5 61q-97 48 -97 159
q0 49 19.5 108t53 112t84.5 88.5t107 35.5q33 0 55 -18t26 -45q37 -18 37 -63q0 -105 -60.5 -261.5t-155.5 -279t-177 -122.5zM194 306q0 -78 39 -102q54 99 91.5 212.5t45.5 197.5q-74 -35 -125 -131.5t-51 -176.5zM23 -12q84 11 175 156q-82 -16 -120.5 -54t-54.5 -102z
" />
    <glyph glyph-name="jcircumflex" unicode="&#x135;" horiz-adv-x="257" 
d="M322 509q-16 0 -44.5 24.5t-53.5 59.5l-108 -82q-13 11 -13 29q0 24 56 74.5t82 50.5q7 0 17.5 -10t23.5 -28l24.5 -34.5l25 -36.5t18.5 -28q-14 -19 -28 -19zM-60 -278q-56 0 -78 35.5t-2 81.5q18 42 86 110q43 118 109.5 275t99.5 227q34 -2 59 -13.5t25 -26.5
q0 -21 -23.5 -74t-63.5 -132t-53 -107l-9 -20q178 159 283 303q9 0 20 -13.5t3 -28.5q-60 -112 -150 -209.5t-233 -223.5q-44 -101 -73 -184z" />
    <glyph glyph-name="Kcommaaccent" unicode="&#x136;" horiz-adv-x="507" 
d="M364 -4q-11 0 -20 4q-42 6 -91.5 74.5t-56.5 185.5q-59 -135 -93 -260q-32 0 -59.5 17t-27.5 53q0 55 79.5 253.5t166.5 364.5q29 0 64.5 -17.5t35.5 -44.5q0 -12 -16 -47l-51.5 -107.5l-60.5 -126.5q77 36 135.5 98.5t87.5 124.5t40 125q45 -8 66.5 -31t21.5 -68
q0 -83 -86.5 -192.5t-205.5 -137.5q27 -110 84 -145q38 20 77 53t78.5 80l58.5 71t51 68q4 -2 9 -6t11.5 -14.5t-0.5 -20.5q-34 -65 -85 -142t-113.5 -144t-99.5 -68zM94 -178q-16 -15 -43.5 -22t-49.5 0q16 15 35 49q-36 12 -36 35q0 35 43 78q19 17 49.5 9t30.5 -28
q24 -7 24 -23q0 -23 -17 -52.5t-36 -45.5z" />
    <glyph glyph-name="kcommaaccent" unicode="&#x137;" horiz-adv-x="434" 
d="M267 -1q-41 0 -76.5 44t-40.5 109q-12 6 -17 11l-70 -167q-30 0 -51.5 20t-21.5 49q0 13 10.5 44t26.5 69t40.5 90l45.5 96.5l48.5 100l44.5 88l37.5 73l22.5 44.5q38 0 63 -18t25 -42q0 -27 -46 -97t-89 -125l5 -4q69 83 114 83q39 0 51 -35q41 -9 49 -52q5 -32 -29 -86
t-87 -97.5t-95 -45.5l14 -53q129 25 286 244q4 6 43 61q35 -18 23 -42q-33 -67 -87.5 -147t-123.5 -147.5t-115 -67.5zM169 215q58 7 111 65t73 123q-58 -18 -109.5 -73.5t-74.5 -114.5zM94 -178q-16 -15 -43.5 -22t-49.5 0q16 15 35 49q-36 12 -36 35q0 35 43 78
q19 17 49.5 9t30.5 -28q24 -7 24 -23q0 -23 -17 -52.5t-36 -45.5z" />
    <glyph glyph-name="Lacute" unicode="&#x139;" horiz-adv-x="435" 
d="M396 752q-9 23 40 88.5t75 70.5q17 3 44 -17.5t35 -39.5q-33 -15 -165 -113q-22 -6 -29 11zM324 -4q-73 12 -171 8t-174 -22q-13 6 -13.5 42.5t17.5 49.5q30 12 66 21q-17 24 -16 68q4 94 61 217t140 213.5t153 90.5q26 0 43 -12.5t20 -32.5q64 -17 64 -75
q0 -64 -50 -153t-126.5 -157t-142.5 -68q-32 0 -43 34q-19 -53 -28 -111q81 13 138 13q93 0 90 -57q-1 -16 -9.5 -37.5t-18.5 -31.5zM167 262q76 18 160.5 134.5t96.5 221.5q-68 -47 -140.5 -145.5t-116.5 -210.5z" />
    <glyph glyph-name="lacute" unicode="&#x13a;" horiz-adv-x="334" 
d="M336 742q-9 23 40 88.5t75 70.5q17 3 44 -17.5t35 -39.5q-33 -15 -165 -113q-22 -6 -29 11zM496 365q-54 -116 -180.5 -244t-187.5 -128q-40 0 -63.5 31.5t-26.5 64.5q-29 18 -29 63q0 81 56.5 209.5t133 226t126.5 97.5q20 0 39 -15t19 -32l-3 -3q43 -21 43 -60
q0 -57 -51.5 -141t-117 -145.5t-104.5 -61.5q-13 0 -23 10q-29 -76 -40 -137q170 34 386 308q10 -4 17.5 -15.5t5.5 -27.5zM149 291q57 46 126.5 148.5t84.5 173.5q-132 -148 -211 -322z" />
    <glyph glyph-name="Lcommaaccent" unicode="&#x13b;" horiz-adv-x="435" 
d="M324 -4q-73 12 -171 8t-174 -22q-13 6 -13.5 42.5t17.5 49.5q30 12 66 21q-17 24 -16 68q4 94 61 217t140 213.5t153 90.5q26 0 43 -12.5t20 -32.5q64 -17 64 -75q0 -64 -50 -153t-126.5 -157t-142.5 -68q-32 0 -43 34q-19 -53 -28 -111q81 13 138 13q93 0 90 -57
q-1 -16 -9.5 -37.5t-18.5 -31.5zM167 262q76 18 160.5 134.5t96.5 221.5q-68 -47 -140.5 -145.5t-116.5 -210.5zM94 -178q-16 -15 -43.5 -22t-49.5 0q16 15 35 49q-36 12 -36 35q0 35 43 78q19 17 49.5 9t30.5 -28q24 -7 24 -23q0 -23 -17 -52.5t-36 -45.5z" />
    <glyph glyph-name="lcommaaccent" unicode="&#x13c;" horiz-adv-x="334" 
d="M496 365q-54 -116 -180.5 -244t-187.5 -128q-40 0 -63.5 31.5t-26.5 64.5q-29 18 -29 63q0 81 56.5 209.5t133 226t126.5 97.5q20 0 39 -15t19 -32l-3 -3q43 -21 43 -60q0 -57 -51.5 -141t-117 -145.5t-104.5 -61.5q-13 0 -23 10q-29 -76 -40 -137q170 34 386 308
q10 -4 17.5 -15.5t5.5 -27.5zM149 291q57 46 126.5 148.5t84.5 173.5q-132 -148 -211 -322zM94 -178q-16 -15 -43.5 -22t-49.5 0q16 15 35 49q-36 12 -36 35q0 35 43 78q19 17 49.5 9t30.5 -28q24 -7 24 -23q0 -23 -17 -52.5t-36 -45.5z" />
    <glyph glyph-name="Lcaron" unicode="&#x13d;" horiz-adv-x="435" 
d="M419 741q-7 0 -17.5 10t-23.5 28l-24.5 34.5l-25 36.5t-18.5 28q14 19 28 19q16 0 44.5 -24.5t53.5 -59.5l108 82q13 -11 13 -29q0 -24 -56 -74.5t-82 -50.5zM324 -4q-73 12 -171 8t-174 -22q-13 6 -13.5 42.5t17.5 49.5q30 12 66 21q-17 24 -16 68q4 94 61 217
t140 213.5t153 90.5q26 0 43 -12.5t20 -32.5q64 -17 64 -75q0 -64 -50 -153t-126.5 -157t-142.5 -68q-32 0 -43 34q-19 -53 -28 -111q81 13 138 13q93 0 90 -57q-1 -16 -9.5 -37.5t-18.5 -31.5zM167 262q76 18 160.5 134.5t96.5 221.5q-68 -47 -140.5 -145.5t-116.5 -210.5z
" />
    <glyph glyph-name="lcaron" unicode="&#x13e;" horiz-adv-x="334" 
d="M394 706q-7 0 -17.5 10t-23.5 28l-24.5 34.5l-25 36.5t-18.5 28q14 19 28 19q16 0 44.5 -24.5t53.5 -59.5l108 82q13 -11 13 -29q0 -24 -56 -74.5t-82 -50.5zM496 365q-54 -116 -180.5 -244t-187.5 -128q-40 0 -63.5 31.5t-26.5 64.5q-29 18 -29 63q0 81 56.5 209.5
t133 226t126.5 97.5q20 0 39 -15t19 -32l-3 -3q43 -21 43 -60q0 -57 -51.5 -141t-117 -145.5t-104.5 -61.5q-13 0 -23 10q-29 -76 -40 -137q170 34 386 308q10 -4 17.5 -15.5t5.5 -27.5zM149 291q57 46 126.5 148.5t84.5 173.5q-132 -148 -211 -322z" />
    <glyph glyph-name="Ldot" unicode="&#x13f;" horiz-adv-x="443" 
d="M303 3q-130 12 -254 -20q-8 4 -11.5 25t0.5 41q-22 19 -22 45q0 12 21 65.5t55 130.5l66.5 148.5l68 148.5l46.5 101q38 0 71.5 -17t33.5 -42q0 -33 -231 -519q61 18 94 18q90 0 90 -57q0 -40 -28 -68zM418 295q-15 -15 -44.5 -11.5t-37.5 23.5q-26 11 -26 32q0 47 48 95
q18 15 44.5 10t35.5 -22q27 -13 27 -32q0 -25 -13.5 -51.5t-33.5 -43.5z" />
    <glyph glyph-name="ldot" unicode="&#x140;" horiz-adv-x="344" 
d="M128 -7q-40 0 -63.5 31.5t-26.5 64.5q-29 18 -29 63q0 78 61.5 209t131 227.5t96.5 96.5q21 0 44.5 -15t23.5 -32q0 -14 -37.5 -77l-85 -137.5t-94.5 -167.5t-62 -156q171 36 386 308q10 -4 17.5 -15.5t5.5 -27.5q-54 -116 -180.5 -244t-187.5 -128zM432 471
q-13 -12 -37.5 -9t-26.5 18q-21 10 -21 26q0 36 38 74q13 12 34.5 8t28.5 -17q21 -11 21 -25q0 -19 -10.5 -40.5t-26.5 -34.5z" />
    <glyph glyph-name="Lslash" unicode="&#x141;" horiz-adv-x="383" 
d="M303 3q-130 12 -254 -20q-8 4 -11.5 25t0.5 41q-22 19 -22 45q0 21 56 150l-132 -72q-12 12 -11 20t12 23q25 33 171 119l161 354q38 0 71.5 -17t33.5 -42q0 -20 -77 -190l153 82q25 -20 6 -47q-17 -22 -201 -127l-112 -237q61 18 94 18q90 0 90 -57q0 -40 -28 -68z" />
    <glyph glyph-name="lslash" unicode="&#x142;" horiz-adv-x="344" 
d="M496 365q-54 -116 -180.5 -244t-187.5 -128q-40 0 -63.5 31.5t-26.5 64.5q-29 18 -29 63q0 61 36 158l-90 -49q-9 6 -10.5 12t1 10.5t10.5 15.5q22 29 123 91q56 118 127.5 206.5t118.5 88.5q20 0 39 -15t19 -32l-4 -3q44 -21 44 -55l46 25q23 -19 6 -42q-12 -13 -63 -46
q-32 -92 -121.5 -191t-140.5 -99q-14 0 -25 11q-26 -73 -38 -138q170 34 386 308q10 -4 17.5 -15.5t5.5 -27.5zM249 487l86 47q23 49 27 87q-58 -51 -113 -134zM144 286q67 46 139 156l-91 -51q-30 -60 -48 -105z" />
    <glyph glyph-name="Nacute" unicode="&#x143;" horiz-adv-x="547" 
d="M435 752q-9 23 40 88.5t75 70.5q17 3 44 -17.5t35 -39.5q-33 -15 -165 -113q-22 -6 -29 11zM385 -7q-24 -1 -42.5 27.5t-24.5 61.5q-33 16 -37 60q-3 31 18.5 91t48.5 115l64 126q10 17 14 26q-80 -88 -171.5 -223t-152.5 -277q-29 0 -57.5 24t-28.5 69q0 39 82.5 243.5
t147.5 343.5q34 0 62 -19t28 -47q0 -17 -19 -62.5t-59.5 -131.5l-52.5 -112q88 126 191 247t131 121q29 0 55.5 -22t28.5 -41l-53 -100l-59.5 -112.5l-47 -94.5t-47 -107t-28.5 -88q40 11 81.5 38t70 53t64 69t49.5 62.5l41 57.5q34 -17 22 -41q-32 -61 -90 -141.5
t-124.5 -147.5t-104.5 -68z" />
    <glyph glyph-name="nacute" unicode="&#x144;" horiz-adv-x="460" 
d="M303 522q-9 23 40 88.5t75 70.5q17 3 44 -17.5t35 -39.5q-33 -15 -165 -113q-22 -6 -29 11zM299 -7q-26 0 -44.5 25.5t-24.5 56.5q-18 17 -21 42q-5 55 92 228q-147 -132 -252 -345q-25 0 -42 25t-17 55q0 12 3.5 26.5t11.5 35l12.5 32t16.5 37t14 30.5q30 68 63 134
t37 76q76 0 76 -44q0 -22 -68 -132q70 80 138 133.5t99 53.5q20 0 42.5 -20t23.5 -34q-88 -150 -146 -292q33 16 69.5 45.5t63 56.5t60 69t47.5 61l39 55q13 -5 20.5 -16.5t2.5 -25.5q-16 -43 -74 -129.5t-130 -162.5t-112 -76z" />
    <glyph glyph-name="Ncommaaccent" unicode="&#x145;" horiz-adv-x="547" 
d="M385 -7q-24 -1 -42.5 27.5t-24.5 61.5q-33 16 -37 60q-3 31 18.5 91t48.5 115l64 126q10 17 14 26q-80 -88 -171.5 -223t-152.5 -277q-29 0 -57.5 24t-28.5 69q0 39 82.5 243.5t147.5 343.5q34 0 62 -19t28 -47q0 -17 -19 -62.5t-59.5 -131.5l-52.5 -112q88 126 191 247
t131 121q29 0 55.5 -22t28.5 -41l-53 -100l-59.5 -112.5l-47 -94.5t-47 -107t-28.5 -88q40 11 81.5 38t70 53t64 69t49.5 62.5l41 57.5q34 -17 22 -41q-32 -61 -90 -141.5t-124.5 -147.5t-104.5 -68zM205 -178q-16 -15 -43.5 -22t-49.5 0q16 15 35 49q-36 12 -36 35
q0 35 43 78q20 17 50 9t30 -28q24 -7 24 -23q0 -23 -17 -52.5t-36 -45.5z" />
    <glyph glyph-name="ncommaaccent" unicode="&#x146;" horiz-adv-x="460" 
d="M299 -7q-26 0 -44.5 25.5t-24.5 56.5q-18 17 -21 42q-5 55 92 228q-147 -132 -252 -345q-25 0 -42 25t-17 55q0 12 3.5 26.5t11.5 35l12.5 32t16.5 37t14 30.5q30 68 63 134t37 76q76 0 76 -44q0 -22 -68 -132q70 80 138 133.5t99 53.5q20 0 42.5 -20t23.5 -34
q-88 -150 -146 -292q33 16 69.5 45.5t63 56.5t60 69t47.5 61l39 55q13 -5 20.5 -16.5t2.5 -25.5q-16 -43 -74 -129.5t-130 -162.5t-112 -76zM94 -178q-16 -15 -43.5 -22t-49.5 0q16 15 35 49q-36 12 -36 35q0 35 43 78q19 17 49.5 9t30.5 -28q24 -7 24 -23q0 -23 -17 -52.5
t-36 -45.5z" />
    <glyph glyph-name="Ncaron" unicode="&#x147;" horiz-adv-x="547" 
d="M458 741q-7 0 -17.5 10t-23.5 28l-24.5 34.5l-25 36.5t-18.5 28q14 19 28 19q16 0 44.5 -24.5t53.5 -59.5l108 82q13 -11 13 -29q0 -24 -56 -74.5t-82 -50.5zM385 -7q-24 -1 -42.5 27.5t-24.5 61.5q-33 16 -37 60q-3 31 18.5 91t48.5 115l64 126q10 17 14 26
q-80 -88 -171.5 -223t-152.5 -277q-29 0 -57.5 24t-28.5 69q0 39 82.5 243.5t147.5 343.5q34 0 62 -19t28 -47q0 -17 -19 -62.5t-59.5 -131.5l-52.5 -112q88 126 191 247t131 121q29 0 55.5 -22t28.5 -41l-53 -100l-59.5 -112.5l-47 -94.5t-47 -107t-28.5 -88q40 11 81.5 38
t70 53t64 69t49.5 62.5l41 57.5q34 -17 22 -41q-32 -61 -90 -141.5t-124.5 -147.5t-104.5 -68z" />
    <glyph glyph-name="ncaron" unicode="&#x148;" horiz-adv-x="460" 
d="M326 511q-7 0 -17.5 10t-23.5 28l-24.5 34.5l-25 36.5t-18.5 28q14 19 28 19q16 0 44.5 -24.5t53.5 -59.5l108 82q13 -11 13 -29q0 -24 -56 -74.5t-82 -50.5zM299 -7q-26 0 -44.5 25.5t-24.5 56.5q-18 17 -21 42q-5 55 92 228q-147 -132 -252 -345q-25 0 -42 25t-17 55
q0 12 3.5 26.5t11.5 35l12.5 32t16.5 37t14 30.5q30 68 63 134t37 76q76 0 76 -44q0 -22 -68 -132q70 80 138 133.5t99 53.5q20 0 42.5 -20t23.5 -34q-88 -150 -146 -292q33 16 69.5 45.5t63 56.5t60 69t47.5 61l39 55q13 -5 20.5 -16.5t2.5 -25.5q-16 -43 -74 -129.5
t-130 -162.5t-112 -76z" />
    <glyph glyph-name="Eng" unicode="&#x14a;" horiz-adv-x="563" 
d="M193 -251q-35 0 -45 21q-41 10 -70 35t-30 59q1 34 21 58t44 24q32 0 57 -29q-29 -38 -29 -98v-5q19 0 34.5 16.5t23 33t22.5 55.5q5 12 7 18q16 40 66 174t87.5 224t78.5 167q-123 -109 -218.5 -244.5t-133.5 -264.5q-26 0 -59 20t-33 43q0 56 84 267.5t155 364.5
q34 0 66.5 -23.5t33.5 -52.5q2 -16 -19 -60.5t-64 -123t-58 -109.5q88 119 200.5 240t140.5 121q30 0 55 -22t28 -42q-78 -160 -139 -302.5t-165 -406.5q-62 -158 -141 -158z" />
    <glyph glyph-name="eng" unicode="&#x14b;" horiz-adv-x="442" 
d="M123 -283q-56 0 -78 35.5t-2 81.5q20 45 91 115q61 148 194 421q-173 -154 -279 -370q-25 0 -42 25t-17 55q0 12 3.5 26.5t11.5 35l12.5 32t16.5 37t14 30.5q30 68 63 134t37 76q76 0 76 -44q0 -24 -74 -149q72 85 142.5 144.5t100.5 59.5q20 0 42.5 -20t23.5 -34
q-32 -72 -85.5 -170.5t-71.5 -138.5q157 145 254 277q9 0 20 -13.5t3 -28.5q-58 -109 -145 -204t-223 -215q-66 -134 -88 -198z" />
    <glyph glyph-name="Omacron" unicode="&#x14c;" horiz-adv-x="488" 
d="M325 778q-44 0 -59.5 11.5t-15.5 43.5q0 14 4.5 19.5t16.5 6.5l191 9q44 2 60.5 -12.5t16.5 -51.5q0 -16 -4 -21t-16 -5h-194zM185 -25q-84 0 -88 73q-39 15 -61.5 48.5t-22.5 80.5q0 72 32.5 164.5t94.5 175t134 106.5q61 75 115 75q67 0 81 -59q32 -9 46.5 -45
t14.5 -81q0 -97 -51.5 -223.5t-134.5 -220.5t-160 -94zM119 130q0 -39 12 -65q79 19 152 113t115 206.5t52 210.5q-49 -16 -105.5 -86t-107.5 -169q-35 0 -48 20q-70 -125 -70 -230z" />
    <glyph glyph-name="omacron" unicode="&#x14d;" horiz-adv-x="400" 
d="M192 548q-44 0 -59.5 11.5t-15.5 43.5q0 14 4.5 19.5t16.5 6.5l191 9q44 2 60.5 -12.5t16.5 -51.5q0 -16 -4 -21t-16 -5h-194zM296 70q-14 0 -31 9q-67 -86 -128 -86t-67 59q-61 13 -61 95q0 69 38.5 144.5t97 125.5t112.5 50t61 -40q53 -25 53 -92q0 -74 -53 -175
q53 42 114 109t100 134q34 -17 22 -46q-24 -57 -65 -120.5t-95.5 -115t-97.5 -51.5zM245 305q-2 -44 7 -89q50 103 50 204q-21 -10 -38.5 -42t-18.5 -73zM180 267q0 24 10 54q-79 -110 -94 -250q60 11 110 73q-26 54 -26 123z" />
    <glyph glyph-name="Obreve" unicode="&#x14e;" horiz-adv-x="488" 
d="M391 729q-45 0 -49 39q-19 4 -34 16t-15 33q0 44 38 107q58 0 62 -38q0 -11 -4.5 -25t-14.5 -38t-15 -38q43 7 74.5 45t45.5 79q17 0 33.5 -13.5t16.5 -31.5q0 -35 -40 -85t-98 -50zM185 -25q-84 0 -88 73q-39 15 -61.5 48.5t-22.5 80.5q0 72 32.5 164.5t94.5 175
t134 106.5q61 75 115 75q67 0 81 -59q32 -9 46.5 -45t14.5 -81q0 -97 -51.5 -223.5t-134.5 -220.5t-160 -94zM119 130q0 -39 12 -65q79 19 152 113t115 206.5t52 210.5q-49 -16 -105.5 -86t-107.5 -169q-35 0 -48 20q-70 -125 -70 -230z" />
    <glyph glyph-name="obreve" unicode="&#x14f;" horiz-adv-x="400" 
d="M258 499q-45 0 -49 39q-19 4 -34 16t-15 33q0 44 38 107q58 0 62 -38q0 -11 -4.5 -25t-14.5 -38t-15 -38q43 7 74.5 45t45.5 79q17 0 33.5 -13.5t16.5 -31.5q0 -35 -40 -85t-98 -50zM296 70q-14 0 -31 9q-67 -86 -128 -86t-67 59q-61 13 -61 95q0 69 38.5 144.5t97 125.5
t112.5 50t61 -40q53 -25 53 -92q0 -74 -53 -175q53 42 114 109t100 134q34 -17 22 -46q-24 -57 -65 -120.5t-95.5 -115t-97.5 -51.5zM245 305q-2 -44 7 -89q50 103 50 204q-21 -10 -38.5 -42t-18.5 -73zM180 267q0 24 10 54q-79 -110 -94 -250q60 11 110 73q-26 54 -26 123z
" />
    <glyph glyph-name="Ohungarumlaut" unicode="&#x150;" horiz-adv-x="488" 
d="M278 752q-9 23 40 88.5t75 70.5q17 3 44 -17.5t35 -39.5q-33 -15 -165 -113q-22 -6 -29 11zM456 752q-9 23 40 88.5t75 70.5q17 3 44 -17.5t35 -39.5q-33 -15 -165 -113q-22 -6 -29 11zM185 -25q-84 0 -88 73q-39 15 -61.5 48.5t-22.5 80.5q0 72 32.5 164.5t94.5 175
t134 106.5q61 75 115 75q67 0 81 -59q32 -9 46.5 -45t14.5 -81q0 -97 -51.5 -223.5t-134.5 -220.5t-160 -94zM119 130q0 -39 12 -65q79 19 152 113t115 206.5t52 210.5q-49 -16 -105.5 -86t-107.5 -169q-35 0 -48 20q-70 -125 -70 -230z" />
    <glyph glyph-name="ohungarumlaut" unicode="&#x151;" horiz-adv-x="400" 
d="M145 522q-9 23 40 88.5t75 70.5q17 3 44 -17.5t35 -39.5q-33 -15 -165 -113q-22 -6 -29 11zM323 522q-9 23 40 88.5t75 70.5q17 3 44 -17.5t35 -39.5q-33 -15 -165 -113q-22 -6 -29 11zM296 70q-14 0 -31 9q-67 -86 -128 -86t-67 59q-61 13 -61 95q0 69 38.5 144.5
t97 125.5t112.5 50t61 -40q53 -25 53 -92q0 -74 -53 -175q53 42 114 109t100 134q34 -17 22 -46q-24 -57 -65 -120.5t-95.5 -115t-97.5 -51.5zM245 305q-2 -44 7 -89q50 103 50 204q-21 -10 -38.5 -42t-18.5 -73zM180 267q0 24 10 54q-79 -110 -94 -250q60 11 110 73
q-26 54 -26 123z" />
    <glyph glyph-name="OE" unicode="&#x152;" horiz-adv-x="754" 
d="M390 -10l-3 3q-23 4 -43 19t-25 42q-70 -67 -134 -67q-84 0 -88 73q-39 15 -61.5 48.5t-22.5 80.5q0 72 32.5 164.5t94.5 175t134 106.5q61 75 115 75q67 0 81 -59q36 -11 51 -59l25 45q5 24 15 36q110 23 198 23q93 0 90 -57q-1 -15 -9.5 -36.5t-18.5 -31.5
q-74 4 -180 -8q-41 -76 -80 -165q80 12 97 12q52 0 71.5 -7t18.5 -34q-1 -15 -9.5 -36.5t-18.5 -31.5q-120 3 -207 -16l-67 -169q68 11 140 11q30 0 48 -14t17 -42q-1 -15 -9.5 -36.5t-18.5 -31.5q-35 0 -233 -13zM119 142q0 -39 12 -65q79 19 152 113t115 206.5t52 210.5
q-49 -16 -105.5 -86t-107.5 -169q-35 0 -48 20q-70 -125 -70 -230z" />
    <glyph glyph-name="oe" unicode="&#x153;" horiz-adv-x="619" 
d="M773 358q-33 -66 -94 -149t-136 -151t-125 -68q-49 0 -83.5 28t-43.5 77q-5 3 -12 10q-77 -112 -147 -112q-61 0 -67 60q-56 16 -56 94q0 69 38.5 144.5t97 125.5t112.5 50t62 -42q21 -10 35 -37q76 79 146 79q69 0 80 -51q31 -18 31 -48q0 -64 -66.5 -133.5
t-122.5 -69.5q-18 0 -33.5 12t-22.5 27q-21 -54 -23 -104q17 -5 29 -5q177 -6 378 305q8 0 19.5 -13t3.5 -29zM240 305q-3 -31 7 -89q50 103 50 204q-18 -7 -36.5 -37t-20.5 -78zM373 221q44 11 99 69t77 112q-52 -14 -99.5 -64.5t-76.5 -116.5zM175 267q0 20 6 41
q-70 -105 -85 -235q58 13 105 71q-26 55 -26 123z" />
    <glyph glyph-name="Racute" unicode="&#x154;" horiz-adv-x="507" 
d="M378 752q-9 23 40 88.5t75 70.5q17 3 44 -17.5t35 -39.5q-33 -15 -165 -113q-22 -6 -29 11zM364 -4q-11 0 -20 4q-39 6 -86.5 67t-59.5 166q-75 -153 -108 -237q-27 0 -54 19.5t-27 57.5q0 43 79 207.5t167 314.5q-69 -11 -125 -35q-19 15 -26 37.5t9 49.5
q50 43 171.5 54.5t200.5 -17.5q30 -13 49 -52q24 -12 35.5 -25t15.5 -37q4 -42 -32 -107t-106.5 -128t-149.5 -86q28 -99 80 -130q38 20 77 53t78.5 80l58.5 71t51 68q4 -2 9 -6t11.5 -14.5t-0.5 -20.5q-34 -65 -85 -142t-113.5 -144t-99.5 -68zM363 580q0 -5 -5.5 -19
t-19 -42l-25 -51.5l-34 -69.5l-35.5 -73q91 43 154.5 115.5t95.5 153.5q-58 12 -136 10q5 -12 5 -24z" />
    <glyph glyph-name="racute" unicode="&#x155;" horiz-adv-x="358" 
d="M283 522q-9 23 40 88.5t75 70.5q17 3 44 -17.5t35 -39.5q-33 -15 -165 -113q-22 -6 -29 11zM203 -7q-49 0 -67 67q-43 21 -43 71q0 56 105 211q-26 6 -49 18q-61 -105 -124 -178q-1 -10 -9 1q-19 23 -6 53l4 8q32 38 99 141q-22 20 -22 40q0 26 27.5 67.5t51.5 41.5
q22 0 40 -14t18 -27q-4 -13 -31 -59q49 -17 105 -16q9 3 22 -13t12 -29q-79 -127 -142 -264q44 16 88 50t88.5 86.5t64 78t55.5 76.5q36 -18 22 -42q-39 -72 -90 -149t-115.5 -148t-103.5 -71z" />
    <glyph glyph-name="Rcommaaccent" unicode="&#x156;" horiz-adv-x="507" 
d="M364 -4q-11 0 -20 4q-39 6 -86.5 67t-59.5 166q-75 -153 -108 -237q-27 0 -54 19.5t-27 57.5q0 43 79 207.5t167 314.5q-69 -11 -125 -35q-19 15 -26 37.5t9 49.5q50 43 171.5 54.5t200.5 -17.5q30 -13 49 -52q24 -12 35.5 -25t15.5 -37q4 -42 -32 -107t-106.5 -128
t-149.5 -86q28 -99 80 -130q38 20 77 53t78.5 80l58.5 71t51 68q4 -2 9 -6t11.5 -14.5t-0.5 -20.5q-34 -65 -85 -142t-113.5 -144t-99.5 -68zM363 580q0 -5 -5.5 -19t-19 -42l-25 -51.5l-34 -69.5l-35.5 -73q91 43 154.5 115.5t95.5 153.5q-58 12 -136 10q5 -12 5 -24z
M193 -178q-16 -15 -43.5 -22t-49.5 0q16 15 35 49q-36 12 -36 35q0 35 43 78q20 17 50 9t30 -28q24 -7 24 -23q0 -23 -17 -52.5t-36 -45.5z" />
    <glyph glyph-name="rcommaaccent" unicode="&#x157;" horiz-adv-x="358" 
d="M203 -7q-49 0 -67 67q-43 21 -43 71q0 56 105 211q-26 6 -49 18q-61 -105 -124 -178q-1 -10 -9 1q-19 23 -6 53l4 8q32 38 99 141q-22 20 -22 40q0 26 27.5 67.5t51.5 41.5q22 0 40 -14t18 -27q-4 -13 -31 -59q49 -17 105 -16q9 3 22 -13t12 -29q-79 -127 -142 -264
q44 16 88 50t88.5 86.5t64 78t55.5 76.5q36 -18 22 -42q-39 -72 -90 -149t-115.5 -148t-103.5 -71zM94 -178q-16 -15 -43.5 -22t-49.5 0q16 15 35 49q-36 12 -36 35q0 35 43 78q19 17 49.5 9t30.5 -28q24 -7 24 -23q0 -23 -17 -52.5t-36 -45.5z" />
    <glyph glyph-name="Rcaron" unicode="&#x158;" horiz-adv-x="507" 
d="M401 741q-7 0 -17.5 10t-23.5 28l-24.5 34.5l-25 36.5t-18.5 28q14 19 28 19q16 0 44.5 -24.5t53.5 -59.5l108 82q13 -11 13 -29q0 -24 -56 -74.5t-82 -50.5zM364 -4q-11 0 -20 4q-39 6 -86.5 67t-59.5 166q-75 -153 -108 -237q-27 0 -54 19.5t-27 57.5q0 43 79 207.5
t167 314.5q-69 -11 -125 -35q-19 15 -26 37.5t9 49.5q50 43 171.5 54.5t200.5 -17.5q30 -13 49 -52q24 -12 35.5 -25t15.5 -37q4 -42 -32 -107t-106.5 -128t-149.5 -86q28 -99 80 -130q38 20 77 53t78.5 80l58.5 71t51 68q4 -2 9 -6t11.5 -14.5t-0.5 -20.5q-34 -65 -85 -142
t-113.5 -144t-99.5 -68zM363 580q0 -5 -5.5 -19t-19 -42l-25 -51.5l-34 -69.5l-35.5 -73q91 43 154.5 115.5t95.5 153.5q-58 12 -136 10q5 -12 5 -24z" />
    <glyph glyph-name="rcaron" unicode="&#x159;" horiz-adv-x="358" 
d="M306 511q-7 0 -17.5 10t-23.5 28l-24.5 34.5l-25 36.5t-18.5 28q14 19 28 19q16 0 44.5 -24.5t53.5 -59.5l108 82q13 -11 13 -29q0 -24 -56 -74.5t-82 -50.5zM203 -7q-49 0 -67 67q-43 21 -43 71q0 56 105 211q-26 6 -49 18q-61 -105 -124 -178q-1 -10 -9 1q-19 23 -6 53
l4 8q32 38 99 141q-22 20 -22 40q0 26 27.5 67.5t51.5 41.5q22 0 40 -14t18 -27q-4 -13 -31 -59q49 -17 105 -16q9 3 22 -13t12 -29q-79 -127 -142 -264q44 16 88 50t88.5 86.5t64 78t55.5 76.5q36 -18 22 -42q-39 -72 -90 -149t-115.5 -148t-103.5 -71z" />
    <glyph glyph-name="Sacute" unicode="&#x15a;" horiz-adv-x="423" 
d="M402 752q-9 23 40 88.5t75 70.5q17 3 44 -17.5t35 -39.5q-33 -15 -165 -113q-22 -6 -29 11zM159 -7q-78 0 -132.5 37.5t-50.5 116.5q20 -18 62 -29t88 -11q68 0 98.5 20t30.5 51q0 20 -16 41t-39.5 40.5l-46.5 40.5t-39 50.5t-16 61.5q0 100 92.5 194.5t174.5 94.5
q47 0 64 -30q33 -6 58.5 -30t25.5 -65q0 -78 -50.5 -144.5t-122.5 -66.5q-48 0 -56 37q49 39 88 99.5t46 138.5q-81 -43 -146.5 -122t-65.5 -130q0 -27 26 -56.5t57.5 -52t57.5 -54.5t26 -64q0 -73 -57.5 -120.5t-156.5 -47.5z" />
    <glyph glyph-name="sacute" unicode="&#x15b;" horiz-adv-x="334" 
d="M254 522q-9 23 40 88.5t75 70.5q17 3 44 -17.5t35 -39.5q-33 -15 -165 -113q-22 -6 -29 11zM109 -7q-55 0 -85.5 33.5t-30.5 78.5q0 21 5 35q29 -39 68 -39q37 0 64.5 28.5t27.5 74.5t-25 121q-41 -72 -80.5 -128.5t-56.5 -56.5q-20 0 -28 18.5t4 32.5q55 68 143 191
q-2 10 -2 14q0 27 43.5 70.5t68.5 43.5q17 0 35.5 -20.5t25.5 -50.5q-9 -15 -36 -41.5t-34 -37.5q49 -109 49 -184q0 -14 -1 -20q13 10 27 23l24.5 23.5t25.5 29l23 28t25.5 34l24 33.5l27.5 39l27 39q9 -1 20 -14t3 -30q-52 -101 -111 -185.5t-100 -109.5q-35 -20 -70 -25
q-46 -48 -101 -48z" />
    <glyph glyph-name="Scircumflex" unicode="&#x15c;" horiz-adv-x="423" 
d="M517 747q-16 0 -44.5 24.5t-53.5 59.5l-108 -82q-13 11 -13 29q0 24 56 74.5t82 50.5q7 0 17.5 -10t23.5 -28l24.5 -34.5l25 -36.5t18.5 -28q-14 -19 -28 -19zM159 -7q-78 0 -132.5 37.5t-50.5 116.5q20 -18 62 -29t88 -11q68 0 98.5 20t30.5 51q0 20 -16 41t-39.5 40.5
l-46.5 40.5t-39 50.5t-16 61.5q0 100 92.5 194.5t174.5 94.5q47 0 64 -30q33 -6 58.5 -30t25.5 -65q0 -78 -50.5 -144.5t-122.5 -66.5q-48 0 -56 37q49 39 88 99.5t46 138.5q-81 -43 -146.5 -122t-65.5 -130q0 -27 26 -56.5t57.5 -52t57.5 -54.5t26 -64q0 -73 -57.5 -120.5
t-156.5 -47.5z" />
    <glyph glyph-name="scircumflex" unicode="&#x15d;" horiz-adv-x="334" 
d="M369 517q-16 0 -44.5 24.5t-53.5 59.5l-108 -82q-13 11 -13 29q0 24 56 74.5t82 50.5q7 0 17.5 -10t23.5 -28l24.5 -34.5l25 -36.5t18.5 -28q-14 -19 -28 -19zM109 -7q-55 0 -85.5 33.5t-30.5 78.5q0 21 5 35q29 -39 68 -39q37 0 64.5 28.5t27.5 74.5t-25 121
q-41 -72 -80.5 -128.5t-56.5 -56.5q-20 0 -28 18.5t4 32.5q55 68 143 191q-2 10 -2 14q0 27 43.5 70.5t68.5 43.5q17 0 35.5 -20.5t25.5 -50.5q-9 -15 -36 -41.5t-34 -37.5q49 -109 49 -184q0 -14 -1 -20q13 10 27 23l24.5 23.5t25.5 29l23 28t25.5 34l24 33.5l27.5 39
l27 39q9 -1 20 -14t3 -30q-52 -101 -111 -185.5t-100 -109.5q-35 -20 -70 -25q-46 -48 -101 -48z" />
    <glyph glyph-name="Scedilla" unicode="&#x15e;" horiz-adv-x="423" 
d="M181 -148q-30 -33 -73 -27q-39 -22 -74 4q-27 21 -32.5 55.5t14.5 65.5q18 23 40 10q6 -65 45 -105q39 61 35 139q-70 5 -116.5 42.5t-43.5 110.5q20 -18 62 -29t88 -11q68 0 98.5 20t30.5 51q0 20 -16 41t-39.5 40.5l-46.5 40.5t-39 50.5t-16 61.5q0 100 92.5 194.5
t174.5 94.5q47 0 64 -30q33 -6 58.5 -30t25.5 -65q0 -78 -50.5 -144.5t-122.5 -66.5q-48 0 -56 37q49 39 88 99.5t46 138.5q-81 -43 -146.5 -122t-65.5 -130q0 -27 26 -56.5t57.5 -52t57.5 -54.5t26 -64q0 -69 -53 -116.5t-145 -51.5q17 -36 20 -77t-14 -64z" />
    <glyph glyph-name="scedilla" unicode="&#x15f;" horiz-adv-x="334" 
d="M181 -148q-30 -33 -73 -27q-39 -22 -74 4q-27 21 -32.5 55.5t14.5 65.5q18 23 40 10q6 -65 45 -105q41 65 35 141q-14 -3 -27 -3q-55 0 -85.5 33.5t-30.5 78.5q0 21 5 35q29 -39 68 -39q37 0 64.5 28.5t27.5 74.5t-25 121q-41 -72 -80.5 -128.5t-56.5 -56.5
q-20 0 -28 18.5t4 32.5q55 68 143 191q-2 10 -2 14q0 27 43.5 70.5t68.5 43.5q17 0 35.5 -20.5t25.5 -50.5q-9 -15 -36 -41.5t-34 -37.5q49 -109 49 -184q0 -14 -1 -20q13 10 27 23l24.5 23.5t25.5 29l23 28t25.5 34l24 33.5l27.5 39l27 39q9 -1 20 -14t3 -30
q-52 -101 -111 -185.5t-100 -109.5q-35 -20 -70 -25q-18 -18 -43 -33q22 -35 27.5 -82.5t-13.5 -73.5z" />
    <glyph glyph-name="Scaron" unicode="&#x160;" horiz-adv-x="423" 
d="M425 741q-7 0 -17.5 10t-23.5 28l-24.5 34.5l-25 36.5t-18.5 28q14 19 28 19q16 0 44.5 -24.5t53.5 -59.5l108 82q13 -11 13 -29q0 -24 -56 -74.5t-82 -50.5zM159 -7q-78 0 -132.5 37.5t-50.5 116.5q20 -18 62 -29t88 -11q68 0 98.5 20t30.5 51q0 20 -16 41t-39.5 40.5
l-46.5 40.5t-39 50.5t-16 61.5q0 100 92.5 194.5t174.5 94.5q47 0 64 -30q33 -6 58.5 -30t25.5 -65q0 -78 -50.5 -144.5t-122.5 -66.5q-48 0 -56 37q49 39 88 99.5t46 138.5q-81 -43 -146.5 -122t-65.5 -130q0 -27 26 -56.5t57.5 -52t57.5 -54.5t26 -64q0 -73 -57.5 -120.5
t-156.5 -47.5z" />
    <glyph glyph-name="scaron" unicode="&#x161;" horiz-adv-x="334" 
d="M277 511q-7 0 -17.5 10t-23.5 28l-24.5 34.5l-25 36.5t-18.5 28q14 19 28 19q16 0 44.5 -24.5t53.5 -59.5l108 82q13 -11 13 -29q0 -24 -56 -74.5t-82 -50.5zM109 -7q-55 0 -85.5 33.5t-30.5 78.5q0 21 5 35q29 -39 68 -39q37 0 64.5 28.5t27.5 74.5t-25 121
q-41 -72 -80.5 -128.5t-56.5 -56.5q-20 0 -28 18.5t4 32.5q55 68 143 191q-2 10 -2 14q0 27 43.5 70.5t68.5 43.5q17 0 35.5 -20.5t25.5 -50.5q-9 -15 -36 -41.5t-34 -37.5q49 -109 49 -184q0 -14 -1 -20q13 10 27 23l24.5 23.5t25.5 29l23 28t25.5 34l24 33.5l27.5 39
l27 39q9 -1 20 -14t3 -30q-52 -101 -111 -185.5t-100 -109.5q-35 -20 -70 -25q-46 -48 -101 -48z" />
    <glyph glyph-name="Tcaron" unicode="&#x164;" horiz-adv-x="306" 
d="M308 741q-7 0 -17.5 10t-23.5 28l-24.5 34.5l-25 36.5t-18.5 28q14 19 28 19q16 0 44.5 -24.5t53.5 -59.5l108 82q13 -11 13 -29q0 -24 -56 -74.5t-82 -50.5zM212 0q-26 0 -55 21.5t-29 67.5q0 47 39 133t81 156.5l127 205.5q-116 8 -261 -23q39 -11 113 -24
q7 -6 0.5 -22.5t-19.5 -21.5q-19 -9 -65 -8.5t-76 11.5q-29 12 -25 53q-12 15 -11.5 45.5t18.5 43.5q85 60 224 63q84 3 147 -17q20 -7 29 -33q24 -9 39.5 -24t8.5 -29l-59 -109l-81.5 -153t-73 -154.5t-71.5 -181.5z" />
    <glyph glyph-name="tcaron" unicode="&#x165;" horiz-adv-x="305" 
d="M289 581q-7 0 -17.5 10t-23.5 28l-24.5 34.5l-25 36.5t-18.5 28q14 19 28 19q16 0 44.5 -24.5t53.5 -59.5l108 82q13 -11 13 -29q0 -24 -56 -74.5t-82 -50.5zM117 -7q-23 -1 -40 19.5t-25 49.5q-30 12 -30 53q0 60 97 254q-9 0 -25 2q-20 2 -31 32.5t6 39.5q11 5 94 7
q34 63 66 107q23 0 42.5 -11t27.5 -25t2 -23q-8 -13 -26 -48q67 -2 74 -7q11 -9 -5 -40t-37 -34q-19 -3 -77 -5q-75 -146 -120 -261q146 52 327 305q4 -2 9.5 -6t11.5 -14.5t2 -21.5q-25 -64 -91 -152.5t-139 -154t-113 -66.5z" />
    <glyph glyph-name="Utilde" unicode="&#x168;" horiz-adv-x="519" 
d="M517 785q-30 0 -85.5 10t-73.5 10q-41 0 -61 -20l-5 3q13 101 103 101q30 0 84 -11t68 -11q38 0 51 11q4 0 6 -3q-14 -90 -87 -90zM272 132q0 7 1 10q-97 -149 -170 -149q-63 0 -69 109q-24 21 -24 63q0 48 41.5 157t93 226t61.5 149q48 0 78.5 -18t30.5 -57
q0 -30 -33 -105t-98.5 -205t-94.5 -193q25 6 49.5 20.5t49.5 39t46.5 48.5t47.5 64l45 69.5t46.5 80l44.5 82l46.5 88.5l45.5 86q44 0 69 -16t25 -42q0 -20 -35.5 -97l-94.5 -202t-96 -218q26 10 50.5 25t49 37.5l41.5 39t40 46.5l32.5 42t31.5 44l24 35q34 -17 22 -41
q-38 -68 -89 -142.5t-114.5 -143t-100.5 -68.5q-30 0 -47.5 29t-22.5 64q-22 14 -23 43z" />
    <glyph glyph-name="utilde" unicode="&#x169;" horiz-adv-x="468" 
d="M400 555q-30 0 -85.5 10t-73.5 10q-41 0 -61 -20l-5 3q13 101 103 101q30 0 84 -11t68 -11q38 0 51 11q5 0 6 -3q-14 -90 -87 -90zM306 -9q-25 0 -43.5 27t-24.5 60q-13 6 -20 15q-61 -100 -107 -100q-37 0 -58 27.5t-25 59.5q-30 18 -30 49q0 54 72 180q83 141 97 141
q24 1 48.5 -13t25.5 -28q-87 -147 -154 -310q38 16 80.5 61t73 91l68.5 104.5t59 84.5q21 3 50 -10t29 -34q-53 -86 -138 -280q43 18 86.5 53.5t86 86t64 78.5t53.5 74q4 -2 9.5 -5.5t12.5 -14.5t1 -22q-27 -50 -65.5 -109t-84.5 -121t-91 -103.5t-75 -41.5z" />
    <glyph glyph-name="Umacron" unicode="&#x16a;" horiz-adv-x="519" 
d="M369 778q-44 0 -59.5 11.5t-15.5 43.5q0 14 4.5 19.5t16.5 6.5l191 9q44 2 60.5 -12.5t16.5 -51.5q0 -16 -4 -21t-16 -5h-194zM272 132q0 7 1 10q-97 -149 -170 -149q-63 0 -69 109q-24 21 -24 63q0 48 41.5 157t93 226t61.5 149q48 0 78.5 -18t30.5 -57q0 -30 -33 -105
t-98.5 -205t-94.5 -193q25 6 49.5 20.5t49.5 39t46.5 48.5t47.5 64l45 69.5t46.5 80l44.5 82l46.5 88.5l45.5 86q44 0 69 -16t25 -42q0 -20 -35.5 -97l-94.5 -202t-96 -218q26 10 50.5 25t49 37.5l41.5 39t40 46.5l32.5 42t31.5 44l24 35q34 -17 22 -41q-38 -68 -89 -142.5
t-114.5 -143t-100.5 -68.5q-30 0 -47.5 29t-22.5 64q-22 14 -23 43z" />
    <glyph glyph-name="umacron" unicode="&#x16b;" horiz-adv-x="468" 
d="M252 548q-44 0 -59.5 11.5t-15.5 43.5q0 14 4.5 19.5t16.5 6.5l191 9q44 2 60.5 -12.5t16.5 -51.5q0 -16 -4 -21t-16 -5h-194zM306 -9q-25 0 -43.5 27t-24.5 60q-13 6 -20 15q-61 -100 -107 -100q-37 0 -58 27.5t-25 59.5q-30 18 -30 49q0 54 72 180q83 141 97 141
q24 1 48.5 -13t25.5 -28q-87 -147 -154 -310q38 16 80.5 61t73 91l68.5 104.5t59 84.5q21 3 50 -10t29 -34q-53 -86 -138 -280q43 18 86.5 53.5t86 86t64 78.5t53.5 74q4 -2 9.5 -5.5t12.5 -14.5t1 -22q-27 -50 -65.5 -109t-84.5 -121t-91 -103.5t-75 -41.5z" />
    <glyph glyph-name="Ubreve" unicode="&#x16c;" horiz-adv-x="519" 
d="M435 729q-45 0 -49 39q-19 4 -34 16t-15 33q0 44 38 107q58 0 62 -38q0 -11 -4.5 -25t-14.5 -38t-15 -38q43 7 74.5 45t45.5 79q17 0 33.5 -13.5t16.5 -31.5q0 -35 -40 -85t-98 -50zM272 132q0 7 1 10q-97 -149 -170 -149q-63 0 -69 109q-24 21 -24 63q0 48 41.5 157
t93 226t61.5 149q48 0 78.5 -18t30.5 -57q0 -30 -33 -105t-98.5 -205t-94.5 -193q25 6 49.5 20.5t49.5 39t46.5 48.5t47.5 64l45 69.5t46.5 80l44.5 82l46.5 88.5l45.5 86q44 0 69 -16t25 -42q0 -20 -35.5 -97l-94.5 -202t-96 -218q26 10 50.5 25t49 37.5l41.5 39t40 46.5
l32.5 42t31.5 44l24 35q34 -17 22 -41q-38 -68 -89 -142.5t-114.5 -143t-100.5 -68.5q-30 0 -47.5 29t-22.5 64q-22 14 -23 43z" />
    <glyph glyph-name="ubreve" unicode="&#x16d;" horiz-adv-x="468" 
d="M318 499q-45 0 -49 39q-19 4 -34 16t-15 33q0 44 38 107q58 0 62 -38q0 -11 -4.5 -25t-14.5 -38t-15 -38q43 7 74.5 45t45.5 79q17 0 33.5 -13.5t16.5 -31.5q0 -35 -40 -85t-98 -50zM306 -9q-25 0 -43.5 27t-24.5 60q-13 6 -20 15q-61 -100 -107 -100q-37 0 -58 27.5
t-25 59.5q-30 18 -30 49q0 54 72 180q83 141 97 141q24 1 48.5 -13t25.5 -28q-87 -147 -154 -310q38 16 80.5 61t73 91l68.5 104.5t59 84.5q21 3 50 -10t29 -34q-53 -86 -138 -280q43 18 86.5 53.5t86 86t64 78.5t53.5 74q4 -2 9.5 -5.5t12.5 -14.5t1 -22
q-27 -50 -65.5 -109t-84.5 -121t-91 -103.5t-75 -41.5z" />
    <glyph glyph-name="Uring" unicode="&#x16e;" horiz-adv-x="519" 
d="M531 843q0 -44 -27 -69.5t-71 -25.5q-39 0 -67.5 26t-28.5 69t28.5 69.5t67.5 26.5q44 0 71 -26t27 -70zM376 843q0 -28 15 -46t42 -18q28 0 43.5 18.5t15.5 45.5q0 29 -15.5 47t-42.5 18t-42.5 -18t-15.5 -47zM272 132q0 7 1 10q-97 -149 -170 -149q-63 0 -69 109
q-24 21 -24 63q0 48 41.5 157t93 226t61.5 149q48 0 78.5 -18t30.5 -57q0 -30 -33 -105t-98.5 -205t-94.5 -193q25 6 49.5 20.5t49.5 39t46.5 48.5t47.5 64l45 69.5t46.5 80l44.5 82l46.5 88.5l45.5 86q44 0 69 -16t25 -42q0 -20 -35.5 -97l-94.5 -202t-96 -218
q26 10 50.5 25t49 37.5l41.5 39t40 46.5l32.5 42t31.5 44l24 35q34 -17 22 -41q-38 -68 -89 -142.5t-114.5 -143t-100.5 -68.5q-30 0 -47.5 29t-22.5 64q-22 14 -23 43z" />
    <glyph glyph-name="uring" unicode="&#x16f;" horiz-adv-x="468" 
d="M414 613q0 -44 -27 -69.5t-71 -25.5q-39 0 -67.5 26t-28.5 69t28.5 69.5t67.5 26.5q44 0 71 -26t27 -70zM270 613q0 -22 12 -36.5t34 -14.5t35 14.5t13 36.5q0 23 -12.5 38t-34.5 15t-34.5 -15t-12.5 -38zM306 -9q-25 0 -43.5 27t-24.5 60q-13 6 -20 15
q-61 -100 -107 -100q-37 0 -58 27.5t-25 59.5q-30 18 -30 49q0 54 72 180q83 141 97 141q24 1 48.5 -13t25.5 -28q-87 -147 -154 -310q38 16 80.5 61t73 91l68.5 104.5t59 84.5q21 3 50 -10t29 -34q-53 -86 -138 -280q43 18 86.5 53.5t86 86t64 78.5t53.5 74q4 -2 9.5 -5.5
t12.5 -14.5t1 -22q-27 -50 -65.5 -109t-84.5 -121t-91 -103.5t-75 -41.5z" />
    <glyph glyph-name="Uhungarumlaut" unicode="&#x170;" horiz-adv-x="519" 
d="M322 752q-9 23 40 88.5t75 70.5q17 3 44 -17.5t35 -39.5q-33 -15 -165 -113q-22 -6 -29 11zM500 752q-9 23 40 88.5t75 70.5q17 3 44 -17.5t35 -39.5q-33 -15 -165 -113q-22 -6 -29 11zM272 132q0 7 1 10q-97 -149 -170 -149q-63 0 -69 109q-24 21 -24 63q0 48 41.5 157
t93 226t61.5 149q48 0 78.5 -18t30.5 -57q0 -30 -33 -105t-98.5 -205t-94.5 -193q25 6 49.5 20.5t49.5 39t46.5 48.5t47.5 64l45 69.5t46.5 80l44.5 82l46.5 88.5l45.5 86q44 0 69 -16t25 -42q0 -20 -35.5 -97l-94.5 -202t-96 -218q26 10 50.5 25t49 37.5l41.5 39t40 46.5
l32.5 42t31.5 44l24 35q34 -17 22 -41q-38 -68 -89 -142.5t-114.5 -143t-100.5 -68.5q-30 0 -47.5 29t-22.5 64q-22 14 -23 43z" />
    <glyph glyph-name="uhungarumlaut" unicode="&#x171;" horiz-adv-x="468" 
d="M205 522q-9 23 40 88.5t75 70.5q17 3 44 -17.5t35 -39.5q-33 -15 -165 -113q-22 -6 -29 11zM383 522q-9 23 40 88.5t75 70.5q17 3 44 -17.5t35 -39.5q-33 -15 -165 -113q-22 -6 -29 11zM306 -9q-25 0 -43.5 27t-24.5 60q-13 6 -20 15q-61 -100 -107 -100q-37 0 -58 27.5
t-25 59.5q-30 18 -30 49q0 54 72 180q83 141 97 141q24 1 48.5 -13t25.5 -28q-87 -147 -154 -310q38 16 80.5 61t73 91l68.5 104.5t59 84.5q21 3 50 -10t29 -34q-53 -86 -138 -280q43 18 86.5 53.5t86 86t64 78.5t53.5 74q4 -2 9.5 -5.5t12.5 -14.5t1 -22
q-27 -50 -65.5 -109t-84.5 -121t-91 -103.5t-75 -41.5z" />
    <glyph glyph-name="Uogonek" unicode="&#x172;" horiz-adv-x="519" 
d="M388 -95q0 -28 -46.5 -67.5t-78.5 -39.5q-16 0 -27.5 15.5t-16.5 35.5q-39 25 -39 68q0 36 46.5 75t85.5 43q-11 21 -17 54q-22 14 -23 43q0 7 1 10q-97 -149 -170 -149q-63 0 -69 109q-24 21 -24 63q0 48 41.5 157t93 226t61.5 149q48 0 78.5 -18t30.5 -57
q0 -30 -33 -105t-98.5 -205t-94.5 -193q25 6 49.5 20.5t49.5 39t46.5 48.5t47.5 64l45 69.5t46.5 80l44.5 82l46.5 88.5l45.5 86q44 0 69 -16t25 -42q0 -20 -35.5 -97l-94.5 -202t-96 -218q26 10 50.5 25t49 37.5l41.5 39t40 46.5l32.5 42t31.5 44l24 35q34 -17 22 -41
q-38 -68 -89 -142.5t-114.5 -143t-100.5 -68.5q-23 0 -40 19q-27 -20 -51.5 -59.5t-30.5 -87.5q69 8 121 69q24 -6 24 -32z" />
    <glyph glyph-name="uogonek" unicode="&#x173;" horiz-adv-x="468" 
d="M208 -95q0 -28 -46.5 -67.5t-78.5 -39.5q-16 0 -27.5 15.5t-16.5 35.5q-39 25 -39 68q0 45 67 90q-33 25 -39 73q-30 18 -30 49q0 54 72 180q83 141 97 141q24 1 48.5 -13t25.5 -28q-87 -147 -154 -310q38 16 80.5 61t73 91l68.5 104.5t59 84.5q21 3 50 -10t29 -34
q-53 -86 -138 -280q43 18 86.5 53.5t86 86t64 78.5t53.5 74q4 -2 9.5 -5.5t12.5 -14.5t1 -22q-27 -50 -65.5 -109t-84.5 -121t-91 -103.5t-75 -41.5q-25 0 -43.5 27t-24.5 60q-13 6 -20 15q-24 -41 -46 -65q-27 -29 -50 -34q-50 -53 -59 -126q69 8 121 69q24 -6 24 -32z" />
    <glyph glyph-name="Wcircumflex" unicode="&#x174;" horiz-adv-x="668" 
d="M594 747q-16 0 -44.5 24.5t-53.5 59.5l-108 -82q-13 11 -13 29q0 24 56 74.5t82 50.5q7 0 17.5 -10t23.5 -28l24.5 -34.5l25 -36.5t18.5 -28q-14 -19 -28 -19zM286 132q0 10 2 34q-44 -77 -92 -125t-91 -48q-64 0 -72 109q-23 20 -23 63q0 36 41 146t96 240t61 145
q107 0 107 -74q0 -29 -33.5 -106t-106 -223l-86.5 -175q55 14 110.5 72.5t102 143.5t80.5 162t62 158q48 0 73.5 -18t25.5 -44q0 -21 -30 -104.5t-81 -212l-63 -160.5q91 47 184 228.5t132 350.5q99 0 99 -72q0 -42 -39.5 -145t-95 -210t-124.5 -189t-119 -82
q-39 0 -60 27.5t-26 61.5q-34 15 -34 47z" />
    <glyph glyph-name="wcircumflex" unicode="&#x175;" horiz-adv-x="643" 
d="M523 517q-16 0 -44.5 24.5t-53.5 59.5l-108 -82q-13 11 -13 29q0 24 56 74.5t82 50.5q7 0 17.5 -10t23.5 -28l24.5 -34.5l25 -36.5t18.5 -28q-14 -19 -28 -19zM533 70q-33 0 -51 46q-105 -123 -153 -123q-24 0 -40.5 20.5t-22.5 48.5q-27 12 -27 44v8q-86 -121 -137 -121
q-28 0 -48 23.5t-25 51.5q-29 14 -29 55q0 52 35 133t74 138t52 57q28 0 59 -16t20 -32q-21 -28 -73.5 -133.5t-82.5 -178.5q38 16 81 63t74 96l69.5 109t59.5 87q15 7 52 -7t27 -38q-51 -83 -144 -308q66 24 161 141q2 74 22 122q15 37 45.5 77.5t47.5 40.5q25 0 45 -16
t20 -42q0 -46 -38 -119t-95 -146q20 4 41 15.5t39 24t40 35l35.5 37t35 42l30 38.5t27.5 38t21 29q11 0 21.5 -13t1.5 -29q-13 -25 -25.5 -46.5t-46 -72.5t-62.5 -86t-67 -64t-69 -29z" />
    <glyph glyph-name="Ycircumflex" unicode="&#x176;" horiz-adv-x="476" 
d="M512 747q-16 0 -44.5 24.5t-53.5 59.5l-108 -82q-13 11 -13 29q0 24 56 74.5t82 50.5q7 0 17.5 -10t23.5 -28l24.5 -34.5l25 -36.5t18.5 -28q-14 -19 -28 -19zM244 -200q-15 0 -31 4.5t-33 21.5t-19 43q0 10 12.5 42t36.5 85.5l44 95.5l51.5 109.5l42.5 90.5
q-178 -299 -240 -299q-27 0 -44 18.5t-21.5 38t-7.5 48.5q-25 21 -25 64q0 46 94.5 276t100.5 259q48 0 78.5 -18t30.5 -57q0 -63 -211 -483q47 20 98 72t101 127.5t84.5 133.5t76 135.5t48.5 88.5q47 0 67.5 -17t20.5 -42q0 -16 -50.5 -129l-142.5 -321.5t-162 -386.5z" />
    <glyph glyph-name="ycircumflex" unicode="&#x177;" horiz-adv-x="435" 
d="M424 517q-16 0 -44.5 24.5t-53.5 59.5l-108 -82q-13 11 -13 29q0 24 56 74.5t82 50.5q7 0 17.5 -10t23.5 -28l24.5 -34.5l25 -36.5t18.5 -28q-14 -19 -28 -19zM145 -237q-46 0 -72 18.5t-26 51.5t26 62.5t78 71.5q29 69 101 208q-101 -167 -162 -168q-38 -1 -52 24.5
t-15 61.5q-16 16 -16 44q0 47 37.5 122.5t108.5 191.5q27 1 54 -12.5t28 -27.5q0 -8 -26.5 -57.5l-66 -124t-61.5 -125.5q27 10 58 34.5t54.5 49.5t54 66.5t46.5 65l44 67.5l34 53q10 0 26.5 -3t35.5 -17t15 -37q-93 -151 -171 -309q154 138 287 307q8 0 17.5 -9t9.5 -22
q0 -47 -123.5 -176.5t-251.5 -229.5q-47 -109 -72 -181z" />
    <glyph glyph-name="Ydieresis" unicode="&#x178;" horiz-adv-x="476" 
d="M372 780q-13 -12 -38 -9t-27 18q-21 10 -21 26q0 37 38 75q14 12 35.5 8t28.5 -18q21 -10 21 -25q0 -19 -10.5 -40.5t-26.5 -34.5zM540 771q-13 -13 -38 -8.5t-29 21.5q-22 11 -22 26q0 40 38 76q17 14 41.5 7t24.5 -21q21 -11 21 -26q0 -20 -10 -41t-26 -34zM244 -200
q-15 0 -31 4.5t-33 21.5t-19 43q0 10 12.5 42t36.5 85.5l44 95.5l51.5 109.5l42.5 90.5q-178 -299 -240 -299q-27 0 -44 18.5t-21.5 38t-7.5 48.5q-25 21 -25 64q0 46 94.5 276t100.5 259q48 0 78.5 -18t30.5 -57q0 -63 -211 -483q47 20 98 72t101 127.5t84.5 133.5
t76 135.5t48.5 88.5q47 0 67.5 -17t20.5 -42q0 -16 -50.5 -129l-142.5 -321.5t-162 -386.5z" />
    <glyph glyph-name="Zacute" unicode="&#x179;" horiz-adv-x="493" 
d="M321 752q-9 23 40 88.5t75 70.5q17 3 44 -17.5t35 -39.5q-33 -15 -165 -113q-22 -6 -29 11zM538 169q-47 3 -105 1q-52 -99 -141 -180t-186 -81q-66 0 -84 45q-24 7 -41.5 28.5t-17.5 51.5q0 88 107.5 140t264.5 52h13q14 18 31 49q-47 14 -160 30q-45 9 -45 77
q95 25 169 78.5t115 120.5q-91 4 -171 -20t-104 -53q-13 2 -31.5 23.5t-18.5 40.5q0 46 67.5 76.5t169.5 30.5q129 0 154 -82q23 -20 23 -52q0 -46 -51.5 -98.5t-125.5 -86.5q49 -10 64 -21q20 -13 23 -42q8 -18 8 -37q0 -16 -11 -44q69 -10 100 -21zM43 -6q57 7 124.5 52
t125.5 110q-218 -38 -250 -162z" />
    <glyph glyph-name="zacute" unicode="&#x17a;" horiz-adv-x="365" 
d="M247 522q-9 23 40 88.5t75 70.5q17 3 44 -17.5t35 -39.5q-33 -15 -165 -113q-22 -6 -29 11zM37 -269q-20 0 -35.5 19.5t-21.5 45.5q-29 11 -29 49q0 78 101 139q37 21 79 48q-36 5 -83 5h-10q-11 1 -17 11.5t-2.5 25.5t18.5 26q60 47 132.5 130.5t88.5 140.5
q-115 -40 -158 -162q-28 0 -48 16t-20 42q0 57 63 120.5t127 63.5q44 0 64 -34q30 -5 52 -21t22 -45q0 -38 -63 -126t-137 -142q7 -1 34 -8q140 102 304 306q9 0 18.5 -12.5t2.5 -29.5q-17 -42 -98 -131.5t-168 -159.5q28 -20 28 -43q0 -45 -41 -110.5t-99.5 -114.5
t-103.5 -49zM216 10q-6 4 -10 6q-143 -82 -192 -193q58 17 115.5 71.5t86.5 115.5z" />
    <glyph glyph-name="Zdotaccent" unicode="&#x17b;" horiz-adv-x="493" 
d="M350 777q-15 -15 -44.5 -11.5t-37.5 23.5q-26 11 -26 32q0 47 48 95q18 15 44.5 10t35.5 -22q27 -13 27 -32q0 -25 -13.5 -51.5t-33.5 -43.5zM538 169q-47 3 -105 1q-52 -99 -141 -180t-186 -81q-66 0 -84 45q-24 7 -41.5 28.5t-17.5 51.5q0 88 107.5 140t264.5 52h13
q14 18 31 49q-47 14 -160 30q-45 9 -45 77q95 25 169 78.5t115 120.5q-91 4 -171 -20t-104 -53q-13 2 -31.5 23.5t-18.5 40.5q0 46 67.5 76.5t169.5 30.5q129 0 154 -82q23 -20 23 -52q0 -46 -51.5 -98.5t-125.5 -86.5q49 -10 64 -21q20 -13 23 -42q8 -18 8 -37
q0 -16 -11 -44q69 -10 100 -21zM43 -6q57 7 124.5 52t125.5 110q-218 -38 -250 -162z" />
    <glyph glyph-name="zdotaccent" unicode="&#x17c;" horiz-adv-x="365" 
d="M276 547q-15 -15 -44.5 -11.5t-37.5 23.5q-26 11 -26 32q0 47 48 95q18 15 44.5 10t35.5 -22q27 -13 27 -32q0 -25 -13.5 -51.5t-33.5 -43.5zM37 -269q-20 0 -35.5 19.5t-21.5 45.5q-29 11 -29 49q0 78 101 139q37 21 79 48q-36 5 -83 5h-10q-11 1 -17 11.5t-2.5 25.5
t18.5 26q60 47 132.5 130.5t88.5 140.5q-115 -40 -158 -162q-28 0 -48 16t-20 42q0 57 63 120.5t127 63.5q44 0 64 -34q30 -5 52 -21t22 -45q0 -38 -63 -126t-137 -142q7 -1 34 -8q140 102 304 306q9 0 18.5 -12.5t2.5 -29.5q-17 -42 -98 -131.5t-168 -159.5q28 -20 28 -43
q0 -45 -41 -110.5t-99.5 -114.5t-103.5 -49zM216 10q-6 4 -10 6q-143 -82 -192 -193q58 17 115.5 71.5t86.5 115.5z" />
    <glyph glyph-name="Zcaron" unicode="&#x17d;" horiz-adv-x="493" 
d="M344 741q-7 0 -17.5 10t-23.5 28l-24.5 34.5l-25 36.5t-18.5 28q14 19 28 19q16 0 44.5 -24.5t53.5 -59.5l108 82q13 -11 13 -29q0 -24 -56 -74.5t-82 -50.5zM538 169q-47 3 -105 1q-52 -99 -141 -180t-186 -81q-66 0 -84 45q-24 7 -41.5 28.5t-17.5 51.5q0 88 107.5 140
t264.5 52h13q14 18 31 49q-47 14 -160 30q-45 9 -45 77q95 25 169 78.5t115 120.5q-91 4 -171 -20t-104 -53q-13 2 -31.5 23.5t-18.5 40.5q0 46 67.5 76.5t169.5 30.5q129 0 154 -82q23 -20 23 -52q0 -46 -51.5 -98.5t-125.5 -86.5q49 -10 64 -21q20 -13 23 -42q8 -18 8 -37
q0 -16 -11 -44q69 -10 100 -21zM43 -6q57 7 124.5 52t125.5 110q-218 -38 -250 -162z" />
    <glyph glyph-name="zcaron" unicode="&#x17e;" horiz-adv-x="365" 
d="M270 511q-7 0 -17.5 10t-23.5 28l-24.5 34.5l-25 36.5t-18.5 28q14 19 28 19q16 0 44.5 -24.5t53.5 -59.5l108 82q13 -11 13 -29q0 -24 -56 -74.5t-82 -50.5zM37 -269q-20 0 -35.5 19.5t-21.5 45.5q-29 11 -29 49q0 78 101 139q37 21 79 48q-36 5 -83 5h-10
q-11 1 -17 11.5t-2.5 25.5t18.5 26q60 47 132.5 130.5t88.5 140.5q-115 -40 -158 -162q-28 0 -48 16t-20 42q0 57 63 120.5t127 63.5q44 0 64 -34q30 -5 52 -21t22 -45q0 -38 -63 -126t-137 -142q7 -1 34 -8q140 102 304 306q9 0 18.5 -12.5t2.5 -29.5q-17 -42 -98 -131.5
t-168 -159.5q28 -20 28 -43q0 -45 -41 -110.5t-99.5 -114.5t-103.5 -49zM216 10q-6 4 -10 6q-143 -82 -192 -193q58 17 115.5 71.5t86.5 115.5z" />
    <glyph glyph-name="uni01D3" unicode="&#x1d3;" horiz-adv-x="519" 
d="M455 741q-7 0 -17.5 10t-23.5 28l-24.5 34.5l-25 36.5t-18.5 28q14 19 28 19q16 0 44.5 -24.5t53.5 -59.5l108 82q13 -11 13 -29q0 -24 -56 -74.5t-82 -50.5zM272 132q0 7 1 10q-97 -149 -170 -149q-63 0 -69 109q-24 21 -24 63q0 48 41.5 157t93 226t61.5 149
q48 0 78.5 -18t30.5 -57q0 -30 -33 -105t-98.5 -205t-94.5 -193q25 6 49.5 20.5t49.5 39t46.5 48.5t47.5 64l45 69.5t46.5 80l44.5 82l46.5 88.5l45.5 86q44 0 69 -16t25 -42q0 -20 -35.5 -97l-94.5 -202t-96 -218q26 10 50.5 25t49 37.5l41.5 39t40 46.5l32.5 42t31.5 44
l24 35q34 -17 22 -41q-38 -68 -89 -142.5t-114.5 -143t-100.5 -68.5q-30 0 -47.5 29t-22.5 64q-22 14 -23 43z" />
    <glyph glyph-name="uni01D4" unicode="&#x1d4;" horiz-adv-x="468" 
d="M338 511q-7 0 -17.5 10t-23.5 28l-24.5 34.5l-25 36.5t-18.5 28q14 19 28 19q16 0 44.5 -24.5t53.5 -59.5l108 82q13 -11 13 -29q0 -24 -56 -74.5t-82 -50.5zM306 -9q-25 0 -43.5 27t-24.5 60q-13 6 -20 15q-61 -100 -107 -100q-37 0 -58 27.5t-25 59.5q-30 18 -30 49
q0 54 72 180q83 141 97 141q24 1 48.5 -13t25.5 -28q-87 -147 -154 -310q38 16 80.5 61t73 91l68.5 104.5t59 84.5q21 3 50 -10t29 -34q-53 -86 -138 -280q43 18 86.5 53.5t86 86t64 78.5t53.5 74q4 -2 9.5 -5.5t12.5 -14.5t1 -22q-27 -50 -65.5 -109t-84.5 -121t-91 -103.5
t-75 -41.5z" />
    <glyph glyph-name="uni01E2" unicode="&#x1e2;" horiz-adv-x="694" 
d="M495 768q-44 0 -59.5 11.5t-15.5 43.5q0 14 4.5 19.5t16.5 6.5l191 9q44 2 60.5 -12.5t16.5 -51.5q0 -16 -4 -21t-16 -5h-194zM238 69q0 44 60 204l-105 -6q-99 -157 -146 -284q-37 0 -59.5 20t-22.5 60q0 52 83 193q-86 -8 -110 -15q-12 5 -8.5 52.5t21.5 58.5
q24 3 167 14q87 129 174 230.5t113 101.5q46 0 76 -25q110 23 198 23q93 0 90 -57q-1 -15 -9.5 -36.5t-18.5 -31.5q-74 4 -180 -8q-38 -69 -85 -176q88 5 100 5q52 0 71.5 -7t18.5 -34q-1 -15 -9.5 -36.5t-18.5 -31.5q-42 1 -208 -4l-64 -163q68 11 140 11q30 0 48 -14
t17 -42q-1 -15 -9.5 -36.5t-18.5 -31.5q-35 0 -233 -13l-3 3q-26 4 -47.5 23t-21.5 53zM266 375q12 1 37 2.5t38 2.5q52 122 103 218q-90 -99 -178 -223z" />
    <glyph glyph-name="uni01E3" unicode="&#x1e3;" horiz-adv-x="500" 
d="M317 548q-44 0 -59.5 11.5t-15.5 43.5q0 14 4.5 19.5t16.5 6.5l191 9q44 2 60.5 -12.5t16.5 -51.5q0 -16 -4 -21t-16 -5h-194zM743 358q-33 -66 -94 -149t-136 -151t-125 -68q-49 0 -83.5 28t-43.5 77q-14 9 -21 21q-86 -123 -131 -123q-35 0 -54 33t-21 71
q-27 21 -27 70q0 52 25 107.5t61 97t78 68.5t75 27q42 0 65 -21t23 -45l1 -1h2q70 67 133 67q69 0 80 -51q31 -18 31 -48q0 -64 -66.5 -133.5t-122.5 -69.5q-18 0 -33.5 12t-22.5 27q-21 -54 -23 -104q17 -5 29 -5q177 -6 378 305q8 0 19.5 -13t3.5 -29zM343 221
q44 11 99 69t77 112q-52 -14 -99.5 -64.5t-76.5 -116.5zM74 111q93 33 176 172q7 14 23 40q22 42 32 71q-58 -11 -110.5 -64.5t-82 -112t-38.5 -106.5z" />
    <glyph glyph-name="AEacute" unicode="&#x1fc;" horiz-adv-x="694" 
d="M505 758q-9 23 40 88.5t75 70.5q17 3 44 -17.5t35 -39.5q-33 -15 -165 -113q-22 -6 -29 11zM238 69q0 44 60 204l-105 -6q-99 -157 -146 -284q-37 0 -59.5 20t-22.5 60q0 52 83 193q-86 -8 -110 -15q-12 5 -8.5 52.5t21.5 58.5q24 3 167 14q87 129 174 230.5t113 101.5
q46 0 76 -25q110 23 198 23q93 0 90 -57q-1 -15 -9.5 -36.5t-18.5 -31.5q-74 4 -180 -8q-38 -69 -85 -176q88 5 100 5q52 0 71.5 -7t18.5 -34q-1 -15 -9.5 -36.5t-18.5 -31.5q-42 1 -208 -4l-64 -163q68 11 140 11q30 0 48 -14t17 -42q-1 -15 -9.5 -36.5t-18.5 -31.5
q-35 0 -233 -13l-3 3q-26 4 -47.5 23t-21.5 53zM266 375q12 1 37 2.5t38 2.5q52 122 103 218q-90 -99 -178 -223z" />
    <glyph glyph-name="aeacute" unicode="&#x1fd;" horiz-adv-x="500" 
d="M311 522q-9 23 40 88.5t75 70.5q17 3 44 -17.5t35 -39.5q-33 -15 -165 -113q-22 -6 -29 11zM743 358q-33 -66 -94 -149t-136 -151t-125 -68q-49 0 -83.5 28t-43.5 77q-14 9 -21 21q-86 -123 -131 -123q-35 0 -54 33t-21 71q-27 21 -27 70q0 52 25 107.5t61 97t78 68.5
t75 27q42 0 65 -21t23 -45l1 -1h2q70 67 133 67q69 0 80 -51q31 -18 31 -48q0 -64 -66.5 -133.5t-122.5 -69.5q-18 0 -33.5 12t-22.5 27q-21 -54 -23 -104q17 -5 29 -5q177 -6 378 305q8 0 19.5 -13t3.5 -29zM343 221q44 11 99 69t77 112q-52 -14 -99.5 -64.5t-76.5 -116.5z
M74 111q93 33 176 172q7 14 23 40q22 42 32 71q-58 -11 -110.5 -64.5t-82 -112t-38.5 -106.5z" />
    <glyph glyph-name="Oslashacute" unicode="&#x1fe;" horiz-adv-x="515" 
d="M283 754q-9 23 40 88.5t75 70.5q17 3 44 -17.5t35 -39.5q-33 -15 -165 -113q-22 -6 -29 11zM215 -25q-26 0 -47 7l-48 -106q-26 0 -26 34q0 23 40 131q-106 17 -106 169q0 57 26.5 133.5t72 151.5t118 126.5t153.5 51.5q8 0 12 -1l45 98q13 0 22.5 -9t9.5 -26
q0 -13 -27 -81q22 -16 25 -41q33 -10 52 -42.5t19 -83.5q0 -111 -51 -231t-131.5 -200.5t-158.5 -80.5zM208 69q66 36 124 134.5t89 207t33 193.5q-5 0 -15 -2q-74 -182 -231 -533zM139 130q0 -34 7 -59q57 143 216 496q-95 -64 -159 -198.5t-64 -238.5z" />
    <glyph glyph-name="oslashacute" unicode="&#x1ff;" horiz-adv-x="409" 
d="M212 572q-9 23 40 88.5t75 70.5q17 3 44 -17.5t35 -39.5q-33 -15 -165 -113q-22 -6 -29 11zM121 4q-14 2 -21 4q-48 -86 -74 -127q-25 1 -23 35q3 31 56 139q-1 3 -1 13q-60 18 -55 99q8 107 97.5 207t172.5 95q5 0 15 -2l75 131q13 -1 21.5 -10.5t7.5 -26.5
q-3 -20 -60 -131q0 -1 0.5 -3t0.5 -3q50 -28 45 -95q-6 -77 -66 -171q56 38 122 100.5t109 126.5q34 -17 19 -47q-46 -91 -130.5 -181.5t-147.5 -86.5q-17 2 -30 11q-73 -81 -133 -77zM250 307q-6 -37 0 -89q59 100 65 200q-22 -8 -41.5 -39t-23.5 -72zM182 275q1 22 13 50
q-85 -105 -109 -239q60 7 114 64q-22 56 -18 125z" />
    <glyph glyph-name="Scommaaccent" unicode="&#x218;" horiz-adv-x="423" 
d="M159 -7q-78 0 -132.5 37.5t-50.5 116.5q20 -18 62 -29t88 -11q68 0 98.5 20t30.5 51q0 20 -16 41t-39.5 40.5l-46.5 40.5t-39 50.5t-16 61.5q0 100 92.5 194.5t174.5 94.5q47 0 64 -30q33 -6 58.5 -30t25.5 -65q0 -78 -50.5 -144.5t-122.5 -66.5q-48 0 -56 37
q49 39 88 99.5t46 138.5q-81 -43 -146.5 -122t-65.5 -130q0 -27 26 -56.5t57.5 -52t57.5 -54.5t26 -64q0 -73 -57.5 -120.5t-156.5 -47.5zM94 -178q-16 -15 -43.5 -22t-49.5 0q16 15 35 49q-36 12 -36 35q0 35 43 78q19 17 49.5 9t30.5 -28q24 -7 24 -23q0 -23 -17 -52.5
t-36 -45.5z" />
    <glyph glyph-name="scommaaccent" unicode="&#x219;" horiz-adv-x="334" 
d="M109 -7q-55 0 -85.5 33.5t-30.5 78.5q0 21 5 35q29 -39 68 -39q37 0 64.5 28.5t27.5 74.5t-25 121q-41 -72 -80.5 -128.5t-56.5 -56.5q-20 0 -28 18.5t4 32.5q55 68 143 191q-2 10 -2 14q0 27 43.5 70.5t68.5 43.5q17 0 35.5 -20.5t25.5 -50.5q-9 -15 -36 -41.5
t-34 -37.5q49 -109 49 -184q0 -14 -1 -20q13 10 27 23l24.5 23.5t25.5 29l23 28t25.5 34l24 33.5l27.5 39l27 39q9 -1 20 -14t3 -30q-52 -101 -111 -185.5t-100 -109.5q-35 -20 -70 -25q-46 -48 -101 -48zM94 -178q-16 -15 -43.5 -22t-49.5 0q16 15 35 49q-36 12 -36 35
q0 35 43 78q19 17 49.5 9t30.5 -28q24 -7 24 -23q0 -23 -17 -52.5t-36 -45.5z" />
    <glyph glyph-name="uni021A" unicode="&#x21a;" horiz-adv-x="326" 
d="M232 0q-26 0 -55 21.5t-29 67.5q0 47 39 133t81 156.5l127 205.5q-116 8 -261 -23q39 -11 113 -24q7 -6 0.5 -22.5t-19.5 -21.5q-19 -9 -65 -8.5t-76 11.5q-29 12 -25 53q-12 15 -11.5 45.5t18.5 43.5q85 60 224 63q84 3 147 -17q20 -7 29 -33q24 -9 39.5 -24t8.5 -29
l-59 -109l-81.5 -153t-73 -154.5t-71.5 -181.5zM114 -178q-16 -15 -43.5 -22t-49.5 0q16 15 35 49q-36 12 -36 35q0 35 43 78q19 17 49.5 9t30.5 -28q24 -7 24 -23q0 -23 -17 -52.5t-36 -45.5z" />
    <glyph glyph-name="uni021B" unicode="&#x21b;" horiz-adv-x="305" 
d="M117 -7q-23 -1 -40 19.5t-25 49.5q-30 12 -30 53q0 60 97 254q-9 0 -25 2q-20 2 -31 32.5t6 39.5q11 5 94 7q34 63 66 107q23 0 42.5 -11t27.5 -25t2 -23q-8 -13 -26 -48q67 -2 74 -7q11 -9 -5 -40t-37 -34q-19 -3 -77 -5q-75 -146 -120 -261q146 52 327 305q4 -2 9.5 -6
t11.5 -14.5t2 -21.5q-25 -64 -91 -152.5t-139 -154t-113 -66.5zM94 -178q-16 -15 -43.5 -22t-49.5 0q16 15 35 49q-36 12 -36 35q0 35 43 78q19 17 49.5 9t30.5 -28q24 -7 24 -23q0 -23 -17 -52.5t-36 -45.5z" />
    <glyph glyph-name="uni0232" unicode="&#x232;" horiz-adv-x="476" 
d="M334 778q-44 0 -59.5 11.5t-15.5 43.5q0 14 4.5 19.5t16.5 6.5l191 9q44 2 60.5 -12.5t16.5 -51.5q0 -16 -4 -21t-16 -5h-194zM244 -200q-15 0 -31 4.5t-33 21.5t-19 43q0 10 12.5 42t36.5 85.5l44 95.5l51.5 109.5l42.5 90.5q-178 -299 -240 -299q-27 0 -44 18.5
t-21.5 38t-7.5 48.5q-25 21 -25 64q0 46 94.5 276t100.5 259q48 0 78.5 -18t30.5 -57q0 -63 -211 -483q47 20 98 72t101 127.5t84.5 133.5t76 135.5t48.5 88.5q47 0 67.5 -17t20.5 -42q0 -16 -50.5 -129l-142.5 -321.5t-162 -386.5z" />
    <glyph glyph-name="uni0233" unicode="&#x233;" horiz-adv-x="435" 
d="M246 548q-44 0 -59.5 11.5t-15.5 43.5q0 14 4.5 19.5t16.5 6.5l191 9q44 2 60.5 -12.5t16.5 -51.5q0 -16 -4 -21t-16 -5h-194zM145 -237q-46 0 -72 18.5t-26 51.5t26 62.5t78 71.5q29 69 101 208q-101 -167 -162 -168q-38 -1 -52 24.5t-15 61.5q-16 16 -16 44
q0 47 37.5 122.5t108.5 191.5q27 1 54 -12.5t28 -27.5q0 -8 -26.5 -57.5l-66 -124t-61.5 -125.5q27 10 58 34.5t54.5 49.5t54 66.5t46.5 65l44 67.5l34 53q10 0 26.5 -3t35.5 -17t15 -37q-93 -151 -171 -309q154 138 287 307q8 0 17.5 -9t9.5 -22q0 -47 -123.5 -176.5
t-251.5 -229.5q-47 -109 -72 -181z" />
    <glyph glyph-name="uni0237" unicode="&#x237;" horiz-adv-x="257" 
d="M-60 -278q-56 0 -78 35.5t-2 81.5q18 42 86 110q43 118 109.5 275t99.5 227q34 -2 59 -13.5t25 -26.5q0 -21 -23.5 -74t-63.5 -132t-53 -107l-9 -20q178 159 283 303q9 0 20 -13.5t3 -28.5q-60 -112 -150 -209.5t-233 -223.5q-44 -101 -73 -184z" />
    <glyph glyph-name="circumflex" unicode="&#x2c6;" horiz-adv-x="247" 
d="M219 517q-16 0 -44.5 24.5t-53.5 59.5l-108 -82q-13 11 -13 29q0 24 56 74.5t82 50.5q7 0 17.5 -10t23.5 -28l24.5 -34.5l25 -36.5t18.5 -28q-14 -19 -28 -19z" />
    <glyph glyph-name="caron" unicode="&#x2c7;" horiz-adv-x="247" 
d="M109 511q-7 0 -17.5 10t-23.5 28l-24.5 34.5l-25 36.5t-18.5 28q14 19 28 19q16 0 44.5 -24.5t53.5 -59.5l108 82q13 -11 13 -29q0 -24 -56 -74.5t-82 -50.5z" />
    <glyph glyph-name="breve" unicode="&#x2d8;" horiz-adv-x="236" 
d="M98 499q-45 0 -49 39q-19 4 -34 16t-15 33q0 44 38 107q58 0 62 -38q0 -11 -4.5 -25t-14.5 -38t-15 -38q43 7 74.5 45t45.5 79q17 0 33.5 -13.5t16.5 -31.5q0 -35 -40 -85t-98 -50z" />
    <glyph glyph-name="dotaccent" unicode="&#x2d9;" horiz-adv-x="155" 
d="M108 547q-15 -15 -44.5 -11.5t-37.5 23.5q-26 11 -26 32q0 47 48 95q18 15 44.5 10t35.5 -22q27 -13 27 -32q0 -25 -13.5 -51.5t-33.5 -43.5z" />
    <glyph glyph-name="ring" unicode="&#x2da;" horiz-adv-x="194" 
d="M194 613q0 -44 -27 -69.5t-71 -25.5q-39 0 -67.5 26t-28.5 69t28.5 69.5t67.5 26.5q44 0 71 -26t27 -70zM50 613q0 -22 12 -36.5t34 -14.5t35 14.5t13 36.5q0 23 -12.5 38t-34.5 15t-34.5 -15t-12.5 -38z" />
    <glyph glyph-name="ogonek" unicode="&#x2db;" horiz-adv-x="208" 
d="M83 -202q-16 0 -27.5 15.5t-16.5 35.5q-39 25 -39 68q0 37 50 77.5t88 40.5q5 0 11.5 0.5t10 0.5t6.5 -0.5t4.5 -2.5t1.5 -5q-23 0 -62 -48t-47 -112q69 8 121 69q24 -6 24 -32q0 -28 -46.5 -67.5t-78.5 -39.5z" />
    <glyph glyph-name="tilde" unicode="&#x2dc;" horiz-adv-x="312" 
d="M225 555q-30 0 -85.5 10t-73.5 10q-41 0 -61 -20l-5 3q13 101 103 101q30 0 84 -11t68 -11q38 0 51 11q4 0 6 -3q-14 -90 -87 -90z" />
    <glyph glyph-name="hungarumlaut" unicode="&#x2dd;" horiz-adv-x="373" 
d="M1 522q-9 23 40 88.5t75 70.5q17 3 44 -17.5t35 -39.5q-33 -15 -165 -113q-22 -6 -29 11zM179 522q-9 23 40 88.5t75 70.5q17 3 44 -17.5t35 -39.5q-33 -15 -165 -113q-22 -6 -29 11z" />
    <glyph glyph-name="gravecomb" unicode="&#x300;" 
d="M-11 508q-24 -8 -89.5 40.5t-70.5 75.5q-3 17 17.5 43.5t39.5 34.5q14 -29 112 -164q7 -22 -9 -30z" />
    <glyph glyph-name="acutecomb" unicode="&#x301;" 
d="M-194 522q-9 23 40 88.5t75 70.5q17 3 44 -17.5t35 -39.5q-33 -15 -165 -113q-22 -6 -29 11z" />
    <glyph glyph-name="uni0302" unicode="&#x302;" 
d="M-28 517q-16 0 -44.5 24.5t-53.5 59.5l-108 -82q-13 11 -13 29q0 24 56 74.5t82 50.5q7 0 17.5 -10t23.5 -28l24.5 -34.5l25 -36.5t18.5 -28q-14 -19 -28 -19z" />
    <glyph glyph-name="tildecomb" unicode="&#x303;" 
d="M-87 555q-30 0 -85.5 10t-73.5 10q-41 0 -61 -20l-5 3q13 101 103 101q30 0 84 -11t68 -11q38 0 51 11q4 0 6 -3q-14 -90 -87 -90z" />
    <glyph glyph-name="uni0304" unicode="&#x304;" 
d="M-214 548q-44 0 -59.5 11.5t-15.5 43.5q0 14 4.5 19.5t16.5 6.5l191 9q44 2 60.5 -12.5t16.5 -51.5q0 -16 -4 -21t-16 -5h-194z" />
    <glyph glyph-name="uni0306" unicode="&#x306;" 
d="M-138 499q-45 0 -49 39q-19 4 -34 16t-15 33q0 44 38 107q58 0 62 -38q0 -11 -4.5 -25t-14.5 -38t-15 -38q43 7 74.5 45t45.5 79q17 0 33.5 -13.5t16.5 -31.5q0 -35 -40 -85t-98 -50z" />
    <glyph glyph-name="uni0307" unicode="&#x307;" 
d="M-47 547q-15 -15 -44.5 -11.5t-37.5 23.5q-26 11 -26 32q0 47 48 95q18 15 44.5 10t35.5 -22q27 -13 27 -32q0 -25 -13.5 -51.5t-33.5 -43.5z" />
    <glyph glyph-name="uni0308" unicode="&#x308;" 
d="M-204 550q-13 -12 -38 -9t-27 18q-21 10 -21 26q0 37 38 75q14 12 35.5 8t28.5 -18q21 -10 21 -25q0 -19 -10.5 -40.5t-26.5 -34.5zM-36 541q-13 -13 -38 -8.5t-29 21.5q-22 11 -22 26q0 40 38 76q17 14 41.5 7t24.5 -21q21 -11 21 -26q0 -20 -10 -41t-26 -34z" />
    <glyph glyph-name="uni030A" unicode="&#x30a;" 
d="M0 613q0 -44 -27 -69.5t-71 -25.5q-39 0 -67.5 26t-28.5 69t28.5 69.5t67.5 26.5q44 0 71 -26t27 -70zM-144 613q0 -22 12 -36.5t34 -14.5t35 14.5t13 36.5q0 23 -12.5 38t-34.5 15t-34.5 -15t-12.5 -38z" />
    <glyph glyph-name="uni030B" unicode="&#x30b;" 
d="M-372 522q-9 23 40 88.5t75 70.5q17 3 44 -17.5t35 -39.5q-33 -15 -165 -113q-22 -6 -29 11zM-194 522q-9 23 40 88.5t75 70.5q17 3 44 -17.5t35 -39.5q-33 -15 -165 -113q-22 -6 -29 11z" />
    <glyph glyph-name="uni030C" unicode="&#x30c;" 
d="M-138 511q-7 0 -17.5 10t-23.5 28l-24.5 34.5l-25 36.5t-18.5 28q14 19 28 19q16 0 44.5 -24.5t53.5 -59.5l108 82q13 -11 13 -29q0 -24 -56 -74.5t-82 -50.5z" />
    <glyph glyph-name="uni0326" unicode="&#x326;" 
d="M-53 -178q-16 -15 -43.5 -22t-49.5 0q16 15 35 49q-36 12 -36 35q0 35 43 78q20 17 50 9t30 -28q24 -7 24 -23q0 -23 -17 -52.5t-36 -45.5z" />
    <glyph glyph-name="uni0327" unicode="&#x327;" 
d="M-14 -148q-30 -33 -73 -27q-39 -22 -74 4q-27 21 -32.5 55.5t14.5 65.5q18 23 40 10q6 -65 45 -105q23 37 31 81t3 73.5t-15 38.5l2 2t2.5 0.5t2.5 -0.5t2.5 -1.5t3 -2.5t3.5 -3l4 -4l4.5 -4.5l4.5 -4.5q30 -24 42.5 -86.5t-10.5 -91.5z" />
    <glyph glyph-name="uni0328" unicode="&#x328;" 
d="M-125 -202q-16 0 -27.5 15.5t-16.5 35.5q-39 25 -39 68q0 37 50 77.5t88 40.5q5 0 11.5 0.5t10 0.5t6.5 -0.5t4.5 -2.5t1.5 -5q-23 0 -62 -48t-47 -112q69 8 121 69q24 -6 24 -32q0 -28 -46.5 -67.5t-78.5 -39.5z" />
    <glyph glyph-name="uni1E44" unicode="&#x1e44;" horiz-adv-x="547" 
d="M385 -7q-24 -1 -42.5 27.5t-24.5 61.5q-33 16 -37 60q-3 31 18.5 91t48.5 115l64 126q10 17 14 26q-80 -88 -171.5 -223t-152.5 -277q-29 0 -57.5 24t-28.5 69q0 39 82.5 243.5t147.5 343.5q34 0 62 -19t28 -47q0 -17 -19 -62.5t-59.5 -131.5l-52.5 -112q88 126 191 247
t131 121q29 0 55.5 -22t28.5 -41l-53 -100l-59.5 -112.5l-47 -94.5t-47 -107t-28.5 -88q40 11 81.5 38t70 53t64 69t49.5 62.5l41 57.5q34 -17 22 -41q-32 -61 -90 -141.5t-124.5 -147.5t-104.5 -68zM223 -164q-15 -15 -44.5 -11.5t-37.5 23.5q-26 11 -26 32q0 47 48 95
q18 15 44.5 10t35.5 -22q27 -13 27 -32q0 -25 -13.5 -51.5t-33.5 -43.5z" />
    <glyph glyph-name="uni1E45" unicode="&#x1e45;" horiz-adv-x="460" 
d="M299 -7q-26 0 -44.5 25.5t-24.5 56.5q-18 17 -21 42q-5 55 92 228q-147 -132 -252 -345q-25 0 -42 25t-17 55q0 12 3.5 26.5t11.5 35l12.5 32t16.5 37t14 30.5q30 68 63 134t37 76q76 0 76 -44q0 -22 -68 -132q70 80 138 133.5t99 53.5q20 0 42.5 -20t23.5 -34
q-88 -150 -146 -292q33 16 69.5 45.5t63 56.5t60 69t47.5 61l39 55q13 -5 20.5 -16.5t2.5 -25.5q-16 -43 -74 -129.5t-130 -162.5t-112 -76zM147 -171q-15 -15 -44.5 -11.5t-37.5 23.5q-26 11 -26 32q0 47 48 95q18 15 44.5 10t35.5 -22q27 -13 27 -32q0 -25 -13.5 -51.5
t-33.5 -43.5z" />
    <glyph glyph-name="uni1E60" unicode="&#x1e60;" horiz-adv-x="423" 
d="M159 -7q-78 0 -132.5 37.5t-50.5 116.5q20 -18 62 -29t88 -11q68 0 98.5 20t30.5 51q0 20 -16 41t-39.5 40.5l-46.5 40.5t-39 50.5t-16 61.5q0 100 92.5 194.5t174.5 94.5q47 0 64 -30q33 -6 58.5 -30t25.5 -65q0 -78 -50.5 -144.5t-122.5 -66.5q-48 0 -56 37
q49 39 88 99.5t46 138.5q-81 -43 -146.5 -122t-65.5 -130q0 -27 26 -56.5t57.5 -52t57.5 -54.5t26 -64q0 -73 -57.5 -120.5t-156.5 -47.5zM140 -202q-15 -15 -44.5 -11.5t-37.5 23.5q-26 11 -26 32q0 47 48 95q18 15 44.5 10t35.5 -22q27 -13 27 -32q0 -25 -13.5 -51.5
t-33.5 -43.5z" />
    <glyph glyph-name="uni1E61" unicode="&#x1e61;" horiz-adv-x="337" 
d="M109 -7q-55 0 -85.5 33.5t-30.5 78.5q0 21 5 35q29 -39 68 -39q37 0 64.5 28.5t27.5 74.5t-25 121q-41 -72 -80.5 -128.5t-56.5 -56.5q-20 0 -28 18.5t4 32.5q55 68 143 191q-2 10 -2 14q0 27 43.5 70.5t68.5 43.5q17 0 35.5 -20.5t25.5 -50.5q-9 -15 -36 -41.5
t-34 -37.5q49 -109 49 -184q0 -14 -1 -20q13 10 27 23l24.5 23.5t25.5 29l23 28t25.5 34l24 33.5l27.5 39l27 39q9 -1 20 -14t3 -30q-52 -101 -111 -185.5t-100 -109.5q-35 -20 -70 -25q-46 -48 -101 -48zM62 -176q-16 -15 -43.5 -22t-49.5 0q16 15 35 49q-36 12 -36 35
q0 35 43 78q19 17 49.5 9t30.5 -28q24 -7 24 -23q0 -23 -17 -52.5t-36 -45.5z" />
    <glyph glyph-name="Wgrave" unicode="&#x1e80;" horiz-adv-x="668" 
d="M503 738q-24 -8 -89.5 40.5t-70.5 75.5q-3 17 17.5 43.5t39.5 34.5q14 -29 112 -164q7 -22 -9 -30zM286 132q0 10 2 34q-44 -77 -92 -125t-91 -48q-64 0 -72 109q-23 20 -23 63q0 36 41 146t96 240t61 145q107 0 107 -74q0 -29 -33.5 -106t-106 -223l-86.5 -175
q55 14 110.5 72.5t102 143.5t80.5 162t62 158q48 0 73.5 -18t25.5 -44q0 -21 -30 -104.5t-81 -212l-63 -160.5q91 47 184 228.5t132 350.5q99 0 99 -72q0 -42 -39.5 -145t-95 -210t-124.5 -189t-119 -82q-39 0 -60 27.5t-26 61.5q-34 15 -34 47z" />
    <glyph glyph-name="wgrave" unicode="&#x1e81;" horiz-adv-x="643" 
d="M432 508q-24 -8 -89.5 40.5t-70.5 75.5q-3 17 17.5 43.5t39.5 34.5q14 -29 112 -164q7 -22 -9 -30zM533 70q-33 0 -51 46q-105 -123 -153 -123q-24 0 -40.5 20.5t-22.5 48.5q-27 12 -27 44v8q-86 -121 -137 -121q-28 0 -48 23.5t-25 51.5q-29 14 -29 55q0 52 35 133
t74 138t52 57q28 0 59 -16t20 -32q-21 -28 -73.5 -133.5t-82.5 -178.5q38 16 81 63t74 96l69.5 109t59.5 87q15 7 52 -7t27 -38q-51 -83 -144 -308q66 24 161 141q2 74 22 122q15 37 45.5 77.5t47.5 40.5q25 0 45 -16t20 -42q0 -46 -38 -119t-95 -146q20 4 41 15.5t39 24
t40 35l35.5 37t35 42l30 38.5t27.5 38t21 29q11 0 21.5 -13t1.5 -29q-13 -25 -25.5 -46.5t-46 -72.5t-62.5 -86t-67 -64t-69 -29z" />
    <glyph glyph-name="Wacute" unicode="&#x1e82;" horiz-adv-x="668" 
d="M479 752q-9 23 40 88.5t75 70.5q17 3 44 -17.5t35 -39.5q-33 -15 -165 -113q-22 -6 -29 11zM286 132q0 10 2 34q-44 -77 -92 -125t-91 -48q-64 0 -72 109q-23 20 -23 63q0 36 41 146t96 240t61 145q107 0 107 -74q0 -29 -33.5 -106t-106 -223l-86.5 -175
q55 14 110.5 72.5t102 143.5t80.5 162t62 158q48 0 73.5 -18t25.5 -44q0 -21 -30 -104.5t-81 -212l-63 -160.5q91 47 184 228.5t132 350.5q99 0 99 -72q0 -42 -39.5 -145t-95 -210t-124.5 -189t-119 -82q-39 0 -60 27.5t-26 61.5q-34 15 -34 47z" />
    <glyph glyph-name="wacute" unicode="&#x1e83;" horiz-adv-x="643" 
d="M408 522q-9 23 40 88.5t75 70.5q17 3 44 -17.5t35 -39.5q-33 -15 -165 -113q-22 -6 -29 11zM533 70q-33 0 -51 46q-105 -123 -153 -123q-24 0 -40.5 20.5t-22.5 48.5q-27 12 -27 44v8q-86 -121 -137 -121q-28 0 -48 23.5t-25 51.5q-29 14 -29 55q0 52 35 133t74 138
t52 57q28 0 59 -16t20 -32q-21 -28 -73.5 -133.5t-82.5 -178.5q38 16 81 63t74 96l69.5 109t59.5 87q15 7 52 -7t27 -38q-51 -83 -144 -308q66 24 161 141q2 74 22 122q15 37 45.5 77.5t47.5 40.5q25 0 45 -16t20 -42q0 -46 -38 -119t-95 -146q20 4 41 15.5t39 24t40 35
l35.5 37t35 42l30 38.5t27.5 38t21 29q11 0 21.5 -13t1.5 -29q-13 -25 -25.5 -46.5t-46 -72.5t-62.5 -86t-67 -64t-69 -29z" />
    <glyph glyph-name="Wdieresis" unicode="&#x1e84;" horiz-adv-x="668" 
d="M454 780q-13 -12 -38 -9t-27 18q-21 10 -21 26q0 37 38 75q14 12 35.5 8t28.5 -18q21 -10 21 -25q0 -19 -10.5 -40.5t-26.5 -34.5zM622 771q-13 -13 -38 -8.5t-29 21.5q-22 11 -22 26q0 40 38 76q17 14 41.5 7t24.5 -21q21 -11 21 -26q0 -20 -10 -41t-26 -34zM286 132
q0 10 2 34q-44 -77 -92 -125t-91 -48q-64 0 -72 109q-23 20 -23 63q0 36 41 146t96 240t61 145q107 0 107 -74q0 -29 -33.5 -106t-106 -223l-86.5 -175q55 14 110.5 72.5t102 143.5t80.5 162t62 158q48 0 73.5 -18t25.5 -44q0 -21 -30 -104.5t-81 -212l-63 -160.5
q91 47 184 228.5t132 350.5q99 0 99 -72q0 -42 -39.5 -145t-95 -210t-124.5 -189t-119 -82q-39 0 -60 27.5t-26 61.5q-34 15 -34 47z" />
    <glyph glyph-name="wdieresis" unicode="&#x1e85;" horiz-adv-x="643" 
d="M383 550q-13 -12 -38 -9t-27 18q-21 10 -21 26q0 37 38 75q14 12 35.5 8t28.5 -18q21 -10 21 -25q0 -19 -10.5 -40.5t-26.5 -34.5zM551 541q-13 -13 -38 -8.5t-29 21.5q-22 11 -22 26q0 40 38 76q16 14 41 7t25 -21q21 -11 21 -26q0 -20 -10 -41t-26 -34zM533 70
q-33 0 -51 46q-105 -123 -153 -123q-24 0 -40.5 20.5t-22.5 48.5q-27 12 -27 44v8q-86 -121 -137 -121q-28 0 -48 23.5t-25 51.5q-29 14 -29 55q0 52 35 133t74 138t52 57q28 0 59 -16t20 -32q-21 -28 -73.5 -133.5t-82.5 -178.5q38 16 81 63t74 96l69.5 109t59.5 87
q15 7 52 -7t27 -38q-51 -83 -144 -308q66 24 161 141q2 74 22 122q15 37 45.5 77.5t47.5 40.5q25 0 45 -16t20 -42q0 -46 -38 -119t-95 -146q20 4 41 15.5t39 24t40 35l35.5 37t35 42l30 38.5t27.5 38t21 29q11 0 21.5 -13t1.5 -29q-13 -25 -25.5 -46.5t-46 -72.5t-62.5 -86
t-67 -64t-69 -29z" />
    <glyph glyph-name="uni1EBC" unicode="&#x1ebc;" horiz-adv-x="379" 
d="M454 785q-30 0 -85.5 10t-73.5 10q-41 0 -61 -20l-5 3q13 101 103 101q30 0 84 -11t68 -11q38 0 51 11q5 0 6 -3q-14 -90 -87 -90zM534 354q-15 -32 -60.5 -91t-102.5 -120.5t-120 -106.5t-105 -45q-44 0 -75 26t-33 60q-61 28 -51 108q7 74 68 124.5t154 72.5
q-52 22 -84 53.5t-28 69.5q3 24 11 37q-4 11 -4 24q0 57 68 94.5t156 37.5q44 0 83 -9t55 -22q26 -19 26 -50q17 -13 14 -35q-7 -45 -62 -79.5t-93 -34.5q-20 0 -31 8.5t-9 23.5q86 55 119 104q-118 3 -231 -48q-5 -26 7.5 -50.5t39.5 -46t48 -34.5t50 -28q15 -7 10 -24.5
t-21 -22.5q-104 -39 -175 -108t-62 -141q80 8 191 84t221 203q14 0 23 -11t3 -23z" />
    <glyph glyph-name="uni1EBD" unicode="&#x1ebd;" horiz-adv-x="376" 
d="M352 555q-30 0 -85.5 10t-73.5 10q-41 0 -61 -20l-5 3q13 101 103 101q30 0 84 -11t68 -11q38 0 51 11q5 0 6 -3q-14 -90 -87 -90zM530 361q-33 -66 -94 -149t-136 -151t-125 -68q-49 0 -83.5 28t-43.5 77q-39 25 -39 80q0 60 39.5 129.5t98 116t110.5 46.5q69 0 80 -51
q31 -18 31 -48q0 -64 -66.5 -133.5t-122.5 -69.5q-18 0 -33.5 12t-22.5 27q-21 -54 -23 -104q17 -5 29 -5q177 -6 378 305q8 0 19.5 -13t3.5 -29zM130 224q44 11 99 69t77 112q-52 -14 -99.5 -64.5t-76.5 -116.5z" />
    <glyph glyph-name="Ygrave" unicode="&#x1ef2;" horiz-adv-x="476" 
d="M421 738q-24 -8 -89.5 40.5t-70.5 75.5q-3 17 17.5 43.5t39.5 34.5q14 -29 112 -164q7 -22 -9 -30zM244 -200q-15 0 -31 4.5t-33 21.5t-19 43q0 10 12.5 42t36.5 85.5l44 95.5l51.5 109.5l42.5 90.5q-178 -299 -240 -299q-27 0 -44 18.5t-21.5 38t-7.5 48.5
q-25 21 -25 64q0 46 94.5 276t100.5 259q48 0 78.5 -18t30.5 -57q0 -63 -211 -483q47 20 98 72t101 127.5t84.5 133.5t76 135.5t48.5 88.5q47 0 67.5 -17t20.5 -42q0 -16 -50.5 -129l-142.5 -321.5t-162 -386.5z" />
    <glyph glyph-name="ygrave" unicode="&#x1ef3;" horiz-adv-x="435" 
d="M333 508q-24 -8 -89.5 40.5t-70.5 75.5q-3 17 17.5 43.5t39.5 34.5q14 -29 112 -164q7 -22 -9 -30zM145 -237q-46 0 -72 18.5t-26 51.5t26 62.5t78 71.5q29 69 101 208q-101 -167 -162 -168q-38 -1 -52 24.5t-15 61.5q-16 16 -16 44q0 47 37.5 122.5t108.5 191.5
q27 1 54 -12.5t28 -27.5q0 -8 -26.5 -57.5l-66 -124t-61.5 -125.5q27 10 58 34.5t54.5 49.5t54 66.5t46.5 65l44 67.5l34 53q10 0 26.5 -3t35.5 -17t15 -37q-93 -151 -171 -309q154 138 287 307q8 0 17.5 -9t9.5 -22q0 -47 -123.5 -176.5t-251.5 -229.5q-47 -109 -72 -181z
" />
    <glyph glyph-name="uni1EF8" unicode="&#x1ef8;" horiz-adv-x="476" 
d="M482 785q-30 0 -85.5 10t-73.5 10q-41 0 -61 -20l-5 3q13 101 103 101q30 0 84 -11t68 -11q38 0 51 11q5 0 6 -3q-14 -90 -87 -90zM244 -200q-15 0 -31 4.5t-33 21.5t-19 43q0 10 12.5 42t36.5 85.5l44 95.5l51.5 109.5l42.5 90.5q-178 -299 -240 -299q-27 0 -44 18.5
t-21.5 38t-7.5 48.5q-25 21 -25 64q0 46 94.5 276t100.5 259q48 0 78.5 -18t30.5 -57q0 -63 -211 -483q47 20 98 72t101 127.5t84.5 133.5t76 135.5t48.5 88.5q47 0 67.5 -17t20.5 -42q0 -16 -50.5 -129l-142.5 -321.5t-162 -386.5z" />
    <glyph glyph-name="uni1EF9" unicode="&#x1ef9;" horiz-adv-x="435" 
d="M394 555q-30 0 -85.5 10t-73.5 10q-41 0 -61 -20l-5 3q13 101 103 101q30 0 84 -11t68 -11q38 0 51 11q5 0 6 -3q-14 -90 -87 -90zM145 -237q-46 0 -72 18.5t-26 51.5t26 62.5t78 71.5q29 69 101 208q-101 -167 -162 -168q-38 -1 -52 24.5t-15 61.5q-16 16 -16 44
q0 47 37.5 122.5t108.5 191.5q27 1 54 -12.5t28 -27.5q0 -8 -26.5 -57.5l-66 -124t-61.5 -125.5q27 10 58 34.5t54.5 49.5t54 66.5t46.5 65l44 67.5l34 53q10 0 26.5 -3t35.5 -17t15 -37q-93 -151 -171 -309q154 138 287 307q8 0 17.5 -9t9.5 -22q0 -47 -123.5 -176.5
t-251.5 -229.5q-47 -109 -72 -181z" />
    <glyph glyph-name="endash" unicode="&#x2013;" horiz-adv-x="611" 
d="M544 397q30 -5 27 -83q-214 5 -390 -21q-9 16 -13.5 37t0.5 40t22 23q65 13 178 14t176 -10z" />
    <glyph glyph-name="emdash" unicode="&#x2014;" horiz-adv-x="750" 
d="M682 400q30 -5 27 -83q-99 2 -278.5 -6t-249.5 -18q-9 16 -13.5 37t0.5 40t22 23q66 13 247.5 15.5t244.5 -8.5z" />
    <glyph glyph-name="quoteleft" unicode="&#x2018;" horiz-adv-x="279" 
d="M168 522q-10 55 44.5 127t93.5 80q5 1 10 1.5t9.5 0t8 -1t7.5 -2.5t6.5 -2.5t6.5 -3l5.5 -3.5t5.5 -4t5 -3q-92 -138 -131 -231q-25 1 -46.5 11.5t-24.5 30.5z" />
    <glyph glyph-name="quoteright" unicode="&#x2019;" horiz-adv-x="317" 
d="M378 696q18 -53 -22.5 -133t-78.5 -95q-32 -12 -65 8q66 154 89 249q63 9 77 -29z" />
    <glyph glyph-name="quotesinglbase" unicode="&#x201a;" horiz-adv-x="310" 
d="M87 -121q-21 10 -13.5 79t35.5 140q25 62 74 44q48 -18 26 -84q-26 -72 -64 -129t-58 -50z" />
    <glyph glyph-name="quotedblleft" unicode="&#x201c;" horiz-adv-x="491" 
d="M215 522q-10 55 44.5 127t93.5 80q5 1 10 1.5t9.5 0t8 -1t7.5 -2.5t6.5 -2.5t6.5 -3l5.5 -3.5t5.5 -4t5 -3q-92 -138 -131 -231q-25 1 -46.5 11.5t-24.5 30.5zM399 522q-10 55 44.5 127t93.5 80q5 1 10 1.5t9.5 0t8 -1t7.5 -2.5t6.5 -2.5t6.5 -3l5.5 -3.5t5.5 -4t5 -3
q-92 -138 -131 -231q-25 1 -46.5 11.5t-24.5 30.5z" />
    <glyph glyph-name="quotedblright" unicode="&#x201d;" horiz-adv-x="491" 
d="M378 696q18 -53 -22.5 -133t-78.5 -95q-32 -12 -65 8q66 154 89 249q63 9 77 -29zM552 696q18 -53 -22.5 -133t-78.5 -95q-32 -12 -65 8q66 154 89 249q63 9 77 -29z" />
    <glyph glyph-name="quotedblbase" unicode="&#x201e;" horiz-adv-x="391" 
d="M97 -121q-21 10 -13.5 79t35.5 140q25 62 74 44q48 -18 26 -84q-26 -72 -64 -129t-58 -50zM258 -121q-21 10 -13.5 79t35.5 140q25 62 74 44q48 -18 26 -84q-26 -72 -64 -129t-58 -50z" />
    <glyph glyph-name="dagger" unicode="&#x2020;" horiz-adv-x="501" 
d="M584 552q-60 4 -151 4l-159.5 -396t-130.5 -294q-21 2 -41.5 19.5t-24.5 39.5q-5 30 244 630q-25 -1 -62 -1q-57 0 -57 47q0 33 15 63q39 8 154 12l58 138q25 5 47.5 -12.5t26.5 -48.5q1 -7 -24 -76h38q52 0 74.5 -13.5t20.5 -43.5q-1 -15 -9.5 -36.5t-18.5 -31.5z" />
    <glyph glyph-name="daggerdbl" unicode="&#x2021;" horiz-adv-x="501" 
d="M492 283q-67 4 -166 4q-133 -325 -183 -421q-21 2 -41.5 19.5t-24.5 39.5t133 360h-43q-57 0 -57 47q0 33 15 63q36 7 134 11l62 149q-25 -1 -62 -1q-57 0 -57 47q0 33 15 63q39 8 154 12l58 138q25 5 47.5 -12.5t26.5 -48.5q1 -7 -24 -76h38q52 0 74.5 -13.5t20.5 -43.5
q-1 -15 -9.5 -36.5t-18.5 -31.5q-60 4 -151 4l-58 -148h50q52 0 74.5 -13.5t20.5 -43.5q-1 -15 -9.5 -36.5t-18.5 -31.5z" />
    <glyph glyph-name="bullet" unicode="&#x2022;" horiz-adv-x="381" 
d="M254 274q-22 -22 -66.5 -16.5t-56.5 33.5q-40 17 -40 46q0 34 22 74t51 67q27 24 68.5 16t52.5 -35q36 -19 36 -45q0 -37 -19 -76.5t-48 -63.5z" />
    <glyph glyph-name="ellipsis" unicode="&#x2026;" horiz-adv-x="840" 
d="M195 5q-16 -16 -48.5 -12.5t-41.5 24.5q-29 14 -29 34q0 25 16 54t37 49q20 17 49.5 11.5t38.5 -25.5q27 -13 27 -33q0 -27 -14 -56t-35 -46zM715 5q-16 -16 -48.5 -12.5t-41.5 24.5q-29 14 -29 34q0 25 16 54t37 49q20 17 49.5 11.5t38.5 -25.5q27 -13 27 -33
q0 -27 -14 -56t-35 -46zM444 0q-20 -17 -49.5 -11.5t-38.5 25.5q-27 13 -27 33q0 27 14 56t35 46q16 16 48.5 12.5t41.5 -24.5q29 -14 29 -34q0 -25 -16 -54t-37 -49z" />
    <glyph glyph-name="perthousand" unicode="&#x2030;" horiz-adv-x="920" 
d="M252 367q-23 0 -40 13t-24 31q-17 9 -29.5 26.5t-12.5 35.5q0 66 56 141t111 75q28 0 45.5 -16.5t21.5 -33.5q-9 0 -18 -4q44 -16 44 -60q0 -65 -55.5 -136.5t-98.5 -71.5zM630 675q28 0 49 -22.5t18 -55.5q-105 -110 -274 -307.5t-259 -315.5q-24 6 -49.5 39.5
t-10.5 51.5l256 303.5t270 306.5zM214 437q88 45 134 191q-40 -24 -81 -81t-53 -110zM488 -21q-23 0 -40.5 13.5t-23.5 32.5q-17 8 -29.5 24.5t-12.5 34.5q0 66 56.5 141.5t111.5 75.5q28 0 45.5 -16t21.5 -33q-10 0 -18 -4q43 -19 43 -60q0 -65 -55 -137t-99 -72zM775 -21
q-23 0 -41 14t-24 32q-17 9 -29.5 25.5t-12.5 33.5q0 66 56 141.5t112 75.5q28 0 46 -16.5t21 -32.5q-9 0 -18 -4q43 -18 43 -60q0 -65 -55 -137t-98 -72zM737 49q88 46 135 193q-40 -23 -81.5 -81t-53.5 -112zM451 49q89 47 134 192q-40 -24 -81 -81.5t-53 -110.5z" />
    <glyph glyph-name="guilsinglleft" unicode="&#x2039;" horiz-adv-x="312" 
d="M233 214q-57 33 -124.5 81.5t-67.5 67.5q0 31 68.5 96.5t104.5 65.5q20 0 51 -28l-115 -115q49 -30 84 -64t35 -53q0 -11 -13.5 -28t-22.5 -23z" />
    <glyph glyph-name="guilsinglright" unicode="&#x203a;" horiz-adv-x="312" 
d="M127 214q-9 6 -22.5 23t-13.5 28q0 19 35 53t84 64l-115 115q32 28 51 28q36 0 104.5 -65.5t68.5 -96.5q0 -19 -67.5 -67.5t-124.5 -81.5z" />
    <glyph glyph-name="uni20A9" unicode="&#x20a9;" horiz-adv-x="878" 
d="M416 132q0 10 2 34q-44 -77 -92 -125t-91 -48q-64 0 -72 109q-23 20 -23 63q0 30 36 133l-70 -4q-26 53 22 62q23 4 72 5q24 62 37 93q-81 -1 -116 -5q-13 23 -8.5 42.5t30.5 23.5q23 4 122 7q68 160 73 174q107 0 107 -74q0 -27 -30 -96q18 0 54.5 0.5t55.5 0.5
q29 69 49 127q48 0 73.5 -18t25.5 -44q0 -17 -17 -65q74 0 107 -1q34 91 52 168q99 0 99 -72q0 -34 -23 -101q33 -4 37 -5q21 -5 25 -22.5t-1 -34.5q-38 2 -83 2q-15 -40 -40 -93q70 -3 85 -7q14 -4 20.5 -13.5t5.5 -20.5t-2 -24q-32 2 -138 4q-67 -133 -138 -222t-126 -89
q-39 0 -60 27.5t-26 61.5q-34 15 -34 47zM696 370q21 42 42 92h-105l-34 -92h97zM341 366l109 3q24 43 46 91q-19 0 -56 -0.5t-55 -1.5q-17 -39 -44 -92zM499 115q78 40 164 192q-14 0 -44 -0.5t-45 -0.5zM219 118q96 26 194 186q-72 -2 -104 -2z" />
    <glyph glyph-name="Euro" unicode="&#x20ac;" horiz-adv-x="555" 
d="M503 119q0 -43 -53.5 -85.5t-101.5 -42.5q-50 0 -82.5 24t-42.5 64q-70 20 -70 114q0 18 1 27q-45 -5 -74 -9q-30 52 19 63q41 7 65 10q5 19 17 59q-33 -3 -91 -10q-32 56 19 67q28 6 101 13q56 120 143 202t180 82q21 0 42 -18.5t28 -37.5q19 -6 30 -18.5t11 -22.5
q0 -12 -18.5 -62.5t-25.5 -80.5q-36 0 -62.5 17.5t-26.5 47.5q0 46 39 100q-111 -47 -197 -201q118 3 159 -5q15 -3 21.5 -12t6 -20t-0.5 -24q-100 2 -219 -6q-9 -19 -23 -59q153 9 205 -1q15 -3 21.5 -12t6 -20t-0.5 -24q-93 3 -251 -8q-18 -74 -17 -140q33 -9 76 5
t62.5 26.5l71.5 46.5q32 -27 32 -49z" />
    <glyph glyph-name="uni2120" unicode="&#x2120;" horiz-adv-x="622" 
d="M156 332q-40 0 -68 19t-26 60q24 -21 77 -21q66 0 66 36q0 15 -20 33t-40 40t-20 48q0 51 47.5 99.5t89.5 48.5q23 0 33 -15q16 -4 29 -16.5t13 -32.5q0 -40 -25.5 -74t-62.5 -34q-24 0 -29 18q62 50 69 123q-42 -22 -75.5 -62.5t-33.5 -66.5q0 -21 43 -56.5t43 -60.5
q0 -37 -29.5 -61.5t-80.5 -24.5zM595 331q-16 0 -33 10t-17 25q0 27 30 106.5t59 130.5q-38 -46 -93.5 -131t-79.5 -137q-16 0 -28 7.5t-12 22.5q0 46 90 237q-44 -47 -95 -122t-79 -145q-39 0 -39 42q0 29 40.5 129t75.5 169q17 0 31.5 -11.5t14.5 -26.5q0 -16 -58 -132
q118 174 138 174q15 0 31.5 -14.5t18.5 -27.5q-17 -34 -55 -126q42 62 84.5 113.5t56.5 51.5q13 0 27.5 -11.5t15.5 -19.5q-105 -239 -124 -314z" />
    <glyph glyph-name="trademark" unicode="&#x2122;" horiz-adv-x="597" 
d="M332 621q-18 1 -60 1q-19 -48 -127 -280q-16 0 -30.5 10t-14.5 25q0 22 103 244h-32q-29 0 -29 24q0 19 8 31q31 6 149 6q26 0 37 -6.5t10 -21.5q-2 -23 -14 -33zM570 331q-16 0 -33 10t-17 25q0 27 30 106.5t59 130.5q-38 -46 -93.5 -131t-79.5 -137q-16 0 -28 7.5
t-12 22.5q0 46 90 237q-44 -47 -95 -122t-79 -145q-39 0 -39 42q0 29 40.5 129t75.5 169q17 0 31.5 -11.5t14.5 -26.5q0 -16 -58 -132q118 174 138 174q15 0 31.5 -14.5t18.5 -27.5q-17 -34 -55 -126q42 62 84.5 113.5t56.5 51.5q13 0 27.5 -11.5t15.5 -19.5
q-105 -239 -124 -314z" />
    <glyph glyph-name="minus" unicode="&#x2212;" horiz-adv-x="540" 
d="M480 400q48 -10 45 -86q-230 -2 -359 -21q-9 16 -13.5 37t0.5 40t22 23q66 13 162 15.5t143 -8.5z" />
    <glyph glyph-name="approxequal" unicode="&#x2248;" horiz-adv-x="547" 
d="M462 402q-40 0 -113 12t-97 12q-56 0 -80 -24l-7 3q19 122 136 122q39 0 110.5 -13.5t89.5 -13.5q31 0 43.5 2t23.5 12q6 0 9 -4q-10 -53 -37 -80.5t-78 -27.5zM427 211q-40 0 -113 12t-97 12q-56 0 -80 -24l-7 3q19 122 136 122q39 0 110.5 -13.5t89.5 -13.5
q31 0 43.5 2t23.5 12q6 0 9 -4q-10 -53 -37 -80.5t-78 -27.5z" />
    <glyph glyph-name="notequal" unicode="&#x2260;" horiz-adv-x="547" 
d="M427 211q-30 0 -109 11l-60 -130q-26 0 -26 34q0 29 28 106q-24 3 -43 3q-56 0 -80 -24l-7 3q19 122 136 122q11 0 35 -2l36 82q-64 10 -85 10q-56 0 -80 -24l-7 3q19 122 136 122q33 0 83 -9l60 129q13 0 22.5 -9t9.5 -26t-34 -104q37 -8 59 -8q31 0 43.5 2t23.5 12
q6 0 9 -4q-10 -53 -37 -80.5t-78 -27.5q-20 0 -62 4l-36 -81q82 -16 102 -16q31 0 43.5 2t23.5 12q6 0 9 -4q-10 -53 -37 -80.5t-78 -27.5z" />
    <glyph glyph-name="lessequal" unicode="&#x2264;" horiz-adv-x="506" 
d="M399 191q-69 55 -143.5 129t-70.5 98q4 25 53.5 68t109 75t88.5 28q30 -5 60 -45l-170 -123q57 -48 95 -98t34 -74q-3 -14 -23 -33t-33 -25zM422 157q19 -4 28 -20t8 -32.5t-1 -30.5q-151 -1 -285 -21q-7 12 -11 26.5t-5 29t5.5 25.5t19.5 14q147 30 241 9z" />
    <glyph glyph-name="greaterequal" unicode="&#x2265;" horiz-adv-x="500" 
d="M464 371q-4 -25 -53.5 -68t-109 -75t-88.5 -28q-30 5 -60 45l170 123q-57 48 -95 98t-34 74q3 14 23 33t33 25q69 -55 143.5 -129t70.5 -98zM406 157q19 -4 28 -20t8 -32.5t-1 -30.5q-151 -1 -285 -21q-7 12 -11 26.5t-5 29t5.5 25.5t19.5 14q147 30 241 9z" />
    <glyph glyph-name="uni24C5" unicode="&#x24c5;" horiz-adv-x="696" 
d="M458 30q-17 0 -30 5q-47 -49 -110 -49q-93 0 -171.5 85t-78.5 188q0 109 50 208.5t128 158t160 58.5q54 0 99.5 -30t68.5 -76q51 -25 78 -83.5t27 -120.5q0 -139 -70.5 -241.5t-150.5 -102.5zM379 90q37 0 69 6q67 61 102 162.5t33 185.5q-2 50 -31 98q-49 31 -128 31
q-116 0 -199.5 -92t-104.5 -243q17 -46 46 -77t66 -45.5t71 -20t76 -5.5zM334 275q-6 0 -12 3q-28 -64 -48 -119q-14 0 -29 9.5t-16 28.5q-1 20 33.5 95.5t75.5 150.5q-14 -3 -28 -9q-15 13 -15 30q0 20 36 31.5t80 11.5q57 0 74 -32q25 -6 25 -35q1 -18 -10.5 -45
t-32.5 -54.5t-56.5 -46.5t-76.5 -19zM401 440q-36 -65 -62 -123q93 43 126 133q-25 5 -68 3q4 -8 4 -13z" />
    <glyph glyph-name="uniF6C3" unicode="&#xf6c3;" 
d="M-53 -178q-16 -15 -43.5 -22t-49.5 0q16 15 35 49q-36 12 -36 35q0 35 43 78q20 17 50 9t30 -28q24 -7 24 -23q0 -23 -17 -52.5t-36 -45.5z" />
    <glyph glyph-name="uniF8FF" unicode="&#xf8ff;" horiz-adv-x="737" 
d="M464 164q-69 -98 -162 -98q-39 0 -63.5 19.5t-24.5 50.5q0 26 19 44.5t45 18.5q40 0 40 -32q0 -31 -34 -31q-12 0 -20 7t-8 17q0 14 7 23q-31 -15 -31 -47q0 -25 18.5 -38.5t45.5 -13.5q65 0 110 99q-78 26 -203 87q-62 -64 -122 -64q-31 0 -50.5 13.5t-19.5 38.5
q0 31 27 50t78 19q28 0 58 -6q17 38 43 117q-107 7 -107 81q0 35 22 58t53 23q20 0 30.5 -10t10.5 -24t-8 -23t-20 -9q-30 0 -30 26q0 13 6 23q-46 -19 -46 -64q0 -55 92 -64q37 96 82.5 140.5t86.5 44.5q52 0 52 -52q0 -56 -42.5 -99t-105.5 -51q-31 -89 -61 -128
q31 -8 65 -20.5t75.5 -30.5t57.5 -24q3 10 12 28.5t11 23.5q29 69 57 104q-52 18 -99 18q-37 0 -56 -15.5t-19 -42.5q0 -21 13.5 -31t32.5 -10q31 0 42 29q-7 -5 -18 -5q-29 0 -29 25q0 29 31 29q15 0 24 -10t9 -27q0 -23 -17 -41t-42 -18q-27 0 -45.5 17t-18.5 47
q0 41 34 70t89 29q58 0 104 -17q36 43 76 58l11 -7q-21 -16 -46 -63q8 0 26 -3t26 -3q33 0 48.5 17.5t15.5 45.5q0 38 -29 57.5t-75 19.5q-64 0 -88 -29q30 0 30 -25q0 -28 -30 -28q-13 0 -21 8t-8 21q0 30 34.5 50t82.5 20q59 0 93 -27.5t34 -71.5q0 -40 -30 -72t-86 -32
q-35 0 -47 5q-8 -17 -24 -59t-28 -68q-8 -23 -23 -46q53 -18 92 -18q31 0 53.5 19t22.5 45q0 36 -40 46q11 -11 11 -23q0 -13 -10 -21.5t-24 -8.5t-24.5 8.5t-10.5 21.5q0 18 13.5 29t38.5 11q27 0 45 -17t18 -46q0 -45 -34.5 -72t-98.5 -27q-24 0 -75 11zM394 623
q-21 0 -41 -36.5t-51 -126.5q49 9 82 45t33 83q0 35 -23 35zM75 223q41 0 81 64q-43 17 -70 17q-22 0 -36.5 -12.5t-14.5 -33.5q0 -35 40 -35z" />
    <glyph glyph-name="ampersand.alt" horiz-adv-x="299" 
d="M260 641q-15 14 -4 67.5t31 71.5q11 10 28 7t30 -10t23 -15q-43 -54 -85 -127q-13 -3 -23 6zM303 221q0 -44 -54 -94t-104 -50q-64 0 -95 63q-31 10 -50.5 32.5t-15.5 55.5q5 52 49 85t113 47q-39 16 -63.5 39t-21.5 50q1 14 11 27q-5 10 -5 17q0 42 57 75.5t121 33.5
q98 0 114 -58q20 -14 17 -35q-6 -36 -33 -62t-58 -26q-18 0 -32.5 12.5t-12.5 24.5q48 30 71 64q-77 -1 -155 -46q-5 -56 95 -106q8 -3 8.5 -10.5t-4.5 -14.5t-12 -8q-57 -20 -104 -65t-51 -93q48 -12 99.5 12.5t91.5 71.5q24 -22 24 -42zM112 49q14 -15 0.5 -78t-34.5 -78
q-14 -7 -41 0t-40 18q23 30 86 137q2 1 4.5 2.5t10.5 3t14 -4.5z" />
    <glyph glyph-name="ampersand.alt2" horiz-adv-x="516" 
d="M260 -85q-29 0 -41 7q41 24 41 103q0 31 -14 94q-14 -52 -51 -85t-77 -33q-32 0 -53.5 24.5t-27.5 62.5q-47 23 -47 82q0 57 56 116.5t108 79.5q-45 99 -23 178t79.5 127.5t118.5 48.5q17 0 35.5 -10t24.5 -25q28 -4 39.5 -21t11.5 -56q0 -64 -65.5 -147.5t-163.5 -131.5
q2 -2 41.5 -46t61.5 -72q35 53 54 77q-27 -3 -60 -9q-9 10 -6 35t20 35q43 26 111 26q50 0 82 -11q32 -10 22 -74q-53 5 -83 4q-47 -63 -115 -117q52 -75 52 -133q0 -56 -34.5 -92.5t-96.5 -36.5zM204 394q63 56 109.5 129t54.5 143q-53 -20 -105.5 -99.5t-58.5 -172.5z
M81 106q62 -3 151 66q-18 61 -46 125q-39 -39 -70 -94t-35 -97z" />
    <glyph glyph-name="ampersand.alt3" horiz-adv-x="554" 
d="M419 167q0 -81 -65 -135.5t-145 -54.5q-63 0 -108 27t-46 72q-63 28 -53 109q7 77 65.5 133.5t147.5 81.5q-123 26 -123 105q0 24 12 39q-5 12 -5 22q0 48 65.5 90t147.5 42q96 0 134 -31q22 -17 26 -49q17 -14 14 -36q-8 -46 -48.5 -76t-76.5 -30q-29 0 -45.5 11
t-14.5 27q4 3 16.5 10.5t16 10t13.5 9t14.5 10t12 10t12.5 11.5t11 12t11 14q-136 -2 -215 -51q-1 -13 2.5 -25.5t14 -24.5t19 -20t27.5 -19l27.5 -16t30 -15.5l25.5 -12.5q15 -7 10 -24.5t-21 -22.5q-110 -41 -173.5 -116t-40.5 -166q26 -4 40 -4q47 0 96 28t87 81
q-56 -9 -95 -20q-14 18 -14.5 45t18.5 44q87 60 228 60q73 0 121 -17q26 -8 32.5 -44.5t-1.5 -63.5q-125 12 -219 5q12 -15 12 -35z" />
    <glyph glyph-name="swash" horiz-adv-x="447" 
d="M94 386q-34 0 -60.5 15.5t-26.5 49.5q0 15 5 27q-12 14 -12 42q0 42 41 77.5t99.5 56t114.5 32t95 11.5q44 0 69.5 -17t26.5 -41.5t-13 -52.5q-86 0 -188.5 -25.5t-182.5 -73.5q14 -7 105 -40q-15 -61 -73 -61z" />
    <glyph glyph-name="gravecomb.case" 
d="M-11 508q-24 -8 -89.5 40.5t-70.5 75.5q-3 17 17.5 43.5t39.5 34.5q14 -29 112 -164q7 -22 -9 -30z" />
    <glyph glyph-name="acutecomb.case" 
d="M-194 522q-9 23 40 88.5t75 70.5q17 3 44 -17.5t35 -39.5q-33 -15 -165 -113q-22 -6 -29 11z" />
    <glyph glyph-name="uni0302.case" 
d="M-28 517q-16 0 -44.5 24.5t-53.5 59.5l-108 -82q-13 11 -13 29q0 24 56 74.5t82 50.5q7 0 17.5 -10t23.5 -28l24.5 -34.5l25 -36.5t18.5 -28q-14 -19 -28 -19z" />
    <glyph glyph-name="tildecomb.case" 
d="M-87 555q-30 0 -85.5 10t-73.5 10q-41 0 -61 -20l-5 3q13 101 103 101q30 0 84 -11t68 -11q38 0 51 11q4 0 6 -3q-14 -90 -87 -90z" />
    <glyph glyph-name="uni0304.case" 
d="M-214 548q-44 0 -59.5 11.5t-15.5 43.5q0 14 4.5 19.5t16.5 6.5l191 9q44 2 60.5 -12.5t16.5 -51.5q0 -16 -4 -21t-16 -5h-194z" />
    <glyph glyph-name="uni0306.case" 
d="M-138 499q-45 0 -49 39q-19 4 -34 16t-15 33q0 44 38 107q58 0 62 -38q0 -11 -4.5 -25t-14.5 -38t-15 -38q43 7 74.5 45t45.5 79q17 0 33.5 -13.5t16.5 -31.5q0 -35 -40 -85t-98 -50z" />
    <glyph glyph-name="uni0307.case" 
d="M-47 547q-15 -15 -44.5 -11.5t-37.5 23.5q-26 11 -26 32q0 47 48 95q18 15 44.5 10t35.5 -22q27 -13 27 -32q0 -25 -13.5 -51.5t-33.5 -43.5z" />
    <glyph glyph-name="uni0308.case" 
d="M-204 550q-13 -12 -38 -9t-27 18q-21 10 -21 26q0 37 38 75q14 12 35.5 8t28.5 -18q21 -10 21 -25q0 -19 -10.5 -40.5t-26.5 -34.5zM-36 541q-13 -13 -38 -8.5t-29 21.5q-22 11 -22 26q0 40 38 76q17 14 41.5 7t24.5 -21q21 -11 21 -26q0 -20 -10 -41t-26 -34z" />
    <glyph glyph-name="uni030A.case" 
d="M0 613q0 -44 -27 -69.5t-71 -25.5q-39 0 -67.5 26t-28.5 69t28.5 69.5t67.5 26.5q44 0 71 -26t27 -70zM-155 613q0 -28 15 -46t42 -18q28 0 43.5 18.5t15.5 45.5q0 29 -15.5 47t-42.5 18t-42.5 -18t-15.5 -47z" />
    <glyph glyph-name="uni030B.case" 
d="M-372 522q-9 23 40 88.5t75 70.5q17 3 44 -17.5t35 -39.5q-33 -15 -165 -113q-22 -6 -29 11zM-194 522q-9 23 40 88.5t75 70.5q17 3 44 -17.5t35 -39.5q-33 -15 -165 -113q-22 -6 -29 11z" />
    <glyph glyph-name="uni030C.case" 
d="M-138 511q-7 0 -17.5 10t-23.5 28l-24.5 34.5l-25 36.5t-18.5 28q14 19 28 19q16 0 44.5 -24.5t53.5 -59.5l108 82q13 -11 13 -29q0 -24 -56 -74.5t-82 -50.5z" />
    <glyph glyph-name="uni0326.case" 
d="M-53 -178q-16 -15 -43.5 -22t-49.5 0q16 15 35 49q-36 12 -36 35q0 35 43 78q20 17 50 9t30 -28q24 -7 24 -23q0 -23 -17 -52.5t-36 -45.5z" />
    <glyph glyph-name="uni0327.case" 
d="M-14 -148q-30 -33 -73 -27q-39 -22 -74 4q-27 21 -32.5 55.5t14.5 65.5q18 23 40 10q6 -65 45 -105q23 37 31 81t3 73.5t-15 38.5l2 2t2.5 0.5t2.5 -0.5t2.5 -1.5t3 -2.5t3.5 -3l4 -4l4.5 -4.5l4.5 -4.5q30 -24 42.5 -86.5t-10.5 -91.5z" />
    <glyph glyph-name="uni0328.case" 
d="M-125 -202q-16 0 -27.5 15.5t-16.5 35.5q-39 25 -39 68q0 37 50 77.5t88 40.5q5 0 11.5 0.5t10 0.5t6.5 -0.5t4.5 -2.5t1.5 -5q-23 0 -62 -48t-47 -112q69 8 121 69q24 -6 24 -32q0 -28 -46.5 -67.5t-78.5 -39.5z" />
    <glyph glyph-name="zero.osf" horiz-adv-x="497" 
d="M238 0q-29 0 -56 23t-26 54q-78 17 -83 112q-3 60 17 128.5t57 128t96 99t126 39.5q52 0 73 -50q43 -9 69 -48t26 -84q0 -57 -23.5 -126.5t-62.5 -131t-96 -103t-117 -41.5zM190 86q79 28 146 157t81 252q-91 -23 -157 -146.5t-70 -262.5z" />
    <glyph glyph-name="one.osf" horiz-adv-x="296" 
d="M163 -4q-24 0 -62 26.5t-38 47.5q0 64 150 359l-62 -37q-8 0 -26.5 18.5t-19.5 29.5q-1 28 76 83t115 55q31 0 51 -40q28 -22 29 -38q-121 -216 -213 -504z" />
    <glyph glyph-name="two.osf" horiz-adv-x="399" 
d="M223 27q-75 0 -158 -16q-14 0 -22.5 23t-8.5 49q0 10 1 14q-11 8 -11 18q0 36 35.5 77t86.5 78.5l103 75t90.5 79t42.5 78.5q-63 -8 -120 -41.5t-88 -68.5q-13 2 -28.5 27t-15.5 48q0 37 66 75t123 38q40 0 72.5 -17t40.5 -45q47 -31 47 -83q0 -40 -33 -78.5t-77 -66.5
l-107.5 -72t-104.5 -82q31 4 69 4q83 0 123 -42q11 -11 17.5 -37t4.5 -46q-80 11 -148 11z" />
    <glyph glyph-name="three.osf" horiz-adv-x="440" 
d="M161 -136q-52 0 -70 43l-7 -1q-37 0 -66 36t-31 73q-3 49 19 93t42 44q13 0 41 -28t29 -45q-14 -24 -15.5 -69t7.5 -71q61 18 118 92.5t70 169.5q-33 -4 -79 -14q-16 5 -29.5 32.5t-3.5 38.5q89 28 144 99t64 149q-61 -10 -115 -42.5t-80 -65.5q-13 2 -29.5 27t-16.5 47
q-2 36 61 74t118 38q41 0 74 -17.5t42 -45.5q46 -33 46 -80q0 -50 -38.5 -114t-99.5 -95q29 -14 46.5 -40.5t17.5 -57.5q0 -25 -9.5 -58.5t-30.5 -71t-50 -68.5t-73.5 -51.5t-95.5 -20.5z" />
    <glyph glyph-name="four.osf" horiz-adv-x="506" 
d="M483 72h-100q-50 -111 -89 -214q-23 0 -59 26.5t-37 47.5q-1 24 48 136q-78 -5 -151 -17q-17 6 -31.5 40t-10.5 59q-16 18 -16 31q0 35 87.5 133t194 182.5t150.5 84.5q25 0 51.5 -19.5t27.5 -43.5q-13 -7 -39 -23q26 -3 52.5 -17.5t27.5 -28.5q-87 -130 -172 -307
q26 -11 45.5 -32.5t20.5 -37.5zM291 164q91 182 169 297q-81 -59 -162 -137.5t-139 -154.5q77 0 132 -5z" />
    <glyph glyph-name="five.osf" horiz-adv-x="459" 
d="M156 -129q-29 0 -57.5 17t-38.5 42q-28 7 -44 33t-16 57q0 49 23.5 92t44.5 43q12 0 33 -27.5t22 -44.5q-16 -26 -20 -68t6 -64q81 21 151 114t77 181q-95 -7 -139 -39q-10 -7 -13 -6q-23 7 -51 37.5t-30 48.5q-1 23 33 86t71 115q-4 36 4 50q8 15 92.5 28.5t160.5 11.5
q65 2 89.5 -26t1.5 -84q-111 9 -232 -8q-55 -77 -88 -142q14 1 43 1q52 0 93 -17t45 -51q27 -22 28 -66q3 -46 -17.5 -100.5t-57.5 -102t-94 -79.5t-120 -32z" />
    <glyph glyph-name="six.osf" horiz-adv-x="496" 
d="M251 -3q-81 0 -103 61q-17 3 -25 6t-24.5 14t-25.5 36.5t-10 63.5q0 87 44.5 187.5t106.5 177t128.5 128t110.5 51.5q26 0 55 -19.5t30 -40.5q-168 -87 -278 -257q65 62 118 62q24 0 38.5 -11t18.5 -21t8 -28q66 -21 76 -99q7 -62 -30.5 -135t-103.5 -124.5t-134 -51.5z
M175 88q97 16 163.5 108.5t69.5 194.5q-88 -21 -161.5 -116.5t-71.5 -186.5z" />
    <glyph glyph-name="seven.osf" horiz-adv-x="407" 
d="M140 -133q-23 0 -59.5 27t-36.5 48q0 95 305 507q-98 8 -229 -10q-2 24 2.5 54t14.5 42q38 48 163 48q57 0 96.5 -12.5t49.5 -30.5q13 -23 20 -75q16 -16 17 -27q-218 -296 -343 -571z" />
    <glyph glyph-name="eight.osf" horiz-adv-x="444" 
d="M238 -10q-60 -3 -100 35t-44 86q-29 32 -31 71q-1 28 10.5 55.5t26 47t46 46t50.5 40l60 41.5q-59 29 -65 102q-6 93 55 162t142 72q53 1 88.5 -21t41.5 -44q49 -25 50 -79q1 -41 -12.5 -76t-44.5 -67t-58 -53.5t-74 -53.5q57 -29 67 -100q15 -95 -54 -178t-154 -86z
M302 445q76 54 119 107.5t48 123.5q-59 -12 -99.5 -50t-56.5 -85t-11 -96zM138 106q53 -19 102.5 10t75 87t17.5 120q-77 -55 -125 -103.5t-70 -113.5z" />
    <glyph glyph-name="nine.osf" horiz-adv-x="469" 
d="M169 -132q-36 0 -60.5 27t-25.5 52q56 0 126 71t128 179q-80 -89 -138 -89q-70 0 -76 78q-42 28 -45 91q-2 62 41.5 134.5t112 122.5t130.5 50q70 0 93 -41q66 -27 68 -111q3 -103 -59.5 -238.5t-148 -230.5t-146.5 -95zM183 205q95 27 165.5 121.5t82.5 161.5q0 8 1 12
q-94 -16 -164.5 -105t-84.5 -190z" />
    <glyph glyph-name="a.fina" horiz-adv-x="463" 
d="M299 -2q-26 -1 -45 26t-24 59l-9 7q-71 -97 -112 -97q-35 0 -54 33t-21 71q-27 21 -27 70q0 52 25 107.5t61 97t78 68.5t75 27q39 0 61.5 -18.5t25.5 -43.5l23 35q16 17 39 15t43.5 -17.5t20.5 -31.5q-29 -40 -77 -129t-79 -161q45 19 88.5 54.5t62.5 67.5h4
q32 -27 32 -54q-2 -34 -78.5 -109.5t-112.5 -76.5zM74 111q42 15 83 52.5t70 82.5t48.5 82.5t29.5 65.5q-58 -11 -110.5 -64.5t-82 -112t-38.5 -106.5z" />
    <glyph glyph-name="agrave.fina" horiz-adv-x="463" 
d="M305 508q-24 -8 -89.5 40.5t-70.5 75.5q-3 17 17.5 43.5t39.5 34.5q14 -29 112 -164q7 -22 -9 -30zM299 -2q-26 -1 -45 26t-24 59l-9 7q-71 -97 -112 -97q-35 0 -54 33t-21 71q-27 21 -27 70q0 52 25 107.5t61 97t78 68.5t75 27q39 0 61.5 -18.5t25.5 -43.5l23 35
q16 17 39 15t43.5 -17.5t20.5 -31.5q-29 -40 -77 -129t-79 -161q45 19 88.5 54.5t62.5 67.5h4q32 -27 32 -54q-2 -34 -78.5 -109.5t-112.5 -76.5zM74 111q42 15 83 52.5t70 82.5t48.5 82.5t29.5 65.5q-58 -11 -110.5 -64.5t-82 -112t-38.5 -106.5z" />
    <glyph glyph-name="aacute.fina" horiz-adv-x="463" 
d="M281 522q-9 23 40 88.5t75 70.5q17 3 44 -17.5t35 -39.5q-33 -15 -165 -113q-22 -6 -29 11zM299 -2q-26 -1 -45 26t-24 59l-9 7q-71 -97 -112 -97q-35 0 -54 33t-21 71q-27 21 -27 70q0 52 25 107.5t61 97t78 68.5t75 27q39 0 61.5 -18.5t25.5 -43.5l23 35q16 17 39 15
t43.5 -17.5t20.5 -31.5q-29 -40 -77 -129t-79 -161q45 19 88.5 54.5t62.5 67.5h4q32 -27 32 -54q-2 -34 -78.5 -109.5t-112.5 -76.5zM74 111q42 15 83 52.5t70 82.5t48.5 82.5t29.5 65.5q-58 -11 -110.5 -64.5t-82 -112t-38.5 -106.5z" />
    <glyph glyph-name="acircumflex.fina" horiz-adv-x="463" 
d="M396 517q-16 0 -44.5 24.5t-53.5 59.5l-108 -82q-13 11 -13 29q0 24 56 74.5t82 50.5q7 0 17.5 -10t23.5 -28l24.5 -34.5l25 -36.5t18.5 -28q-14 -19 -28 -19zM299 -2q-26 -1 -45 26t-24 59l-9 7q-71 -97 -112 -97q-35 0 -54 33t-21 71q-27 21 -27 70q0 52 25 107.5
t61 97t78 68.5t75 27q39 0 61.5 -18.5t25.5 -43.5l23 35q16 17 39 15t43.5 -17.5t20.5 -31.5q-29 -40 -77 -129t-79 -161q45 19 88.5 54.5t62.5 67.5h4q32 -27 32 -54q-2 -34 -78.5 -109.5t-112.5 -76.5zM74 111q42 15 83 52.5t70 82.5t48.5 82.5t29.5 65.5
q-58 -11 -110.5 -64.5t-82 -112t-38.5 -106.5z" />
    <glyph glyph-name="atilde.fina" horiz-adv-x="463" 
d="M366 555q-30 0 -85.5 10t-73.5 10q-41 0 -61 -20l-5 3q13 101 103 101q30 0 84 -11t68 -11q38 0 51 11q5 0 6 -3q-14 -90 -87 -90zM299 -2q-26 -1 -45 26t-24 59l-9 7q-71 -97 -112 -97q-35 0 -54 33t-21 71q-27 21 -27 70q0 52 25 107.5t61 97t78 68.5t75 27
q39 0 61.5 -18.5t25.5 -43.5l23 35q16 17 39 15t43.5 -17.5t20.5 -31.5q-29 -40 -77 -129t-79 -161q45 19 88.5 54.5t62.5 67.5h4q32 -27 32 -54q-2 -34 -78.5 -109.5t-112.5 -76.5zM74 111q42 15 83 52.5t70 82.5t48.5 82.5t29.5 65.5q-58 -11 -110.5 -64.5t-82 -112
t-38.5 -106.5z" />
    <glyph glyph-name="adieresis.fina" horiz-adv-x="463" 
d="M256 550q-13 -12 -38 -9t-27 18q-21 10 -21 26q0 37 38 75q14 12 35.5 8t28.5 -18q21 -10 21 -25q0 -19 -10.5 -40.5t-26.5 -34.5zM424 541q-13 -13 -38 -8.5t-29 21.5q-22 11 -22 26q0 40 38 76q17 14 41.5 7t24.5 -21q21 -11 21 -26q0 -20 -10 -41t-26 -34zM299 -2
q-26 -1 -45 26t-24 59l-9 7q-71 -97 -112 -97q-35 0 -54 33t-21 71q-27 21 -27 70q0 52 25 107.5t61 97t78 68.5t75 27q39 0 61.5 -18.5t25.5 -43.5l23 35q16 17 39 15t43.5 -17.5t20.5 -31.5q-29 -40 -77 -129t-79 -161q45 19 88.5 54.5t62.5 67.5h4q32 -27 32 -54
q-2 -34 -78.5 -109.5t-112.5 -76.5zM74 111q42 15 83 52.5t70 82.5t48.5 82.5t29.5 65.5q-58 -11 -110.5 -64.5t-82 -112t-38.5 -106.5z" />
    <glyph glyph-name="aring.fina" horiz-adv-x="463" 
d="M380 613q0 -44 -27 -69.5t-71 -25.5q-39 0 -67.5 26t-28.5 69t28.5 69.5t67.5 26.5q44 0 71 -26t27 -70zM236 613q0 -22 12 -36.5t34 -14.5t35 14.5t13 36.5q0 23 -12.5 38t-34.5 15t-34.5 -15t-12.5 -38zM299 -2q-26 -1 -45 26t-24 59l-9 7q-71 -97 -112 -97
q-35 0 -54 33t-21 71q-27 21 -27 70q0 52 25 107.5t61 97t78 68.5t75 27q39 0 61.5 -18.5t25.5 -43.5l23 35q16 17 39 15t43.5 -17.5t20.5 -31.5q-29 -40 -77 -129t-79 -161q45 19 88.5 54.5t62.5 67.5h4q32 -27 32 -54q-2 -34 -78.5 -109.5t-112.5 -76.5zM74 111
q42 15 83 52.5t70 82.5t48.5 82.5t29.5 65.5q-58 -11 -110.5 -64.5t-82 -112t-38.5 -106.5z" />
    <glyph glyph-name="amacron.fina" horiz-adv-x="463" 
d="M218 548q-44 0 -59.5 11.5t-15.5 43.5q0 14 4.5 19.5t16.5 6.5l191 9q44 2 60.5 -12.5t16.5 -51.5q0 -16 -4 -21t-16 -5h-194zM299 -2q-26 -1 -45 26t-24 59l-9 7q-71 -97 -112 -97q-35 0 -54 33t-21 71q-27 21 -27 70q0 52 25 107.5t61 97t78 68.5t75 27
q39 0 61.5 -18.5t25.5 -43.5l23 35q16 17 39 15t43.5 -17.5t20.5 -31.5q-29 -40 -77 -129t-79 -161q45 19 88.5 54.5t62.5 67.5h4q32 -27 32 -54q-2 -34 -78.5 -109.5t-112.5 -76.5zM74 111q42 15 83 52.5t70 82.5t48.5 82.5t29.5 65.5q-58 -11 -110.5 -64.5t-82 -112
t-38.5 -106.5z" />
    </font>
</defs>
</svg>
